<svg version="1.1" xmlns="http://www.w3.org/2000/svg" width="900" height="250"><defs><clipPath id="TSTLuSpRLUuS"><path fill="none" stroke="none" d="M 77.5 5.5 L 870.5 5.5 L 870.5 192.5 L 77.5 192.5 L 77.5 5.5"/></clipPath><clipPath id="ixxpChiuJCEq"><path fill="none" stroke="none" d="M 77.5 5.5 L 870.5 5.5 L 870.5 192.5 L 77.5 192.5 L 77.5 5.5"/></clipPath><clipPath id="sNqAynvQEuFw"><path fill="none" stroke="none" d="M 77.5 5.5 L 870.5 5.5 L 870.5 192.5 L 77.5 192.5 L 77.5 5.5"/></clipPath><clipPath id="WTDTscCilFnZ"><path fill="none" stroke="none" d="M 77.5 5.5 L 870.5 5.5 L 870.5 192.5 L 77.5 192.5 L 77.5 5.5"/></clipPath><clipPath id="uaWCGguOUgep"><path fill="none" stroke="none" d="M 77.5 5.5 L 870.5 5.5 L 870.5 192.5 L 77.5 192.5 L 77.5 5.5"/></clipPath><clipPath id="PRyBLgniazTF"><path fill="none" stroke="none" d="M 77.5 5.5 L 870.5 5.5 L 870.5 192.5 L 77.5 192.5 L 77.5 5.5"/></clipPath></defs><path fill="rgb(255,255,255)" stroke="none" paint-order="stroke" d="M 0.5 0.5 L 900.5 0.5 L 900.5 250.5 L 0.5 250.5 L 0.5 0.5" fill-opacity="1"/><rect fill="#FFFFFF" stroke="none" x="77" y="5" width="793" height="187" transform="matrix(1, 0, 0, 1, 0.5, 0.5)"/><path fill="rgb(245,245,245)" stroke="none" paint-order="stroke" d="M 77.5 5.5 L 870.5 5.5 L 870.5 192.5 L 77.5 192.5 L 77.5 5.5" fill-opacity="1"/><path fill="none" stroke="rgb(229,229,229)" paint-order="fill" d="M 77.5 5.5 L 870.5 5.5 L 870.5 192.5 L 77.5 192.5 L 77.5 5.5" stroke-opacity="1" stroke-linejoin="bevel" stroke-miterlimit="10" stroke-dasharray=""/><path fill="none" stroke="rgb(255,255,255)" paint-order="fill" d="M 113.5 192.5 L 113.5 5.5 M 257.5 192.5 L 257.5 5.5 M 401.5 192.5 L 401.5 5.5 M 546.5 192.5 L 546.5 5.5 M 690.5 192.5 L 690.5 5.5 M 834.5 192.5 L 834.5 5.5" stroke-opacity="1" stroke-linejoin="bevel" stroke-miterlimit="10" stroke-width="4" stroke-dasharray="" clip-path="url(#TSTLuSpRLUuS)"/><path fill="none" stroke="rgb(255,255,255)" paint-order="fill" d="M 77.5 144.5 L 870.5 144.5 M 77.5 105.5 L 870.5 105.5 M 77.5 66.5 L 870.5 66.5" stroke-opacity="1" stroke-linejoin="bevel" stroke-miterlimit="10" stroke-width="4" stroke-dasharray="" clip-path="url(#ixxpChiuJCEq)"/><path fill="rgb(0,139,139)" stroke="rgb(255,255,255)" paint-order="fill" d="M 113.54545593261719 106.05068969726562 L 125.76425170898438 106.05068969726562 L 125.76425170898438 184 L 113.54545593261719 184 L 113.54545593261719 106.05068969726562" fill-opacity="0.5019607843137255" clip-path="url(#sNqAynvQEuFw)" stroke-opacity="1" stroke-linejoin="bevel" stroke-miterlimit="10" stroke-dasharray=""/><path fill="rgb(0,139,139)" stroke="rgb(255,255,255)" paint-order="fill" d="M 125.76425170898438 119.36865997314453 L 137.98304748535156 119.36865997314453 L 137.98304748535156 184 L 125.76425170898438 184 L 125.76425170898438 119.36865997314453" fill-opacity="0.5019607843137255" clip-path="url(#sNqAynvQEuFw)" stroke-opacity="1" stroke-linejoin="bevel" stroke-miterlimit="10" stroke-dasharray=""/><path fill="rgb(0,139,139)" stroke="rgb(255,255,255)" paint-order="fill" d="M 137.98304748535156 112.3179702758789 L 150.20184326171875 112.3179702758789 L 150.20184326171875 184 L 137.98304748535156 184 L 137.98304748535156 112.3179702758789" fill-opacity="0.5019607843137255" clip-path="url(#sNqAynvQEuFw)" stroke-opacity="1" stroke-linejoin="bevel" stroke-miterlimit="10" stroke-dasharray=""/><path fill="rgb(0,139,139)" stroke="rgb(255,255,255)" paint-order="fill" d="M 150.20184326171875 118.58525085449219 L 162.420654296875 118.58525085449219 L 162.420654296875 184 L 150.20184326171875 184 L 150.20184326171875 118.58525085449219" fill-opacity="0.5019607843137255" clip-path="url(#sNqAynvQEuFw)" stroke-opacity="1" stroke-linejoin="bevel" stroke-miterlimit="10" stroke-dasharray=""/><path fill="rgb(0,139,139)" stroke="rgb(255,255,255)" paint-order="fill" d="M 162.420654296875 120.54377746582031 L 174.6394500732422 120.54377746582031 L 174.6394500732422 184 L 162.420654296875 184 L 162.420654296875 120.54377746582031" fill-opacity="0.5019607843137255" clip-path="url(#sNqAynvQEuFw)" stroke-opacity="1" stroke-linejoin="bevel" stroke-miterlimit="10" stroke-dasharray=""/><path fill="rgb(0,139,139)" stroke="rgb(255,255,255)" paint-order="fill" d="M 174.6394500732422 115.45161437988281 L 186.85824584960938 115.45161437988281 L 186.85824584960938 184 L 174.6394500732422 184 L 174.6394500732422 115.45161437988281" fill-opacity="0.5019607843137255" clip-path="url(#sNqAynvQEuFw)" stroke-opacity="1" stroke-linejoin="bevel" stroke-miterlimit="10" stroke-dasharray=""/><path fill="rgb(0,139,139)" stroke="rgb(255,255,255)" paint-order="fill" d="M 186.85824584960938 127.20276641845703 L 199.07704162597656 127.20276641845703 L 199.07704162597656 184 L 186.85824584960938 184 L 186.85824584960938 127.20276641845703" fill-opacity="0.5019607843137255" clip-path="url(#sNqAynvQEuFw)" stroke-opacity="1" stroke-linejoin="bevel" stroke-miterlimit="10" stroke-dasharray=""/><path fill="rgb(0,139,139)" stroke="rgb(255,255,255)" paint-order="fill" d="M 199.07704162597656 112.70967864990234 L 211.29583740234375 112.70967864990234 L 211.29583740234375 184 L 199.07704162597656 184 L 199.07704162597656 112.70967864990234" fill-opacity="0.5019607843137255" clip-path="url(#sNqAynvQEuFw)" stroke-opacity="1" stroke-linejoin="bevel" stroke-miterlimit="10" stroke-dasharray=""/><path fill="rgb(0,139,139)" stroke="rgb(255,255,255)" paint-order="fill" d="M 211.29583740234375 118.58525085449219 L 223.51463317871094 118.58525085449219 L 223.51463317871094 184 L 211.29583740234375 184 L 211.29583740234375 118.58525085449219" fill-opacity="0.5019607843137255" clip-path="url(#sNqAynvQEuFw)" stroke-opacity="1" stroke-linejoin="bevel" stroke-miterlimit="10" stroke-dasharray=""/><path fill="rgb(0,139,139)" stroke="rgb(255,255,255)" paint-order="fill" d="M 223.51463317871094 130.33641052246094 L 235.73342895507812 130.33641052246094 L 235.73342895507812 184 L 223.51463317871094 184 L 223.51463317871094 130.33641052246094" fill-opacity="0.5019607843137255" clip-path="url(#sNqAynvQEuFw)" stroke-opacity="1" stroke-linejoin="bevel" stroke-miterlimit="10" stroke-dasharray=""/><path fill="rgb(0,139,139)" stroke="rgb(255,255,255)" paint-order="fill" d="M 235.73342895507812 117.0184326171875 L 247.95223999023438 117.0184326171875 L 247.95223999023438 184 L 235.73342895507812 184 L 235.73342895507812 117.0184326171875" fill-opacity="0.5019607843137255" clip-path="url(#sNqAynvQEuFw)" stroke-opacity="1" stroke-linejoin="bevel" stroke-miterlimit="10" stroke-dasharray=""/><path fill="rgb(0,139,139)" stroke="rgb(255,255,255)" paint-order="fill" d="M 247.95223999023438 135.036865234375 L 260.1710205078125 135.036865234375 L 260.1710205078125 184 L 247.95223999023438 184 L 247.95223999023438 135.036865234375" fill-opacity="0.5019607843137255" clip-path="url(#sNqAynvQEuFw)" stroke-opacity="1" stroke-linejoin="bevel" stroke-miterlimit="10" stroke-dasharray=""/><path fill="rgb(0,139,139)" stroke="rgb(255,255,255)" paint-order="fill" d="M 260.1710205078125 128.76959228515625 L 272.38983154296875 128.76959228515625 L 272.38983154296875 184 L 260.1710205078125 184 L 260.1710205078125 128.76959228515625" fill-opacity="0.5019607843137255" clip-path="url(#sNqAynvQEuFw)" stroke-opacity="1" stroke-linejoin="bevel" stroke-miterlimit="10" stroke-dasharray=""/><path fill="rgb(0,139,139)" stroke="rgb(255,255,255)" paint-order="fill" d="M 272.38983154296875 137.38710021972656 L 284.608642578125 137.38710021972656 L 284.608642578125 184 L 272.38983154296875 184 L 272.38983154296875 137.38710021972656" fill-opacity="0.5019607843137255" clip-path="url(#sNqAynvQEuFw)" stroke-opacity="1" stroke-linejoin="bevel" stroke-miterlimit="10" stroke-dasharray=""/><path fill="rgb(0,139,139)" stroke="rgb(255,255,255)" paint-order="fill" d="M 284.608642578125 146.00460815429688 L 296.8274230957031 146.00460815429688 L 296.8274230957031 184 L 284.608642578125 184 L 284.608642578125 146.00460815429688" fill-opacity="0.5019607843137255" clip-path="url(#sNqAynvQEuFw)" stroke-opacity="1" stroke-linejoin="bevel" stroke-miterlimit="10" stroke-dasharray=""/><path fill="rgb(0,139,139)" stroke="rgb(255,255,255)" paint-order="fill" d="M 296.8274230957031 136.99539184570312 L 309.0462341308594 136.99539184570312 L 309.0462341308594 184 L 296.8274230957031 184 L 296.8274230957031 136.99539184570312" fill-opacity="0.5019607843137255" clip-path="url(#sNqAynvQEuFw)" stroke-opacity="1" stroke-linejoin="bevel" stroke-miterlimit="10" stroke-dasharray=""/><path fill="rgb(0,139,139)" stroke="rgb(255,255,255)" paint-order="fill" d="M 309.0462341308594 142.8709716796875 L 321.2650146484375 142.8709716796875 L 321.2650146484375 184 L 309.0462341308594 184 L 309.0462341308594 142.8709716796875" fill-opacity="0.5019607843137255" clip-path="url(#sNqAynvQEuFw)" stroke-opacity="1" stroke-linejoin="bevel" stroke-miterlimit="10" stroke-dasharray=""/><path fill="rgb(0,139,139)" stroke="rgb(255,255,255)" paint-order="fill" d="M 321.2650146484375 143.6543731689453 L 333.48382568359375 143.6543731689453 L 333.48382568359375 184 L 321.2650146484375 184 L 321.2650146484375 143.6543731689453" fill-opacity="0.5019607843137255" clip-path="url(#sNqAynvQEuFw)" stroke-opacity="1" stroke-linejoin="bevel" stroke-miterlimit="10" stroke-dasharray=""/><path fill="rgb(0,139,139)" stroke="rgb(255,255,255)" paint-order="fill" d="M 333.48382568359375 135.82028198242188 L 345.7026062011719 135.82028198242188 L 345.7026062011719 184 L 333.48382568359375 184 L 333.48382568359375 135.82028198242188" fill-opacity="0.5019607843137255" clip-path="url(#sNqAynvQEuFw)" stroke-opacity="1" stroke-linejoin="bevel" stroke-miterlimit="10" stroke-dasharray=""/><path fill="rgb(0,139,139)" stroke="rgb(255,255,255)" paint-order="fill" d="M 345.7026062011719 151.09677124023438 L 357.9214172363281 151.09677124023438 L 357.9214172363281 184 L 345.7026062011719 184 L 345.7026062011719 151.09677124023438" fill-opacity="0.5019607843137255" clip-path="url(#sNqAynvQEuFw)" stroke-opacity="1" stroke-linejoin="bevel" stroke-miterlimit="10" stroke-dasharray=""/><path fill="rgb(0,139,139)" stroke="rgb(255,255,255)" paint-order="fill" d="M 357.9214172363281 151.88018798828125 L 370.1402282714844 151.88018798828125 L 370.1402282714844 184 L 357.9214172363281 184 L 357.9214172363281 151.88018798828125" fill-opacity="0.5019607843137255" clip-path="url(#sNqAynvQEuFw)" stroke-opacity="1" stroke-linejoin="bevel" stroke-miterlimit="10" stroke-dasharray=""/><path fill="rgb(0,139,139)" stroke="rgb(255,255,255)" paint-order="fill" d="M 370.1402282714844 150.31336975097656 L 382.3590087890625 150.31336975097656 L 382.3590087890625 184 L 370.1402282714844 184 L 370.1402282714844 150.31336975097656" fill-opacity="0.5019607843137255" clip-path="url(#sNqAynvQEuFw)" stroke-opacity="1" stroke-linejoin="bevel" stroke-miterlimit="10" stroke-dasharray=""/><path fill="rgb(0,139,139)" stroke="rgb(255,255,255)" paint-order="fill" d="M 382.3590087890625 157.3640594482422 L 394.57781982421875 157.3640594482422 L 394.57781982421875 184 L 382.3590087890625 184 L 382.3590087890625 157.3640594482422" fill-opacity="0.5019607843137255" clip-path="url(#sNqAynvQEuFw)" stroke-opacity="1" stroke-linejoin="bevel" stroke-miterlimit="10" stroke-dasharray=""/><path fill="rgb(0,139,139)" stroke="rgb(255,255,255)" paint-order="fill" d="M 394.57781982421875 163.63133239746094 L 406.7966003417969 163.63133239746094 L 406.7966003417969 184 L 394.57781982421875 184 L 394.57781982421875 163.63133239746094" fill-opacity="0.5019607843137255" clip-path="url(#sNqAynvQEuFw)" stroke-opacity="1" stroke-linejoin="bevel" stroke-miterlimit="10" stroke-dasharray=""/><path fill="rgb(0,139,139)" stroke="rgb(255,255,255)" paint-order="fill" d="M 406.7966003417969 158.93087768554688 L 419.0154113769531 158.93087768554688 L 419.0154113769531 184 L 406.7966003417969 184 L 406.7966003417969 158.93087768554688" fill-opacity="0.5019607843137255" clip-path="url(#sNqAynvQEuFw)" stroke-opacity="1" stroke-linejoin="bevel" stroke-miterlimit="10" stroke-dasharray=""/><path fill="rgb(0,139,139)" stroke="rgb(255,255,255)" paint-order="fill" d="M 419.0154113769531 165.9815673828125 L 431.23419189453125 165.9815673828125 L 431.23419189453125 184 L 419.0154113769531 184 L 419.0154113769531 165.9815673828125" fill-opacity="0.5019607843137255" clip-path="url(#sNqAynvQEuFw)" stroke-opacity="1" stroke-linejoin="bevel" stroke-miterlimit="10" stroke-dasharray=""/><path fill="rgb(0,139,139)" stroke="rgb(255,255,255)" paint-order="fill" d="M 431.23419189453125 163.63133239746094 L 443.4530029296875 163.63133239746094 L 443.4530029296875 184 L 431.23419189453125 184 L 431.23419189453125 163.63133239746094" fill-opacity="0.5019607843137255" clip-path="url(#sNqAynvQEuFw)" stroke-opacity="1" stroke-linejoin="bevel" stroke-miterlimit="10" stroke-dasharray=""/><path fill="rgb(0,139,139)" stroke="rgb(255,255,255)" paint-order="fill" d="M 443.4530029296875 165.19815063476562 L 455.67181396484375 165.19815063476562 L 455.67181396484375 184 L 443.4530029296875 184 L 443.4530029296875 165.19815063476562" fill-opacity="0.5019607843137255" clip-path="url(#sNqAynvQEuFw)" stroke-opacity="1" stroke-linejoin="bevel" stroke-miterlimit="10" stroke-dasharray=""/><path fill="rgb(0,139,139)" stroke="rgb(255,255,255)" paint-order="fill" d="M 455.67181396484375 165.9815673828125 L 467.8905944824219 165.9815673828125 L 467.8905944824219 184 L 455.67181396484375 184 L 455.67181396484375 165.9815673828125" fill-opacity="0.5019607843137255" clip-path="url(#sNqAynvQEuFw)" stroke-opacity="1" stroke-linejoin="bevel" stroke-miterlimit="10" stroke-dasharray=""/><path fill="rgb(0,139,139)" stroke="rgb(255,255,255)" paint-order="fill" d="M 467.8905944824219 169.5069122314453 L 480.1094055175781 169.5069122314453 L 480.1094055175781 184 L 467.8905944824219 184 L 467.8905944824219 169.5069122314453" fill-opacity="0.5019607843137255" clip-path="url(#sNqAynvQEuFw)" stroke-opacity="1" stroke-linejoin="bevel" stroke-miterlimit="10" stroke-dasharray=""/><path fill="rgb(0,139,139)" stroke="rgb(255,255,255)" paint-order="fill" d="M 480.1094055175781 169.89862060546875 L 492.32818603515625 169.89862060546875 L 492.32818603515625 184 L 480.1094055175781 184 L 480.1094055175781 169.89862060546875" fill-opacity="0.5019607843137255" clip-path="url(#sNqAynvQEuFw)" stroke-opacity="1" stroke-linejoin="bevel" stroke-miterlimit="10" stroke-dasharray=""/><path fill="rgb(0,139,139)" stroke="rgb(255,255,255)" paint-order="fill" d="M 492.32818603515625 169.5069122314453 L 504.5469970703125 169.5069122314453 L 504.5469970703125 184 L 492.32818603515625 184 L 492.32818603515625 169.5069122314453" fill-opacity="0.5019607843137255" clip-path="url(#sNqAynvQEuFw)" stroke-opacity="1" stroke-linejoin="bevel" stroke-miterlimit="10" stroke-dasharray=""/><path fill="rgb(0,139,139)" stroke="rgb(255,255,255)" paint-order="fill" d="M 504.5469970703125 169.5069122314453 L 516.7658081054688 169.5069122314453 L 516.7658081054688 184 L 504.5469970703125 184 L 504.5469970703125 169.5069122314453" fill-opacity="0.5019607843137255" clip-path="url(#sNqAynvQEuFw)" stroke-opacity="1" stroke-linejoin="bevel" stroke-miterlimit="10" stroke-dasharray=""/><path fill="rgb(0,139,139)" stroke="rgb(255,255,255)" paint-order="fill" d="M 516.7658081054688 167.94009399414062 L 528.984619140625 167.94009399414062 L 528.984619140625 184 L 516.7658081054688 184 L 516.7658081054688 167.94009399414062" fill-opacity="0.5019607843137255" clip-path="url(#sNqAynvQEuFw)" stroke-opacity="1" stroke-linejoin="bevel" stroke-miterlimit="10" stroke-dasharray=""/><path fill="rgb(0,139,139)" stroke="rgb(255,255,255)" paint-order="fill" d="M 528.984619140625 173.815673828125 L 541.203369140625 173.815673828125 L 541.203369140625 184 L 528.984619140625 184 L 528.984619140625 173.815673828125" fill-opacity="0.5019607843137255" clip-path="url(#sNqAynvQEuFw)" stroke-opacity="1" stroke-linejoin="bevel" stroke-miterlimit="10" stroke-dasharray=""/><path fill="rgb(0,139,139)" stroke="rgb(255,255,255)" paint-order="fill" d="M 541.203369140625 171.46543884277344 L 553.4221801757812 171.46543884277344 L 553.4221801757812 184 L 541.203369140625 184 L 541.203369140625 171.46543884277344" fill-opacity="0.5019607843137255" clip-path="url(#sNqAynvQEuFw)" stroke-opacity="1" stroke-linejoin="bevel" stroke-miterlimit="10" stroke-dasharray=""/><path fill="rgb(0,139,139)" stroke="rgb(255,255,255)" paint-order="fill" d="M 553.4221801757812 168.72349548339844 L 565.6409912109375 168.72349548339844 L 565.6409912109375 184 L 553.4221801757812 184 L 553.4221801757812 168.72349548339844" fill-opacity="0.5019607843137255" clip-path="url(#sNqAynvQEuFw)" stroke-opacity="1" stroke-linejoin="bevel" stroke-miterlimit="10" stroke-dasharray=""/><path fill="rgb(0,139,139)" stroke="rgb(255,255,255)" paint-order="fill" d="M 565.6409912109375 172.24884033203125 L 577.8598022460938 172.24884033203125 L 577.8598022460938 184 L 565.6409912109375 184 L 565.6409912109375 172.24884033203125" fill-opacity="0.5019607843137255" clip-path="url(#sNqAynvQEuFw)" stroke-opacity="1" stroke-linejoin="bevel" stroke-miterlimit="10" stroke-dasharray=""/><path fill="rgb(0,139,139)" stroke="rgb(255,255,255)" paint-order="fill" d="M 577.8598022460938 173.03225708007812 L 590.0785522460938 173.03225708007812 L 590.0785522460938 184 L 577.8598022460938 184 L 577.8598022460938 173.03225708007812" fill-opacity="0.5019607843137255" clip-path="url(#sNqAynvQEuFw)" stroke-opacity="1" stroke-linejoin="bevel" stroke-miterlimit="10" stroke-dasharray=""/><path fill="rgb(0,139,139)" stroke="rgb(255,255,255)" paint-order="fill" d="M 590.0785522460938 176.55760192871094 L 602.29736328125 176.55760192871094 L 602.29736328125 184 L 590.0785522460938 184 L 590.0785522460938 176.55760192871094" fill-opacity="0.5019607843137255" clip-path="url(#sNqAynvQEuFw)" stroke-opacity="1" stroke-linejoin="bevel" stroke-miterlimit="10" stroke-dasharray=""/><path fill="rgb(0,139,139)" stroke="rgb(255,255,255)" paint-order="fill" d="M 602.29736328125 175.3824920654297 L 614.5161743164062 175.3824920654297 L 614.5161743164062 184 L 602.29736328125 184 L 602.29736328125 175.3824920654297" fill-opacity="0.5019607843137255" clip-path="url(#sNqAynvQEuFw)" stroke-opacity="1" stroke-linejoin="bevel" stroke-miterlimit="10" stroke-dasharray=""/><path fill="rgb(0,139,139)" stroke="rgb(255,255,255)" paint-order="fill" d="M 614.5161743164062 173.42396545410156 L 626.7349853515625 173.42396545410156 L 626.7349853515625 184 L 614.5161743164062 184 L 614.5161743164062 173.42396545410156" fill-opacity="0.5019607843137255" clip-path="url(#sNqAynvQEuFw)" stroke-opacity="1" stroke-linejoin="bevel" stroke-miterlimit="10" stroke-dasharray=""/><path fill="rgb(0,139,139)" stroke="rgb(255,255,255)" paint-order="fill" d="M 626.7349853515625 178.9078369140625 L 638.9537963867188 178.9078369140625 L 638.9537963867188 184 L 626.7349853515625 184 L 626.7349853515625 178.9078369140625" fill-opacity="0.5019607843137255" clip-path="url(#sNqAynvQEuFw)" stroke-opacity="1" stroke-linejoin="bevel" stroke-miterlimit="10" stroke-dasharray=""/><path fill="rgb(0,139,139)" stroke="rgb(255,255,255)" paint-order="fill" d="M 638.9537963867188 178.12442016601562 L 651.1725463867188 178.12442016601562 L 651.1725463867188 184 L 638.9537963867188 184 L 638.9537963867188 178.12442016601562" fill-opacity="0.5019607843137255" clip-path="url(#sNqAynvQEuFw)" stroke-opacity="1" stroke-linejoin="bevel" stroke-miterlimit="10" stroke-dasharray=""/><path fill="rgb(0,139,139)" stroke="rgb(255,255,255)" paint-order="fill" d="M 651.1725463867188 175.3824920654297 L 663.391357421875 175.3824920654297 L 663.391357421875 184 L 651.1725463867188 184 L 651.1725463867188 175.3824920654297" fill-opacity="0.5019607843137255" clip-path="url(#sNqAynvQEuFw)" stroke-opacity="1" stroke-linejoin="bevel" stroke-miterlimit="10" stroke-dasharray=""/><path fill="rgb(0,139,139)" stroke="rgb(255,255,255)" paint-order="fill" d="M 663.391357421875 178.9078369140625 L 675.6101684570312 178.9078369140625 L 675.6101684570312 184 L 663.391357421875 184 L 663.391357421875 178.9078369140625" fill-opacity="0.5019607843137255" clip-path="url(#sNqAynvQEuFw)" stroke-opacity="1" stroke-linejoin="bevel" stroke-miterlimit="10" stroke-dasharray=""/><path fill="rgb(0,139,139)" stroke="rgb(255,255,255)" paint-order="fill" d="M 675.6101684570312 179.6912384033203 L 687.8289794921875 179.6912384033203 L 687.8289794921875 184 L 675.6101684570312 184 L 675.6101684570312 179.6912384033203" fill-opacity="0.5019607843137255" clip-path="url(#sNqAynvQEuFw)" stroke-opacity="1" stroke-linejoin="bevel" stroke-miterlimit="10" stroke-dasharray=""/><path fill="rgb(0,139,139)" stroke="rgb(255,255,255)" paint-order="fill" d="M 687.8289794921875 178.12442016601562 L 700.0477905273438 178.12442016601562 L 700.0477905273438 184 L 687.8289794921875 184 L 687.8289794921875 178.12442016601562" fill-opacity="0.5019607843137255" clip-path="url(#sNqAynvQEuFw)" stroke-opacity="1" stroke-linejoin="bevel" stroke-miterlimit="10" stroke-dasharray=""/><path fill="rgb(0,139,139)" stroke="rgb(255,255,255)" paint-order="fill" d="M 700.0477905273438 179.29954528808594 L 712.2665405273438 179.29954528808594 L 712.2665405273438 184 L 700.0477905273438 184 L 700.0477905273438 179.29954528808594" fill-opacity="0.5019607843137255" clip-path="url(#sNqAynvQEuFw)" stroke-opacity="1" stroke-linejoin="bevel" stroke-miterlimit="10" stroke-dasharray=""/><path fill="rgb(0,139,139)" stroke="rgb(255,255,255)" paint-order="fill" d="M 712.2665405273438 179.29954528808594 L 724.4853515625 179.29954528808594 L 724.4853515625 184 L 712.2665405273438 184 L 712.2665405273438 179.29954528808594" fill-opacity="0.5019607843137255" clip-path="url(#sNqAynvQEuFw)" stroke-opacity="1" stroke-linejoin="bevel" stroke-miterlimit="10" stroke-dasharray=""/><path fill="rgb(0,139,139)" stroke="rgb(255,255,255)" paint-order="fill" d="M 724.4853515625 179.6912384033203 L 736.7041625976562 179.6912384033203 L 736.7041625976562 184 L 724.4853515625 184 L 724.4853515625 179.6912384033203" fill-opacity="0.5019607843137255" clip-path="url(#sNqAynvQEuFw)" stroke-opacity="1" stroke-linejoin="bevel" stroke-miterlimit="10" stroke-dasharray=""/><path fill="rgb(0,139,139)" stroke="rgb(255,255,255)" paint-order="fill" d="M 736.7041625976562 177.3410186767578 L 748.9229736328125 177.3410186767578 L 748.9229736328125 184 L 736.7041625976562 184 L 736.7041625976562 177.3410186767578" fill-opacity="0.5019607843137255" clip-path="url(#sNqAynvQEuFw)" stroke-opacity="1" stroke-linejoin="bevel" stroke-miterlimit="10" stroke-dasharray=""/><path fill="rgb(0,139,139)" stroke="rgb(255,255,255)" paint-order="fill" d="M 748.9229736328125 177.7327117919922 L 761.1417846679688 177.7327117919922 L 761.1417846679688 184 L 748.9229736328125 184 L 748.9229736328125 177.7327117919922" fill-opacity="0.5019607843137255" clip-path="url(#sNqAynvQEuFw)" stroke-opacity="1" stroke-linejoin="bevel" stroke-miterlimit="10" stroke-dasharray=""/><path fill="rgb(0,139,139)" stroke="rgb(255,255,255)" paint-order="fill" d="M 761.1417846679688 176.94931030273438 L 773.3605346679688 176.94931030273438 L 773.3605346679688 184 L 761.1417846679688 184 L 761.1417846679688 176.94931030273438" fill-opacity="0.5019607843137255" clip-path="url(#sNqAynvQEuFw)" stroke-opacity="1" stroke-linejoin="bevel" stroke-miterlimit="10" stroke-dasharray=""/><path fill="rgb(0,139,139)" stroke="rgb(255,255,255)" paint-order="fill" d="M 773.3605346679688 180.4746551513672 L 785.579345703125 180.4746551513672 L 785.579345703125 184 L 773.3605346679688 184 L 773.3605346679688 180.4746551513672" fill-opacity="0.5019607843137255" clip-path="url(#sNqAynvQEuFw)" stroke-opacity="1" stroke-linejoin="bevel" stroke-miterlimit="10" stroke-dasharray=""/><path fill="rgb(0,139,139)" stroke="rgb(255,255,255)" paint-order="fill" d="M 785.579345703125 178.51612854003906 L 797.7981567382812 178.51612854003906 L 797.7981567382812 184 L 785.579345703125 184 L 785.579345703125 178.51612854003906" fill-opacity="0.5019607843137255" clip-path="url(#sNqAynvQEuFw)" stroke-opacity="1" stroke-linejoin="bevel" stroke-miterlimit="10" stroke-dasharray=""/><path fill="rgb(0,139,139)" stroke="rgb(255,255,255)" paint-order="fill" d="M 797.7981567382812 179.29954528808594 L 810.0169677734375 179.29954528808594 L 810.0169677734375 184 L 797.7981567382812 184 L 797.7981567382812 179.29954528808594" fill-opacity="0.5019607843137255" clip-path="url(#sNqAynvQEuFw)" stroke-opacity="1" stroke-linejoin="bevel" stroke-miterlimit="10" stroke-dasharray=""/><path fill="rgb(0,139,139)" stroke="rgb(255,255,255)" paint-order="fill" d="M 810.0169677734375 181.64976501464844 L 822.2357177734375 181.64976501464844 L 822.2357177734375 184 L 810.0169677734375 184 L 810.0169677734375 181.64976501464844" fill-opacity="0.5019607843137255" clip-path="url(#sNqAynvQEuFw)" stroke-opacity="1" stroke-linejoin="bevel" stroke-miterlimit="10" stroke-dasharray=""/><path fill="rgb(0,139,139)" stroke="rgb(255,255,255)" paint-order="fill" d="M 822.2357177734375 112.3179702758789 L 834.4545288085938 112.3179702758789 L 834.4545288085938 184 L 822.2357177734375 184 L 822.2357177734375 112.3179702758789" fill-opacity="0.5019607843137255" clip-path="url(#sNqAynvQEuFw)" stroke-opacity="1" stroke-linejoin="bevel" stroke-miterlimit="10" stroke-dasharray=""/><path fill="rgb(255,140,0)" stroke="rgb(255,255,255)" paint-order="fill" d="M 113.54545593261719 14 L 125.76425170898438 14 L 125.76425170898438 184 L 113.54545593261719 184 L 113.54545593261719 14" fill-opacity="0.5019607843137255" clip-path="url(#WTDTscCilFnZ)" stroke-opacity="1" stroke-linejoin="bevel" stroke-miterlimit="10" stroke-dasharray=""/><path fill="rgb(255,140,0)" stroke="rgb(255,255,255)" paint-order="fill" d="M 125.76425170898438 38.28571319580078 L 137.98304748535156 38.28571319580078 L 137.98304748535156 184 L 125.76425170898438 184 L 125.76425170898438 38.28571319580078" fill-opacity="0.5019607843137255" clip-path="url(#WTDTscCilFnZ)" stroke-opacity="1" stroke-linejoin="bevel" stroke-miterlimit="10" stroke-dasharray=""/><path fill="rgb(255,140,0)" stroke="rgb(255,255,255)" paint-order="fill" d="M 137.98304748535156 41.02764892578125 L 150.20184326171875 41.02764892578125 L 150.20184326171875 184 L 137.98304748535156 184 L 137.98304748535156 41.02764892578125" fill-opacity="0.5019607843137255" clip-path="url(#WTDTscCilFnZ)" stroke-opacity="1" stroke-linejoin="bevel" stroke-miterlimit="10" stroke-dasharray=""/><path fill="rgb(255,140,0)" stroke="rgb(255,255,255)" paint-order="fill" d="M 150.20184326171875 35.935482025146484 L 162.420654296875 35.935482025146484 L 162.420654296875 184 L 150.20184326171875 184 L 150.20184326171875 35.935482025146484" fill-opacity="0.5019607843137255" clip-path="url(#WTDTscCilFnZ)" stroke-opacity="1" stroke-linejoin="bevel" stroke-miterlimit="10" stroke-dasharray=""/><path fill="rgb(255,140,0)" stroke="rgb(255,255,255)" paint-order="fill" d="M 162.420654296875 42.20276641845703 L 174.6394500732422 42.20276641845703 L 174.6394500732422 184 L 162.420654296875 184 L 162.420654296875 42.20276641845703" fill-opacity="0.5019607843137255" clip-path="url(#WTDTscCilFnZ)" stroke-opacity="1" stroke-linejoin="bevel" stroke-miterlimit="10" stroke-dasharray=""/><path fill="rgb(255,140,0)" stroke="rgb(255,255,255)" paint-order="fill" d="M 174.6394500732422 70.79723358154297 L 186.85824584960938 70.79723358154297 L 186.85824584960938 184 L 174.6394500732422 184 L 174.6394500732422 70.79723358154297" fill-opacity="0.5019607843137255" clip-path="url(#WTDTscCilFnZ)" stroke-opacity="1" stroke-linejoin="bevel" stroke-miterlimit="10" stroke-dasharray=""/><path fill="rgb(255,140,0)" stroke="rgb(255,255,255)" paint-order="fill" d="M 186.85824584960938 88.03225708007812 L 199.07704162597656 88.03225708007812 L 199.07704162597656 184 L 186.85824584960938 184 L 186.85824584960938 88.03225708007812" fill-opacity="0.5019607843137255" clip-path="url(#WTDTscCilFnZ)" stroke-opacity="1" stroke-linejoin="bevel" stroke-miterlimit="10" stroke-dasharray=""/><path fill="rgb(255,140,0)" stroke="rgb(255,255,255)" paint-order="fill" d="M 199.07704162597656 88.03225708007812 L 211.29583740234375 88.03225708007812 L 211.29583740234375 184 L 199.07704162597656 184 L 199.07704162597656 88.03225708007812" fill-opacity="0.5019607843137255" clip-path="url(#WTDTscCilFnZ)" stroke-opacity="1" stroke-linejoin="bevel" stroke-miterlimit="10" stroke-dasharray=""/><path fill="rgb(255,140,0)" stroke="rgb(255,255,255)" paint-order="fill" d="M 211.29583740234375 102.91705322265625 L 223.51463317871094 102.91705322265625 L 223.51463317871094 184 L 211.29583740234375 184 L 211.29583740234375 102.91705322265625" fill-opacity="0.5019607843137255" clip-path="url(#WTDTscCilFnZ)" stroke-opacity="1" stroke-linejoin="bevel" stroke-miterlimit="10" stroke-dasharray=""/><path fill="rgb(255,140,0)" stroke="rgb(255,255,255)" paint-order="fill" d="M 223.51463317871094 114.27649688720703 L 235.73342895507812 114.27649688720703 L 235.73342895507812 184 L 223.51463317871094 184 L 223.51463317871094 114.27649688720703" fill-opacity="0.5019607843137255" clip-path="url(#WTDTscCilFnZ)" stroke-opacity="1" stroke-linejoin="bevel" stroke-miterlimit="10" stroke-dasharray=""/><path fill="rgb(255,140,0)" stroke="rgb(255,255,255)" paint-order="fill" d="M 235.73342895507812 124.46083068847656 L 247.95223999023438 124.46083068847656 L 247.95223999023438 184 L 235.73342895507812 184 L 235.73342895507812 124.46083068847656" fill-opacity="0.5019607843137255" clip-path="url(#WTDTscCilFnZ)" stroke-opacity="1" stroke-linejoin="bevel" stroke-miterlimit="10" stroke-dasharray=""/><path fill="rgb(255,140,0)" stroke="rgb(255,255,255)" paint-order="fill" d="M 247.95223999023438 136.6036834716797 L 260.1710205078125 136.6036834716797 L 260.1710205078125 184 L 247.95223999023438 184 L 247.95223999023438 136.6036834716797" fill-opacity="0.5019607843137255" clip-path="url(#WTDTscCilFnZ)" stroke-opacity="1" stroke-linejoin="bevel" stroke-miterlimit="10" stroke-dasharray=""/><path fill="rgb(255,140,0)" stroke="rgb(255,255,255)" paint-order="fill" d="M 260.1710205078125 140.1290283203125 L 272.38983154296875 140.1290283203125 L 272.38983154296875 184 L 260.1710205078125 184 L 260.1710205078125 140.1290283203125" fill-opacity="0.5019607843137255" clip-path="url(#WTDTscCilFnZ)" stroke-opacity="1" stroke-linejoin="bevel" stroke-miterlimit="10" stroke-dasharray=""/><path fill="rgb(255,140,0)" stroke="rgb(255,255,255)" paint-order="fill" d="M 272.38983154296875 148.7465362548828 L 284.608642578125 148.7465362548828 L 284.608642578125 184 L 272.38983154296875 184 L 272.38983154296875 148.7465362548828" fill-opacity="0.5019607843137255" clip-path="url(#WTDTscCilFnZ)" stroke-opacity="1" stroke-linejoin="bevel" stroke-miterlimit="10" stroke-dasharray=""/><path fill="rgb(255,140,0)" stroke="rgb(255,255,255)" paint-order="fill" d="M 284.608642578125 154.6221160888672 L 296.8274230957031 154.6221160888672 L 296.8274230957031 184 L 284.608642578125 184 L 284.608642578125 154.6221160888672" fill-opacity="0.5019607843137255" clip-path="url(#WTDTscCilFnZ)" stroke-opacity="1" stroke-linejoin="bevel" stroke-miterlimit="10" stroke-dasharray=""/><path fill="rgb(255,140,0)" stroke="rgb(255,255,255)" paint-order="fill" d="M 296.8274230957031 160.10598754882812 L 309.0462341308594 160.10598754882812 L 309.0462341308594 184 L 296.8274230957031 184 L 296.8274230957031 160.10598754882812" fill-opacity="0.5019607843137255" clip-path="url(#WTDTscCilFnZ)" stroke-opacity="1" stroke-linejoin="bevel" stroke-miterlimit="10" stroke-dasharray=""/><path fill="rgb(255,140,0)" stroke="rgb(255,255,255)" paint-order="fill" d="M 309.0462341308594 161.6728057861328 L 321.2650146484375 161.6728057861328 L 321.2650146484375 184 L 309.0462341308594 184 L 309.0462341308594 161.6728057861328" fill-opacity="0.5019607843137255" clip-path="url(#WTDTscCilFnZ)" stroke-opacity="1" stroke-linejoin="bevel" stroke-miterlimit="10" stroke-dasharray=""/><path fill="rgb(255,140,0)" stroke="rgb(255,255,255)" paint-order="fill" d="M 321.2650146484375 155.40553283691406 L 333.48382568359375 155.40553283691406 L 333.48382568359375 184 L 321.2650146484375 184 L 321.2650146484375 155.40553283691406" fill-opacity="0.5019607843137255" clip-path="url(#WTDTscCilFnZ)" stroke-opacity="1" stroke-linejoin="bevel" stroke-miterlimit="10" stroke-dasharray=""/><path fill="rgb(255,140,0)" stroke="rgb(255,255,255)" paint-order="fill" d="M 333.48382568359375 166.76498413085938 L 345.7026062011719 166.76498413085938 L 345.7026062011719 184 L 333.48382568359375 184 L 333.48382568359375 166.76498413085938" fill-opacity="0.5019607843137255" clip-path="url(#WTDTscCilFnZ)" stroke-opacity="1" stroke-linejoin="bevel" stroke-miterlimit="10" stroke-dasharray=""/><path fill="rgb(255,140,0)" stroke="rgb(255,255,255)" paint-order="fill" d="M 345.7026062011719 169.89862060546875 L 357.9214172363281 169.89862060546875 L 357.9214172363281 184 L 345.7026062011719 184 L 345.7026062011719 169.89862060546875" fill-opacity="0.5019607843137255" clip-path="url(#WTDTscCilFnZ)" stroke-opacity="1" stroke-linejoin="bevel" stroke-miterlimit="10" stroke-dasharray=""/><path fill="rgb(255,140,0)" stroke="rgb(255,255,255)" paint-order="fill" d="M 357.9214172363281 174.20736694335938 L 370.1402282714844 174.20736694335938 L 370.1402282714844 184 L 357.9214172363281 184 L 357.9214172363281 174.20736694335938" fill-opacity="0.5019607843137255" clip-path="url(#WTDTscCilFnZ)" stroke-opacity="1" stroke-linejoin="bevel" stroke-miterlimit="10" stroke-dasharray=""/><path fill="rgb(255,140,0)" stroke="rgb(255,255,255)" paint-order="fill" d="M 370.1402282714844 175.77420043945312 L 382.3590087890625 175.77420043945312 L 382.3590087890625 184 L 370.1402282714844 184 L 370.1402282714844 175.77420043945312" fill-opacity="0.5019607843137255" clip-path="url(#WTDTscCilFnZ)" stroke-opacity="1" stroke-linejoin="bevel" stroke-miterlimit="10" stroke-dasharray=""/><path fill="rgb(255,140,0)" stroke="rgb(255,255,255)" paint-order="fill" d="M 382.3590087890625 176.1658935546875 L 394.57781982421875 176.1658935546875 L 394.57781982421875 184 L 382.3590087890625 184 L 382.3590087890625 176.1658935546875" fill-opacity="0.5019607843137255" clip-path="url(#WTDTscCilFnZ)" stroke-opacity="1" stroke-linejoin="bevel" stroke-miterlimit="10" stroke-dasharray=""/><path fill="rgb(255,140,0)" stroke="rgb(255,255,255)" paint-order="fill" d="M 394.57781982421875 174.99078369140625 L 406.7966003417969 174.99078369140625 L 406.7966003417969 184 L 394.57781982421875 184 L 394.57781982421875 174.99078369140625" fill-opacity="0.5019607843137255" clip-path="url(#WTDTscCilFnZ)" stroke-opacity="1" stroke-linejoin="bevel" stroke-miterlimit="10" stroke-dasharray=""/><path fill="rgb(255,140,0)" stroke="rgb(255,255,255)" paint-order="fill" d="M 406.7966003417969 177.7327117919922 L 419.0154113769531 177.7327117919922 L 419.0154113769531 184 L 406.7966003417969 184 L 406.7966003417969 177.7327117919922" fill-opacity="0.5019607843137255" clip-path="url(#WTDTscCilFnZ)" stroke-opacity="1" stroke-linejoin="bevel" stroke-miterlimit="10" stroke-dasharray=""/><path fill="rgb(255,140,0)" stroke="rgb(255,255,255)" paint-order="fill" d="M 419.0154113769531 179.6912384033203 L 431.23419189453125 179.6912384033203 L 431.23419189453125 184 L 419.0154113769531 184 L 419.0154113769531 179.6912384033203" fill-opacity="0.5019607843137255" clip-path="url(#WTDTscCilFnZ)" stroke-opacity="1" stroke-linejoin="bevel" stroke-miterlimit="10" stroke-dasharray=""/><path fill="rgb(255,140,0)" stroke="rgb(255,255,255)" paint-order="fill" d="M 431.23419189453125 176.94931030273438 L 443.4530029296875 176.94931030273438 L 443.4530029296875 184 L 431.23419189453125 184 L 431.23419189453125 176.94931030273438" fill-opacity="0.5019607843137255" clip-path="url(#WTDTscCilFnZ)" stroke-opacity="1" stroke-linejoin="bevel" stroke-miterlimit="10" stroke-dasharray=""/><path fill="rgb(255,140,0)" stroke="rgb(255,255,255)" paint-order="fill" d="M 443.4530029296875 178.9078369140625 L 455.67181396484375 178.9078369140625 L 455.67181396484375 184 L 443.4530029296875 184 L 443.4530029296875 178.9078369140625" fill-opacity="0.5019607843137255" clip-path="url(#WTDTscCilFnZ)" stroke-opacity="1" stroke-linejoin="bevel" stroke-miterlimit="10" stroke-dasharray=""/><path fill="rgb(255,140,0)" stroke="rgb(255,255,255)" paint-order="fill" d="M 455.67181396484375 181.25807189941406 L 467.8905944824219 181.25807189941406 L 467.8905944824219 184 L 455.67181396484375 184 L 455.67181396484375 181.25807189941406" fill-opacity="0.5019607843137255" clip-path="url(#WTDTscCilFnZ)" stroke-opacity="1" stroke-linejoin="bevel" stroke-miterlimit="10" stroke-dasharray=""/><path fill="rgb(255,140,0)" stroke="rgb(255,255,255)" paint-order="fill" d="M 467.8905944824219 180.4746551513672 L 480.1094055175781 180.4746551513672 L 480.1094055175781 184 L 467.8905944824219 184 L 467.8905944824219 180.4746551513672" fill-opacity="0.5019607843137255" clip-path="url(#WTDTscCilFnZ)" stroke-opacity="1" stroke-linejoin="bevel" stroke-miterlimit="10" stroke-dasharray=""/><path fill="rgb(255,140,0)" stroke="rgb(255,255,255)" paint-order="fill" d="M 480.1094055175781 181.64976501464844 L 492.32818603515625 181.64976501464844 L 492.32818603515625 184 L 480.1094055175781 184 L 480.1094055175781 181.64976501464844" fill-opacity="0.5019607843137255" clip-path="url(#WTDTscCilFnZ)" stroke-opacity="1" stroke-linejoin="bevel" stroke-miterlimit="10" stroke-dasharray=""/><path fill="rgb(255,140,0)" stroke="rgb(255,255,255)" paint-order="fill" d="M 492.32818603515625 181.25807189941406 L 504.5469970703125 181.25807189941406 L 504.5469970703125 184 L 492.32818603515625 184 L 492.32818603515625 181.25807189941406" fill-opacity="0.5019607843137255" clip-path="url(#WTDTscCilFnZ)" stroke-opacity="1" stroke-linejoin="bevel" stroke-miterlimit="10" stroke-dasharray=""/><path fill="rgb(255,140,0)" stroke="rgb(255,255,255)" paint-order="fill" d="M 504.5469970703125 181.25807189941406 L 516.7658081054688 181.25807189941406 L 516.7658081054688 184 L 504.5469970703125 184 L 504.5469970703125 181.25807189941406" fill-opacity="0.5019607843137255" clip-path="url(#WTDTscCilFnZ)" stroke-opacity="1" stroke-linejoin="bevel" stroke-miterlimit="10" stroke-dasharray=""/><path fill="rgb(255,140,0)" stroke="rgb(255,255,255)" paint-order="fill" d="M 516.7658081054688 183.21658325195312 L 528.984619140625 183.21658325195312 L 528.984619140625 184 L 516.7658081054688 184 L 516.7658081054688 183.21658325195312" fill-opacity="0.5019607843137255" clip-path="url(#WTDTscCilFnZ)" stroke-opacity="1" stroke-linejoin="bevel" stroke-miterlimit="10" stroke-dasharray=""/><path fill="rgb(255,140,0)" stroke="rgb(255,255,255)" paint-order="fill" d="M 528.984619140625 182.82489013671875 L 541.203369140625 182.82489013671875 L 541.203369140625 184 L 528.984619140625 184 L 528.984619140625 182.82489013671875" fill-opacity="0.5019607843137255" clip-path="url(#WTDTscCilFnZ)" stroke-opacity="1" stroke-linejoin="bevel" stroke-miterlimit="10" stroke-dasharray=""/><path fill="rgb(255,140,0)" stroke="rgb(255,255,255)" paint-order="fill" d="M 541.203369140625 179.29954528808594 L 553.4221801757812 179.29954528808594 L 553.4221801757812 184 L 541.203369140625 184 L 541.203369140625 179.29954528808594" fill-opacity="0.5019607843137255" clip-path="url(#WTDTscCilFnZ)" stroke-opacity="1" stroke-linejoin="bevel" stroke-miterlimit="10" stroke-dasharray=""/><path fill="rgb(255,140,0)" stroke="rgb(255,255,255)" paint-order="fill" d="M 553.4221801757812 182.4331817626953 L 565.6409912109375 182.4331817626953 L 565.6409912109375 184 L 553.4221801757812 184 L 553.4221801757812 182.4331817626953" fill-opacity="0.5019607843137255" clip-path="url(#WTDTscCilFnZ)" stroke-opacity="1" stroke-linejoin="bevel" stroke-miterlimit="10" stroke-dasharray=""/><path fill="rgb(255,140,0)" stroke="rgb(255,255,255)" paint-order="fill" d="M 565.6409912109375 181.64976501464844 L 577.8598022460938 181.64976501464844 L 577.8598022460938 184 L 565.6409912109375 184 L 565.6409912109375 181.64976501464844" fill-opacity="0.5019607843137255" clip-path="url(#WTDTscCilFnZ)" stroke-opacity="1" stroke-linejoin="bevel" stroke-miterlimit="10" stroke-dasharray=""/><path fill="rgb(255,140,0)" stroke="rgb(255,255,255)" paint-order="fill" d="M 577.8598022460938 180.86636352539062 L 590.0785522460938 180.86636352539062 L 590.0785522460938 184 L 577.8598022460938 184 L 577.8598022460938 180.86636352539062" fill-opacity="0.5019607843137255" clip-path="url(#WTDTscCilFnZ)" stroke-opacity="1" stroke-linejoin="bevel" stroke-miterlimit="10" stroke-dasharray=""/><path fill="rgb(255,140,0)" stroke="rgb(255,255,255)" paint-order="fill" d="M 590.0785522460938 183.21658325195312 L 602.29736328125 183.21658325195312 L 602.29736328125 184 L 590.0785522460938 184 L 590.0785522460938 183.21658325195312" fill-opacity="0.5019607843137255" clip-path="url(#WTDTscCilFnZ)" stroke-opacity="1" stroke-linejoin="bevel" stroke-miterlimit="10" stroke-dasharray=""/><path fill="rgb(255,140,0)" stroke="rgb(255,255,255)" paint-order="fill" d="M 602.29736328125 182.4331817626953 L 614.5161743164062 182.4331817626953 L 614.5161743164062 184 L 602.29736328125 184 L 602.29736328125 182.4331817626953" fill-opacity="0.5019607843137255" clip-path="url(#WTDTscCilFnZ)" stroke-opacity="1" stroke-linejoin="bevel" stroke-miterlimit="10" stroke-dasharray=""/><path fill="rgb(255,140,0)" stroke="rgb(255,255,255)" paint-order="fill" d="M 614.5161743164062 181.64976501464844 L 626.7349853515625 181.64976501464844 L 626.7349853515625 184 L 614.5161743164062 184 L 614.5161743164062 181.64976501464844" fill-opacity="0.5019607843137255" clip-path="url(#WTDTscCilFnZ)" stroke-opacity="1" stroke-linejoin="bevel" stroke-miterlimit="10" stroke-dasharray=""/><path fill="rgb(255,140,0)" stroke="rgb(255,255,255)" paint-order="fill" d="M 626.7349853515625 183.60829162597656 L 638.9537963867188 183.60829162597656 L 638.9537963867188 184 L 626.7349853515625 184 L 626.7349853515625 183.60829162597656" fill-opacity="0.5019607843137255" clip-path="url(#WTDTscCilFnZ)" stroke-opacity="1" stroke-linejoin="bevel" stroke-miterlimit="10" stroke-dasharray=""/><path fill="rgb(255,140,0)" stroke="rgb(255,255,255)" paint-order="fill" d="M 638.9537963867188 183.60829162597656 L 651.1725463867188 183.60829162597656 L 651.1725463867188 184 L 638.9537963867188 184 L 638.9537963867188 183.60829162597656" fill-opacity="0.5019607843137255" clip-path="url(#WTDTscCilFnZ)" stroke-opacity="1" stroke-linejoin="bevel" stroke-miterlimit="10" stroke-dasharray=""/><path fill="rgb(255,140,0)" stroke="rgb(255,255,255)" paint-order="fill" d="M 651.1725463867188 182.82489013671875 L 663.391357421875 182.82489013671875 L 663.391357421875 184 L 651.1725463867188 184 L 651.1725463867188 182.82489013671875" fill-opacity="0.5019607843137255" clip-path="url(#WTDTscCilFnZ)" stroke-opacity="1" stroke-linejoin="bevel" stroke-miterlimit="10" stroke-dasharray=""/><path fill="rgb(255,140,0)" stroke="rgb(255,255,255)" paint-order="fill" d="M 663.391357421875 184 L 675.6101684570312 184 L 675.6101684570312 184 L 663.391357421875 184 L 663.391357421875 184" fill-opacity="0.5019607843137255" clip-path="url(#WTDTscCilFnZ)" stroke-opacity="1" stroke-linejoin="bevel" stroke-miterlimit="10" stroke-dasharray=""/><path fill="rgb(255,140,0)" stroke="rgb(255,255,255)" paint-order="fill" d="M 675.6101684570312 183.60829162597656 L 687.8289794921875 183.60829162597656 L 687.8289794921875 184 L 675.6101684570312 184 L 675.6101684570312 183.60829162597656" fill-opacity="0.5019607843137255" clip-path="url(#WTDTscCilFnZ)" stroke-opacity="1" stroke-linejoin="bevel" stroke-miterlimit="10" stroke-dasharray=""/><path fill="rgb(255,140,0)" stroke="rgb(255,255,255)" paint-order="fill" d="M 687.8289794921875 183.21658325195312 L 700.0477905273438 183.21658325195312 L 700.0477905273438 184 L 687.8289794921875 184 L 687.8289794921875 183.21658325195312" fill-opacity="0.5019607843137255" clip-path="url(#WTDTscCilFnZ)" stroke-opacity="1" stroke-linejoin="bevel" stroke-miterlimit="10" stroke-dasharray=""/><path fill="rgb(255,140,0)" stroke="rgb(255,255,255)" paint-order="fill" d="M 700.0477905273438 183.21658325195312 L 712.2665405273438 183.21658325195312 L 712.2665405273438 184 L 700.0477905273438 184 L 700.0477905273438 183.21658325195312" fill-opacity="0.5019607843137255" clip-path="url(#WTDTscCilFnZ)" stroke-opacity="1" stroke-linejoin="bevel" stroke-miterlimit="10" stroke-dasharray=""/><path fill="rgb(255,140,0)" stroke="rgb(255,255,255)" paint-order="fill" d="M 712.2665405273438 184 L 724.4853515625 184 L 724.4853515625 184 L 712.2665405273438 184 L 712.2665405273438 184" fill-opacity="0.5019607843137255" clip-path="url(#WTDTscCilFnZ)" stroke-opacity="1" stroke-linejoin="bevel" stroke-miterlimit="10" stroke-dasharray=""/><path fill="rgb(255,140,0)" stroke="rgb(255,255,255)" paint-order="fill" d="M 724.4853515625 184 L 736.7041625976562 184 L 736.7041625976562 184 L 724.4853515625 184 L 724.4853515625 184" fill-opacity="0.5019607843137255" clip-path="url(#WTDTscCilFnZ)" stroke-opacity="1" stroke-linejoin="bevel" stroke-miterlimit="10" stroke-dasharray=""/><path fill="rgb(255,140,0)" stroke="rgb(255,255,255)" paint-order="fill" d="M 736.7041625976562 183.21658325195312 L 748.9229736328125 183.21658325195312 L 748.9229736328125 184 L 736.7041625976562 184 L 736.7041625976562 183.21658325195312" fill-opacity="0.5019607843137255" clip-path="url(#WTDTscCilFnZ)" stroke-opacity="1" stroke-linejoin="bevel" stroke-miterlimit="10" stroke-dasharray=""/><path fill="rgb(255,140,0)" stroke="rgb(255,255,255)" paint-order="fill" d="M 748.9229736328125 182.04147338867188 L 761.1417846679688 182.04147338867188 L 761.1417846679688 184 L 748.9229736328125 184 L 748.9229736328125 182.04147338867188" fill-opacity="0.5019607843137255" clip-path="url(#WTDTscCilFnZ)" stroke-opacity="1" stroke-linejoin="bevel" stroke-miterlimit="10" stroke-dasharray=""/><path fill="rgb(255,140,0)" stroke="rgb(255,255,255)" paint-order="fill" d="M 761.1417846679688 183.21658325195312 L 773.3605346679688 183.21658325195312 L 773.3605346679688 184 L 761.1417846679688 184 L 761.1417846679688 183.21658325195312" fill-opacity="0.5019607843137255" clip-path="url(#WTDTscCilFnZ)" stroke-opacity="1" stroke-linejoin="bevel" stroke-miterlimit="10" stroke-dasharray=""/><path fill="rgb(255,140,0)" stroke="rgb(255,255,255)" paint-order="fill" d="M 773.3605346679688 184 L 785.579345703125 184 L 785.579345703125 184 L 773.3605346679688 184 L 773.3605346679688 184" fill-opacity="0.5019607843137255" clip-path="url(#WTDTscCilFnZ)" stroke-opacity="1" stroke-linejoin="bevel" stroke-miterlimit="10" stroke-dasharray=""/><path fill="rgb(255,140,0)" stroke="rgb(255,255,255)" paint-order="fill" d="M 785.579345703125 183.21658325195312 L 797.7981567382812 183.21658325195312 L 797.7981567382812 184 L 785.579345703125 184 L 785.579345703125 183.21658325195312" fill-opacity="0.5019607843137255" clip-path="url(#WTDTscCilFnZ)" stroke-opacity="1" stroke-linejoin="bevel" stroke-miterlimit="10" stroke-dasharray=""/><path fill="rgb(255,140,0)" stroke="rgb(255,255,255)" paint-order="fill" d="M 797.7981567382812 183.60829162597656 L 810.0169677734375 183.60829162597656 L 810.0169677734375 184 L 797.7981567382812 184 L 797.7981567382812 183.60829162597656" fill-opacity="0.5019607843137255" clip-path="url(#WTDTscCilFnZ)" stroke-opacity="1" stroke-linejoin="bevel" stroke-miterlimit="10" stroke-dasharray=""/><path fill="rgb(255,140,0)" stroke="rgb(255,255,255)" paint-order="fill" d="M 810.0169677734375 183.60829162597656 L 822.2357177734375 183.60829162597656 L 822.2357177734375 184 L 810.0169677734375 184 L 810.0169677734375 183.60829162597656" fill-opacity="0.5019607843137255" clip-path="url(#WTDTscCilFnZ)" stroke-opacity="1" stroke-linejoin="bevel" stroke-miterlimit="10" stroke-dasharray=""/><path fill="rgb(255,140,0)" stroke="rgb(255,255,255)" paint-order="fill" d="M 822.2357177734375 179.29954528808594 L 834.4545288085938 179.29954528808594 L 834.4545288085938 184 L 822.2357177734375 184 L 822.2357177734375 179.29954528808594" fill-opacity="0.5019607843137255" clip-path="url(#WTDTscCilFnZ)" stroke-opacity="1" stroke-linejoin="bevel" stroke-miterlimit="10" stroke-dasharray=""/><path fill="none" stroke="rgb(0,0,0)" paint-order="fill" d="M 77.5 192.5 L 870.5 192.5" stroke-opacity="1" stroke-linejoin="bevel" stroke-miterlimit="10" stroke-dasharray=""/><path fill="none" stroke="rgb(0,0,0)" paint-order="fill" d="M 113.5 198.5 L 113.5 190.5 M 257.5 198.5 L 257.5 190.5 M 401.5 198.5 L 401.5 190.5 M 546.5 198.5 L 546.5 190.5 M 690.5 198.5 L 690.5 190.5 M 834.5 198.5 L 834.5 190.5" stroke-opacity="1" stroke-linejoin="bevel" stroke-miterlimit="10" stroke-dasharray=""/><path fill="none" stroke="rgb(0,0,0)" paint-order="fill" d="M 84.5 196.5 L 84.5 192.5 M 113.5 196.5 L 113.5 192.5 M 142.5 196.5 L 142.5 192.5 M 171.5 196.5 L 171.5 192.5 M 200.5 196.5 L 200.5 192.5 M 228.5 196.5 L 228.5 192.5 M 257.5 196.5 L 257.5 192.5 M 286.5 196.5 L 286.5 192.5 M 315.5 196.5 L 315.5 192.5 M 344.5 196.5 L 344.5 192.5 M 373.5 196.5 L 373.5 192.5 M 401.5 196.5 L 401.5 192.5 M 430.5 196.5 L 430.5 192.5 M 459.5 196.5 L 459.5 192.5 M 488.5 196.5 L 488.5 192.5 M 517.5 196.5 L 517.5 192.5 M 546.5 196.5 L 546.5 192.5 M 574.5 196.5 L 574.5 192.5 M 603.5 196.5 L 603.5 192.5 M 632.5 196.5 L 632.5 192.5 M 661.5 196.5 L 661.5 192.5 M 690.5 196.5 L 690.5 192.5 M 719.5 196.5 L 719.5 192.5 M 747.5 196.5 L 747.5 192.5 M 776.5 196.5 L 776.5 192.5 M 805.5 196.5 L 805.5 192.5 M 834.5 196.5 L 834.5 192.5 M 863.5 196.5 L 863.5 192.5" stroke-opacity="1" stroke-linejoin="bevel" stroke-miterlimit="10" stroke-dasharray=""/><text fill="rgb(68,68,68)" stroke="none" font-family="arial" font-size="20px" font-style="normal" font-weight="normal" text-decoration="normal" x="107.54545593261719" y="217.31640625" text-anchor="start" dominant-baseline="alphabetic" transform="matrix(1, 0, 0, 1, 0.5, 0.5)" fill-opacity="1">0</text><text fill="rgb(68,68,68)" stroke="none" font-family="arial" font-size="20px" font-style="normal" font-weight="normal" text-decoration="normal" x="243.22726440429688" y="217.31640625" text-anchor="start" dominant-baseline="alphabetic" transform="matrix(1, 0, 0, 1, 0.5, 0.5)" fill-opacity="1">0.2</text><text fill="rgb(68,68,68)" stroke="none" font-family="arial" font-size="20px" font-style="normal" font-weight="normal" text-decoration="normal" x="387.4090881347656" y="217.31640625" text-anchor="start" dominant-baseline="alphabetic" transform="matrix(1, 0, 0, 1, 0.5, 0.5)" fill-opacity="1">0.4</text><text fill="rgb(68,68,68)" stroke="none" font-family="arial" font-size="20px" font-style="normal" font-weight="normal" text-decoration="normal" x="531.5908813476562" y="217.31640625" text-anchor="start" dominant-baseline="alphabetic" transform="matrix(1, 0, 0, 1, 0.5, 0.5)" fill-opacity="1">0.6</text><text fill="rgb(68,68,68)" stroke="none" font-family="arial" font-size="20px" font-style="normal" font-weight="normal" text-decoration="normal" x="675.772705078125" y="217.31640625" text-anchor="start" dominant-baseline="alphabetic" transform="matrix(1, 0, 0, 1, 0.5, 0.5)" fill-opacity="1">0.8</text><text fill="rgb(68,68,68)" stroke="none" font-family="arial" font-size="20px" font-style="normal" font-weight="normal" text-decoration="normal" x="828.4545288085938" y="217.31640625" text-anchor="start" dominant-baseline="alphabetic" transform="matrix(1, 0, 0, 1, 0.5, 0.5)" fill-opacity="1">1</text><text fill="rgb(68,68,68)" stroke="none" font-family="arial" font-size="20px" font-style="normal" font-weight="normal" text-decoration="normal" x="336" y="243.24609375" text-anchor="start" dominant-baseline="alphabetic" transform="matrix(1, 0, 0, 1, 0.5, 0.5)" fill-opacity="1">Log 10 Fold Change (Post/Pre)</text><path fill="none" stroke="rgb(0,0,0)" paint-order="fill" d="M 77.5 192.5 L 77.5 5.5" stroke-opacity="1" stroke-linejoin="bevel" stroke-miterlimit="10" stroke-dasharray=""/><path fill="none" stroke="rgb(0,0,0)" paint-order="fill" d="M 71.5 144.5 L 79.5 144.5 M 71.5 105.5 L 79.5 105.5 M 71.5 66.5 L 79.5 66.5" stroke-opacity="1" stroke-linejoin="bevel" stroke-miterlimit="10" stroke-dasharray=""/><path fill="none" stroke="rgb(0,0,0)" paint-order="fill" d="" stroke-opacity="1" stroke-linejoin="bevel" stroke-miterlimit="10" stroke-dasharray=""/><text fill="rgb(68,68,68)" stroke="none" font-family="arial" font-size="20px" font-style="normal" font-weight="normal" text-decoration="normal" x="33" y="151.48770141601562" text-anchor="start" dominant-baseline="alphabetic" transform="matrix(1, 0, 0, 1, 0.5, 0.5)" fill-opacity="1">100</text><text fill="rgb(68,68,68)" stroke="none" font-family="arial" font-size="20px" font-style="normal" font-weight="normal" text-decoration="normal" x="33" y="112.31719207763672" text-anchor="start" dominant-baseline="alphabetic" transform="matrix(1, 0, 0, 1, 0.5, 0.5)" fill-opacity="1">200</text><text fill="rgb(68,68,68)" stroke="none" font-family="arial" font-size="20px" font-style="normal" font-weight="normal" text-decoration="normal" x="33" y="73.14668273925781" text-anchor="start" dominant-baseline="alphabetic" transform="matrix(1, 0, 0, 1, 0.5, 0.5)" fill-opacity="1">300</text><text fill="rgb(68,68,68)" stroke="none" font-family="arial" font-size="20px" font-style="normal" font-weight="normal" text-decoration="normal" x="-0.5" y="94.291015625" text-anchor="start" dominant-baseline="alphabetic" transform="matrix(6.123233995736766e-17, -1, 1, 6.123233995736766e-17, -73, 124)" fill-opacity="1">Count</text><path fill="rgb(255,255,255)" stroke="rgb(229,229,229)" paint-order="fill" d="M 735.4833297729492 15.5 L 860.5 15.5 L 860.5 97.53646647135417 L 735.4833297729492 97.53646647135417 L 735.4833297729492 15.5" fill-opacity="0.9490196078431372" clip-path="url(#uaWCGguOUgep)" stroke-opacity="0.5019607843137255" stroke-linejoin="bevel" stroke-miterlimit="10" stroke-dasharray=""/><g clip-path="url(#uaWCGguOUgep)"><text fill="rgb(68,68,68)" stroke="none" font-family="helvetica" font-size="20pt" font-style="normal" font-weight="normal" text-decoration="normal" x="769.9833297729492" y="39.759116617838544" text-anchor="start" dominant-baseline="central" transform="matrix(1, 0, 0, 1, 0.5, 0.5)" fill-opacity="1">Lysate</text></g><path fill="rgb(0,139,139)" stroke="rgb(255,255,255)" paint-order="fill" d="M 747.4833297729492 27.5 L 763.4833297729492 27.5 L 763.4833297729492 43.5 L 747.4833297729492 43.5 L 747.4833297729492 27.5" fill-opacity="0.5019607843137255" clip-path="url(#uaWCGguOUgep)" stroke-opacity="1" stroke-linejoin="bevel" stroke-miterlimit="10" stroke-dasharray=""/><g clip-path="url(#uaWCGguOUgep)"><text fill="rgb(68,68,68)" stroke="none" font-family="helvetica" font-size="20pt" font-style="normal" font-weight="normal" text-decoration="normal" x="769.9833297729492" y="72.27734985351563" text-anchor="start" dominant-baseline="central" transform="matrix(1, 0, 0, 1, 0.5, 0.5)" fill-opacity="1">MTC</text></g><path fill="rgb(255,140,0)" stroke="rgb(255,255,255)" paint-order="fill" d="M 747.4833297729492 60.01823323567709 L 763.4833297729492 60.01823323567709 L 763.4833297729492 76.01823323567709 L 747.4833297729492 76.01823323567709 L 747.4833297729492 60.01823323567709" fill-opacity="0.5019607843137255" clip-path="url(#uaWCGguOUgep)" stroke-opacity="1" stroke-linejoin="bevel" stroke-miterlimit="10" stroke-dasharray=""/></svg>