<svg version="1.1" xmlns="http://www.w3.org/2000/svg" width="300" height="220"><defs><clipPath id="IFVVdBwBqUkn"><path fill="none" stroke="none" d="M 5.5 5.5 L 270.5 5.5 L 270.5 158.5 L 5.5 158.5 L 5.5 5.5"/></clipPath><clipPath id="cDKfPaGTDBHQ"><path fill="none" stroke="none" d="M 5.5 5.5 L 270.5 5.5 L 270.5 158.5 L 5.5 158.5 L 5.5 5.5"/></clipPath><clipPath id="UGtITPqFgblt"><path fill="none" stroke="none" d="M 5.5 5.5 L 270.5 5.5 L 270.5 158.5 L 5.5 158.5 L 5.5 5.5"/></clipPath><clipPath id="dhKZercoEprw"><path fill="none" stroke="none" d="M 5.5 5.5 L 270.5 5.5 L 270.5 158.5 L 5.5 158.5 L 5.5 5.5"/></clipPath></defs><path fill="rgb(255,255,255)" stroke="none" paint-order="stroke" d="M 0.5 0.5 L 300.5 0.5 L 300.5 220.5 L 0.5 220.5 L 0.5 0.5" fill-opacity="1"/><rect fill="#FFFFFF" stroke="none" x="5" y="5" width="265" height="153" transform="matrix(1, 0, 0, 1, 0.5, 0.5)"/><path fill="rgb(70,130,180)" stroke="rgb(255,255,255)" paint-order="fill" d="M 17.545454025268555 151.5454559326172 L 44.31312942504883 151.5454559326172 L 44.31312942504883 151.5454559326172 L 17.545454025268555 151.5454559326172 L 17.545454025268555 151.5454559326172" fill-opacity="1" clip-path="url(#UGtITPqFgblt)" stroke-opacity="1" stroke-linejoin="bevel" stroke-miterlimit="10" stroke-dasharray=""/><path fill="rgb(70,130,180)" stroke="rgb(255,255,255)" paint-order="fill" d="M 44.31312942504883 151.5454559326172 L 71.080810546875 151.5454559326172 L 71.080810546875 151.5454559326172 L 44.31312942504883 151.5454559326172 L 44.31312942504883 151.5454559326172" fill-opacity="1" clip-path="url(#UGtITPqFgblt)" stroke-opacity="1" stroke-linejoin="bevel" stroke-miterlimit="10" stroke-dasharray=""/><path fill="rgb(70,130,180)" stroke="rgb(255,255,255)" paint-order="fill" d="M 71.080810546875 151.34628295898438 L 97.8484878540039 151.34628295898438 L 97.8484878540039 151.5454559326172 L 71.080810546875 151.5454559326172 L 71.080810546875 151.34628295898438" fill-opacity="1" clip-path="url(#UGtITPqFgblt)" stroke-opacity="1" stroke-linejoin="bevel" stroke-miterlimit="10" stroke-dasharray=""/><path fill="rgb(70,130,180)" stroke="rgb(255,255,255)" paint-order="fill" d="M 97.8484878540039 150.0848388671875 L 124.61616516113281 150.0848388671875 L 124.61616516113281 151.5454559326172 L 97.8484878540039 151.5454559326172 L 97.8484878540039 150.0848388671875" fill-opacity="1" clip-path="url(#UGtITPqFgblt)" stroke-opacity="1" stroke-linejoin="bevel" stroke-miterlimit="10" stroke-dasharray=""/><path fill="rgb(70,130,180)" stroke="rgb(255,255,255)" paint-order="fill" d="M 124.61616516113281 12.454545021057129 L 151.3838348388672 12.454545021057129 L 151.3838348388672 151.5454559326172 L 124.61616516113281 151.5454559326172 L 124.61616516113281 12.454545021057129" fill-opacity="1" clip-path="url(#UGtITPqFgblt)" stroke-opacity="1" stroke-linejoin="bevel" stroke-miterlimit="10" stroke-dasharray=""/><path fill="rgb(70,130,180)" stroke="rgb(255,255,255)" paint-order="fill" d="M 151.3838348388672 139.9268798828125 L 178.15151977539062 139.9268798828125 L 178.15151977539062 151.5454559326172 L 151.3838348388672 151.5454559326172 L 151.3838348388672 139.9268798828125" fill-opacity="1" clip-path="url(#UGtITPqFgblt)" stroke-opacity="1" stroke-linejoin="bevel" stroke-miterlimit="10" stroke-dasharray=""/><path fill="rgb(70,130,180)" stroke="rgb(255,255,255)" paint-order="fill" d="M 178.15151977539062 151.08071899414062 L 204.919189453125 151.08071899414062 L 204.919189453125 151.5454559326172 L 178.15151977539062 151.5454559326172 L 178.15151977539062 151.08071899414062" fill-opacity="1" clip-path="url(#UGtITPqFgblt)" stroke-opacity="1" stroke-linejoin="bevel" stroke-miterlimit="10" stroke-dasharray=""/><path fill="rgb(70,130,180)" stroke="rgb(255,255,255)" paint-order="fill" d="M 204.919189453125 151.5454559326172 L 231.68687438964844 151.5454559326172 L 231.68687438964844 151.5454559326172 L 204.919189453125 151.5454559326172 L 204.919189453125 151.5454559326172" fill-opacity="1" clip-path="url(#UGtITPqFgblt)" stroke-opacity="1" stroke-linejoin="bevel" stroke-miterlimit="10" stroke-dasharray=""/><path fill="rgb(70,130,180)" stroke="rgb(255,255,255)" paint-order="fill" d="M 231.68687438964844 151.5454559326172 L 258.4545593261719 151.5454559326172 L 258.4545593261719 151.5454559326172 L 231.68687438964844 151.5454559326172 L 231.68687438964844 151.5454559326172" fill-opacity="1" clip-path="url(#UGtITPqFgblt)" stroke-opacity="1" stroke-linejoin="bevel" stroke-miterlimit="10" stroke-dasharray=""/><path fill="none" stroke="rgb(0,0,0)" paint-order="fill" d="M 5.5 158.5 L 270.5 158.5" stroke-opacity="1" stroke-linejoin="bevel" stroke-miterlimit="10" stroke-dasharray=""/><path fill="none" stroke="rgb(0,0,0)" paint-order="fill" d="M 17.5 164.5 L 17.5 156.5 M 77.5 164.5 L 77.5 156.5 M 138.5 164.5 L 138.5 156.5 M 198.5 164.5 L 198.5 156.5 M 258.5 164.5 L 258.5 156.5" stroke-opacity="1" stroke-linejoin="bevel" stroke-miterlimit="10" stroke-dasharray=""/><path fill="none" stroke="rgb(0,0,0)" paint-order="fill" d="" stroke-opacity="1" stroke-linejoin="bevel" stroke-miterlimit="10" stroke-dasharray=""/><text fill="rgb(0,0,0)" stroke="none" font-family="arial" font-size="22px" font-style="normal" font-weight="normal" text-decoration="normal" x="4.545454025268555" y="184.748046875" text-anchor="start" dominant-baseline="alphabetic" transform="matrix(1, 0, 0, 1, 0.5, 0.5)" fill-opacity="1">−1</text><text fill="rgb(0,0,0)" stroke="none" font-family="arial" font-size="22px" font-style="normal" font-weight="normal" text-decoration="normal" x="55.772727966308594" y="184.748046875" text-anchor="start" dominant-baseline="alphabetic" transform="matrix(1, 0, 0, 1, 0.5, 0.5)" fill-opacity="1">−0.5</text><text fill="rgb(0,0,0)" stroke="none" font-family="arial" font-size="22px" font-style="normal" font-weight="normal" text-decoration="normal" x="131.5" y="184.748046875" text-anchor="start" dominant-baseline="alphabetic" transform="matrix(1, 0, 0, 1, 0.5, 0.5)" fill-opacity="1">0</text><text fill="rgb(0,0,0)" stroke="none" font-family="arial" font-size="22px" font-style="normal" font-weight="normal" text-decoration="normal" x="182.72727966308594" y="184.748046875" text-anchor="start" dominant-baseline="alphabetic" transform="matrix(1, 0, 0, 1, 0.5, 0.5)" fill-opacity="1">0.5</text><text fill="rgb(0,0,0)" stroke="none" font-family="arial" font-size="22px" font-style="normal" font-weight="normal" text-decoration="normal" x="251.95455932617188" y="184.748046875" text-anchor="start" dominant-baseline="alphabetic" transform="matrix(1, 0, 0, 1, 0.5, 0.5)" fill-opacity="1">1</text><text fill="rgb(0,0,0)" stroke="none" font-family="arial" font-size="22px" font-style="normal" font-weight="normal" text-decoration="normal" x="83" y="212.470703125" text-anchor="start" dominant-baseline="alphabetic" transform="matrix(1, 0, 0, 1, 0.5, 0.5)" fill-opacity="1">log-10 ratio</text></svg>