<svg version="1.1" xmlns="http://www.w3.org/2000/svg" width="600" height="200"><defs><clipPath id="KpPbMLhiBcmz"><path fill="none" stroke="none" d="M 77.5 5.5 L 570.5 5.5 L 570.5 142.5 L 77.5 142.5 L 77.5 5.5"/></clipPath><clipPath id="dkifUvWILHMQ"><path fill="none" stroke="none" d="M 77.5 5.5 L 570.5 5.5 L 570.5 142.5 L 77.5 142.5 L 77.5 5.5"/></clipPath><clipPath id="XdTBhLWeyxKm"><path fill="none" stroke="none" d="M 77.5 5.5 L 570.5 5.5 L 570.5 142.5 L 77.5 142.5 L 77.5 5.5"/></clipPath><clipPath id="PCWQolXaQGTe"><path fill="none" stroke="none" d="M 77.5 5.5 L 570.5 5.5 L 570.5 142.5 L 77.5 142.5 L 77.5 5.5"/></clipPath></defs><path fill="rgb(255,255,255)" stroke="none" paint-order="stroke" d="M 0.5 0.5 L 600.5 0.5 L 600.5 200.5 L 0.5 200.5 L 0.5 0.5" fill-opacity="1"/><rect fill="#FFFFFF" stroke="none" x="77" y="5" width="493" height="137" transform="matrix(1, 0, 0, 1, 0.5, 0.5)"/><path fill="rgb(245,245,245)" stroke="none" paint-order="stroke" d="M 77.5 5.5 L 570.5 5.5 L 570.5 142.5 L 77.5 142.5 L 77.5 5.5" fill-opacity="1"/><path fill="none" stroke="rgb(229,229,229)" paint-order="fill" d="M 77.5 5.5 L 570.5 5.5 L 570.5 142.5 L 77.5 142.5 L 77.5 5.5" stroke-opacity="1" stroke-linejoin="bevel" stroke-miterlimit="10" stroke-dasharray=""/><path fill="none" stroke="rgb(255,255,255)" paint-order="fill" d="M 144.5 142.5 L 144.5 5.5 M 234.5 142.5 L 234.5 5.5 M 324.5 142.5 L 324.5 5.5 M 413.5 142.5 L 413.5 5.5 M 503.5 142.5 L 503.5 5.5" stroke-opacity="1" stroke-linejoin="bevel" stroke-miterlimit="10" stroke-width="4" stroke-dasharray="" clip-path="url(#KpPbMLhiBcmz)"/><path fill="none" stroke="rgb(255,255,255)" paint-order="fill" d="M 77.5 114.5 L 570.5 114.5 M 77.5 70.5 L 570.5 70.5 M 77.5 27.5 L 570.5 27.5" stroke-opacity="1" stroke-linejoin="bevel" stroke-miterlimit="10" stroke-width="4" stroke-dasharray="" clip-path="url(#dkifUvWILHMQ)"/><path fill="rgb(70,130,180)" stroke="rgb(255,255,255)" paint-order="fill" d="M 99.90908813476562 135.83724975585938 L 115.36363983154297 135.83724975585938 L 115.36363983154297 136.27272033691406 L 99.90908813476562 136.27272033691406 L 99.90908813476562 135.83724975585938" fill-opacity="1" clip-path="url(#XdTBhLWeyxKm)" stroke-opacity="1" stroke-linejoin="bevel" stroke-miterlimit="10" stroke-dasharray=""/><path fill="rgb(70,130,180)" stroke="rgb(255,255,255)" paint-order="fill" d="M 115.36363983154297 132.7889404296875 L 130.81817626953125 132.7889404296875 L 130.81817626953125 136.27272033691406 L 115.36363983154297 136.27272033691406 L 115.36363983154297 132.7889404296875" fill-opacity="1" clip-path="url(#XdTBhLWeyxKm)" stroke-opacity="1" stroke-linejoin="bevel" stroke-miterlimit="10" stroke-dasharray=""/><path fill="rgb(70,130,180)" stroke="rgb(255,255,255)" paint-order="fill" d="M 130.81817626953125 131.0470428466797 L 146.27272033691406 131.0470428466797 L 146.27272033691406 136.27272033691406 L 130.81817626953125 136.27272033691406 L 130.81817626953125 131.0470428466797" fill-opacity="1" clip-path="url(#XdTBhLWeyxKm)" stroke-opacity="1" stroke-linejoin="bevel" stroke-miterlimit="10" stroke-dasharray=""/><path fill="rgb(70,130,180)" stroke="rgb(255,255,255)" paint-order="fill" d="M 146.27272033691406 128.4342041015625 L 161.72727966308594 128.4342041015625 L 161.72727966308594 136.27272033691406 L 146.27272033691406 136.27272033691406 L 146.27272033691406 128.4342041015625" fill-opacity="1" clip-path="url(#XdTBhLWeyxKm)" stroke-opacity="1" stroke-linejoin="bevel" stroke-miterlimit="10" stroke-dasharray=""/><path fill="rgb(70,130,180)" stroke="rgb(255,255,255)" paint-order="fill" d="M 161.72727966308594 127.5632553100586 L 177.18182373046875 127.5632553100586 L 177.18182373046875 136.27272033691406 L 161.72727966308594 136.27272033691406 L 161.72727966308594 127.5632553100586" fill-opacity="1" clip-path="url(#XdTBhLWeyxKm)" stroke-opacity="1" stroke-linejoin="bevel" stroke-miterlimit="10" stroke-dasharray=""/><path fill="rgb(70,130,180)" stroke="rgb(255,255,255)" paint-order="fill" d="M 177.18182373046875 120.5956802368164 L 192.63636779785156 120.5956802368164 L 192.63636779785156 136.27272033691406 L 177.18182373046875 136.27272033691406 L 177.18182373046875 120.5956802368164" fill-opacity="1" clip-path="url(#XdTBhLWeyxKm)" stroke-opacity="1" stroke-linejoin="bevel" stroke-miterlimit="10" stroke-dasharray=""/><path fill="rgb(70,130,180)" stroke="rgb(255,255,255)" paint-order="fill" d="M 192.63636779785156 125.3858871459961 L 208.09091186523438 125.3858871459961 L 208.09091186523438 136.27272033691406 L 192.63636779785156 136.27272033691406 L 192.63636779785156 125.3858871459961" fill-opacity="1" clip-path="url(#XdTBhLWeyxKm)" stroke-opacity="1" stroke-linejoin="bevel" stroke-miterlimit="10" stroke-dasharray=""/><path fill="rgb(70,130,180)" stroke="rgb(255,255,255)" paint-order="fill" d="M 208.09091186523438 117.54736328125 L 223.5454559326172 117.54736328125 L 223.5454559326172 136.27272033691406 L 208.09091186523438 136.27272033691406 L 208.09091186523438 117.54736328125" fill-opacity="1" clip-path="url(#XdTBhLWeyxKm)" stroke-opacity="1" stroke-linejoin="bevel" stroke-miterlimit="10" stroke-dasharray=""/><path fill="rgb(70,130,180)" stroke="rgb(255,255,255)" paint-order="fill" d="M 223.5454559326172 104.04767608642578 L 239 104.04767608642578 L 239 136.27272033691406 L 223.5454559326172 136.27272033691406 L 223.5454559326172 104.04767608642578" fill-opacity="1" clip-path="url(#XdTBhLWeyxKm)" stroke-opacity="1" stroke-linejoin="bevel" stroke-miterlimit="10" stroke-dasharray=""/><path fill="rgb(70,130,180)" stroke="rgb(255,255,255)" paint-order="fill" d="M 239 92.2898941040039 L 254.4545440673828 92.2898941040039 L 254.4545440673828 136.27272033691406 L 239 136.27272033691406 L 239 92.2898941040039" fill-opacity="1" clip-path="url(#XdTBhLWeyxKm)" stroke-opacity="1" stroke-linejoin="bevel" stroke-miterlimit="10" stroke-dasharray=""/><path fill="rgb(70,130,180)" stroke="rgb(255,255,255)" paint-order="fill" d="M 254.4545440673828 76.61283874511719 L 269.9090881347656 76.61283874511719 L 269.9090881347656 136.27272033691406 L 254.4545440673828 136.27272033691406 L 254.4545440673828 76.61283874511719" fill-opacity="1" clip-path="url(#XdTBhLWeyxKm)" stroke-opacity="1" stroke-linejoin="bevel" stroke-miterlimit="10" stroke-dasharray=""/><path fill="rgb(70,130,180)" stroke="rgb(255,255,255)" paint-order="fill" d="M 269.9090881347656 60.06484603881836 L 285.3636474609375 60.06484603881836 L 285.3636474609375 136.27272033691406 L 269.9090881347656 136.27272033691406 L 269.9090881347656 60.06484603881836" fill-opacity="1" clip-path="url(#XdTBhLWeyxKm)" stroke-opacity="1" stroke-linejoin="bevel" stroke-miterlimit="10" stroke-dasharray=""/><path fill="rgb(70,130,180)" stroke="rgb(255,255,255)" paint-order="fill" d="M 285.3636474609375 31.323585510253906 L 300.81817626953125 31.323585510253906 L 300.81817626953125 136.27272033691406 L 285.3636474609375 136.27272033691406 L 285.3636474609375 31.323585510253906" fill-opacity="1" clip-path="url(#XdTBhLWeyxKm)" stroke-opacity="1" stroke-linejoin="bevel" stroke-miterlimit="10" stroke-dasharray=""/><path fill="rgb(70,130,180)" stroke="rgb(255,255,255)" paint-order="fill" d="M 300.81817626953125 13.033693313598633 L 316.2727355957031 13.033693313598633 L 316.2727355957031 136.27272033691406 L 300.81817626953125 136.27272033691406 L 300.81817626953125 13.033693313598633" fill-opacity="1" clip-path="url(#XdTBhLWeyxKm)" stroke-opacity="1" stroke-linejoin="bevel" stroke-miterlimit="10" stroke-dasharray=""/><path fill="rgb(70,130,180)" stroke="rgb(255,255,255)" paint-order="fill" d="M 316.2727355957031 20.436744689941406 L 331.7272644042969 20.436744689941406 L 331.7272644042969 136.27272033691406 L 316.2727355957031 136.27272033691406 L 316.2727355957031 20.436744689941406" fill-opacity="1" clip-path="url(#XdTBhLWeyxKm)" stroke-opacity="1" stroke-linejoin="bevel" stroke-miterlimit="10" stroke-dasharray=""/><path fill="rgb(70,130,180)" stroke="rgb(255,255,255)" paint-order="fill" d="M 331.7272644042969 11.727272987365723 L 347.18182373046875 11.727272987365723 L 347.18182373046875 136.27272033691406 L 331.7272644042969 136.27272033691406 L 331.7272644042969 11.727272987365723" fill-opacity="1" clip-path="url(#XdTBhLWeyxKm)" stroke-opacity="1" stroke-linejoin="bevel" stroke-miterlimit="10" stroke-dasharray=""/><path fill="rgb(70,130,180)" stroke="rgb(255,255,255)" paint-order="fill" d="M 347.18182373046875 23.04958724975586 L 362.6363525390625 23.04958724975586 L 362.6363525390625 136.27272033691406 L 347.18182373046875 136.27272033691406 L 347.18182373046875 23.04958724975586" fill-opacity="1" clip-path="url(#XdTBhLWeyxKm)" stroke-opacity="1" stroke-linejoin="bevel" stroke-miterlimit="10" stroke-dasharray=""/><path fill="rgb(70,130,180)" stroke="rgb(255,255,255)" paint-order="fill" d="M 362.6363525390625 51.79084396362305 L 378.0909118652344 51.79084396362305 L 378.0909118652344 136.27272033691406 L 362.6363525390625 136.27272033691406 L 362.6363525390625 51.79084396362305" fill-opacity="1" clip-path="url(#XdTBhLWeyxKm)" stroke-opacity="1" stroke-linejoin="bevel" stroke-miterlimit="10" stroke-dasharray=""/><path fill="rgb(70,130,180)" stroke="rgb(255,255,255)" paint-order="fill" d="M 378.0909118652344 92.2898941040039 L 393.5454406738281 92.2898941040039 L 393.5454406738281 136.27272033691406 L 378.0909118652344 136.27272033691406 L 378.0909118652344 92.2898941040039" fill-opacity="1" clip-path="url(#XdTBhLWeyxKm)" stroke-opacity="1" stroke-linejoin="bevel" stroke-miterlimit="10" stroke-dasharray=""/><path fill="rgb(70,130,180)" stroke="rgb(255,255,255)" paint-order="fill" d="M 393.5454406738281 114.4990463256836 L 409 114.4990463256836 L 409 136.27272033691406 L 393.5454406738281 136.27272033691406 L 393.5454406738281 114.4990463256836" fill-opacity="1" clip-path="url(#XdTBhLWeyxKm)" stroke-opacity="1" stroke-linejoin="bevel" stroke-miterlimit="10" stroke-dasharray=""/><path fill="rgb(70,130,180)" stroke="rgb(255,255,255)" paint-order="fill" d="M 409 120.16020202636719 L 424.4545593261719 120.16020202636719 L 424.4545593261719 136.27272033691406 L 409 136.27272033691406 L 409 120.16020202636719" fill-opacity="1" clip-path="url(#XdTBhLWeyxKm)" stroke-opacity="1" stroke-linejoin="bevel" stroke-miterlimit="10" stroke-dasharray=""/><path fill="rgb(70,130,180)" stroke="rgb(255,255,255)" paint-order="fill" d="M 424.4545593261719 128.8696746826172 L 439.9090881347656 128.8696746826172 L 439.9090881347656 136.27272033691406 L 424.4545593261719 136.27272033691406 L 424.4545593261719 128.8696746826172" fill-opacity="1" clip-path="url(#XdTBhLWeyxKm)" stroke-opacity="1" stroke-linejoin="bevel" stroke-miterlimit="10" stroke-dasharray=""/><path fill="rgb(70,130,180)" stroke="rgb(255,255,255)" paint-order="fill" d="M 439.9090881347656 134.5308380126953 L 455.3636474609375 134.5308380126953 L 455.3636474609375 136.27272033691406 L 439.9090881347656 136.27272033691406 L 439.9090881347656 134.5308380126953" fill-opacity="1" clip-path="url(#XdTBhLWeyxKm)" stroke-opacity="1" stroke-linejoin="bevel" stroke-miterlimit="10" stroke-dasharray=""/><path fill="rgb(70,130,180)" stroke="rgb(255,255,255)" paint-order="fill" d="M 455.3636474609375 135.4017791748047 L 470.81817626953125 135.4017791748047 L 470.81817626953125 136.27272033691406 L 455.3636474609375 136.27272033691406 L 455.3636474609375 135.4017791748047" fill-opacity="1" clip-path="url(#XdTBhLWeyxKm)" stroke-opacity="1" stroke-linejoin="bevel" stroke-miterlimit="10" stroke-dasharray=""/><path fill="rgb(70,130,180)" stroke="rgb(255,255,255)" paint-order="fill" d="M 470.81817626953125 136.27272033691406 L 486.2727355957031 136.27272033691406 L 486.2727355957031 136.27272033691406 L 470.81817626953125 136.27272033691406 L 470.81817626953125 136.27272033691406" fill-opacity="1" clip-path="url(#XdTBhLWeyxKm)" stroke-opacity="1" stroke-linejoin="bevel" stroke-miterlimit="10" stroke-dasharray=""/><path fill="rgb(70,130,180)" stroke="rgb(255,255,255)" paint-order="fill" d="M 486.2727355957031 135.83724975585938 L 501.7272644042969 135.83724975585938 L 501.7272644042969 136.27272033691406 L 486.2727355957031 136.27272033691406 L 486.2727355957031 135.83724975585938" fill-opacity="1" clip-path="url(#XdTBhLWeyxKm)" stroke-opacity="1" stroke-linejoin="bevel" stroke-miterlimit="10" stroke-dasharray=""/><path fill="rgb(70,130,180)" stroke="rgb(255,255,255)" paint-order="fill" d="M 501.7272644042969 136.27272033691406 L 517.1818237304688 136.27272033691406 L 517.1818237304688 136.27272033691406 L 501.7272644042969 136.27272033691406 L 501.7272644042969 136.27272033691406" fill-opacity="1" clip-path="url(#XdTBhLWeyxKm)" stroke-opacity="1" stroke-linejoin="bevel" stroke-miterlimit="10" stroke-dasharray=""/><path fill="rgb(70,130,180)" stroke="rgb(255,255,255)" paint-order="fill" d="M 517.1818237304688 136.27272033691406 L 532.6363525390625 136.27272033691406 L 532.6363525390625 136.27272033691406 L 517.1818237304688 136.27272033691406 L 517.1818237304688 136.27272033691406" fill-opacity="1" clip-path="url(#XdTBhLWeyxKm)" stroke-opacity="1" stroke-linejoin="bevel" stroke-miterlimit="10" stroke-dasharray=""/><path fill="rgb(70,130,180)" stroke="rgb(255,255,255)" paint-order="fill" d="M 532.6363525390625 136.27272033691406 L 548.0908813476562 136.27272033691406 L 548.0908813476562 136.27272033691406 L 532.6363525390625 136.27272033691406 L 532.6363525390625 136.27272033691406" fill-opacity="1" clip-path="url(#XdTBhLWeyxKm)" stroke-opacity="1" stroke-linejoin="bevel" stroke-miterlimit="10" stroke-dasharray=""/><path fill="none" stroke="rgb(0,0,0)" paint-order="fill" d="M 77.5 142.5 L 570.5 142.5" stroke-opacity="1" stroke-linejoin="bevel" stroke-miterlimit="10" stroke-dasharray=""/><path fill="none" stroke="rgb(0,0,0)" paint-order="fill" d="M 144.5 148.5 L 144.5 140.5 M 234.5 148.5 L 234.5 140.5 M 324.5 148.5 L 324.5 140.5 M 413.5 148.5 L 413.5 140.5 M 503.5 148.5 L 503.5 140.5" stroke-opacity="1" stroke-linejoin="bevel" stroke-miterlimit="10" stroke-dasharray=""/><path fill="none" stroke="rgb(0,0,0)" paint-order="fill" d="M 126.5 146.5 L 126.5 142.5 M 108.5 146.5 L 108.5 142.5 M 90.5 146.5 L 90.5 142.5 M 144.5 146.5 L 144.5 142.5 M 162.5 146.5 L 162.5 142.5 M 180.5 146.5 L 180.5 142.5 M 198.5 146.5 L 198.5 142.5 M 216.5 146.5 L 216.5 142.5 M 234.5 146.5 L 234.5 142.5 M 252.5 146.5 L 252.5 142.5 M 270.5 146.5 L 270.5 142.5 M 288.5 146.5 L 288.5 142.5 M 306.5 146.5 L 306.5 142.5 M 324.5 146.5 L 324.5 142.5 M 341.5 146.5 L 341.5 142.5 M 359.5 146.5 L 359.5 142.5 M 377.5 146.5 L 377.5 142.5 M 395.5 146.5 L 395.5 142.5 M 413.5 146.5 L 413.5 142.5 M 431.5 146.5 L 431.5 142.5 M 449.5 146.5 L 449.5 142.5 M 467.5 146.5 L 467.5 142.5 M 485.5 146.5 L 485.5 142.5 M 503.5 146.5 L 503.5 142.5 M 521.5 146.5 L 521.5 142.5 M 539.5 146.5 L 539.5 142.5 M 557.5 146.5 L 557.5 142.5" stroke-opacity="1" stroke-linejoin="bevel" stroke-miterlimit="10" stroke-dasharray=""/><text fill="rgb(68,68,68)" stroke="none" font-family="arial" font-size="20px" font-style="normal" font-weight="normal" text-decoration="normal" x="124.22727966308594" y="167.31640625" text-anchor="start" dominant-baseline="alphabetic" transform="matrix(1, 0, 0, 1, 0.5, 0.5)" fill-opacity="1">−0.4</text><text fill="rgb(68,68,68)" stroke="none" font-family="arial" font-size="20px" font-style="normal" font-weight="normal" text-decoration="normal" x="213.86363220214844" y="167.31640625" text-anchor="start" dominant-baseline="alphabetic" transform="matrix(1, 0, 0, 1, 0.5, 0.5)" fill-opacity="1">−0.2</text><text fill="rgb(68,68,68)" stroke="none" font-family="arial" font-size="20px" font-style="normal" font-weight="normal" text-decoration="normal" x="318" y="167.31640625" text-anchor="start" dominant-baseline="alphabetic" transform="matrix(1, 0, 0, 1, 0.5, 0.5)" fill-opacity="1">0</text><text fill="rgb(68,68,68)" stroke="none" font-family="arial" font-size="20px" font-style="normal" font-weight="normal" text-decoration="normal" x="399.1363525390625" y="167.31640625" text-anchor="start" dominant-baseline="alphabetic" transform="matrix(1, 0, 0, 1, 0.5, 0.5)" fill-opacity="1">0.2</text><text fill="rgb(68,68,68)" stroke="none" font-family="arial" font-size="20px" font-style="normal" font-weight="normal" text-decoration="normal" x="488.7727355957031" y="167.31640625" text-anchor="start" dominant-baseline="alphabetic" transform="matrix(1, 0, 0, 1, 0.5, 0.5)" fill-opacity="1">0.4</text><text fill="rgb(68,68,68)" stroke="none" font-family="arial" font-size="20px" font-style="normal" font-weight="normal" text-decoration="normal" x="170.875" y="193.24609375" text-anchor="start" dominant-baseline="alphabetic" transform="matrix(1, 0, 0, 1, 0.5, 0.5)" fill-opacity="1">Log 10 Fold Change (MTC/Lysate)</text><path fill="none" stroke="rgb(0,0,0)" paint-order="fill" d="M 77.5 142.5 L 77.5 5.5" stroke-opacity="1" stroke-linejoin="bevel" stroke-miterlimit="10" stroke-dasharray=""/><path fill="none" stroke="rgb(0,0,0)" paint-order="fill" d="M 71.5 114.5 L 79.5 114.5 M 71.5 70.5 L 79.5 70.5 M 71.5 27.5 L 79.5 27.5" stroke-opacity="1" stroke-linejoin="bevel" stroke-miterlimit="10" stroke-dasharray=""/><path fill="none" stroke="rgb(0,0,0)" paint-order="fill" d="" stroke-opacity="1" stroke-linejoin="bevel" stroke-miterlimit="10" stroke-dasharray=""/><text fill="rgb(68,68,68)" stroke="none" font-family="arial" font-size="20px" font-style="normal" font-weight="normal" text-decoration="normal" x="44" y="121.1572494506836" text-anchor="start" dominant-baseline="alphabetic" transform="matrix(1, 0, 0, 1, 0.5, 0.5)" fill-opacity="1">50</text><text fill="rgb(68,68,68)" stroke="none" font-family="arial" font-size="20px" font-style="normal" font-weight="normal" text-decoration="normal" x="33" y="77.6098861694336" text-anchor="start" dominant-baseline="alphabetic" transform="matrix(1, 0, 0, 1, 0.5, 0.5)" fill-opacity="1">150</text><text fill="rgb(68,68,68)" stroke="none" font-family="arial" font-size="20px" font-style="normal" font-weight="normal" text-decoration="normal" x="33" y="34.06252670288086" text-anchor="start" dominant-baseline="alphabetic" transform="matrix(1, 0, 0, 1, 0.5, 0.5)" fill-opacity="1">250</text><text fill="rgb(68,68,68)" stroke="none" font-family="arial" font-size="20px" font-style="normal" font-weight="normal" text-decoration="normal" x="-0.5" y="69.291015625" text-anchor="start" dominant-baseline="alphabetic" transform="matrix(6.123233995736766e-17, -1, 1, 6.123233995736766e-17, -48, 99)" fill-opacity="1">Count</text></svg>