<svg version="1.1" xmlns="http://www.w3.org/2000/svg" width="2500" height="700"><defs><clipPath id="UTilvwxgFArE"><path fill="none" stroke="none" d="M 166.5 86.5 L 2470.5 86.5 L 2470.5 540.5 L 166.5 540.5 L 166.5 86.5"/></clipPath><clipPath id="wRqzmPAWFhCO"><path fill="none" stroke="none" d="M 166.5 86.5 L 2470.5 86.5 L 2470.5 540.5 L 166.5 540.5 L 166.5 86.5"/></clipPath><clipPath id="PQsUEgwaInui"><path fill="none" stroke="none" d="M 166.5 86.5 L 2470.5 86.5 L 2470.5 540.5 L 166.5 540.5 L 166.5 86.5"/></clipPath><clipPath id="CmXnZDrsIdZR"><path fill="none" stroke="none" d="M 166.5 86.5 L 2470.5 86.5 L 2470.5 540.5 L 166.5 540.5 L 166.5 86.5"/></clipPath><clipPath id="DPvKNrNEXsCf"><path fill="none" stroke="none" d="M 166.5 86.5 L 2470.5 86.5 L 2470.5 540.5 L 166.5 540.5 L 166.5 86.5"/></clipPath><clipPath id="alRSKwVqmFKT"><path fill="none" stroke="none" d="M 166.5 86.5 L 2470.5 86.5 L 2470.5 540.5 L 166.5 540.5 L 166.5 86.5"/></clipPath><clipPath id="exAomlycIUJd"><path fill="none" stroke="none" d="M 166.5 86.5 L 2470.5 86.5 L 2470.5 540.5 L 166.5 540.5 L 166.5 86.5"/></clipPath></defs><path fill="rgb(255,255,255)" stroke="none" paint-order="stroke" d="M 0.5 0.5 L 2500.5 0.5 L 2500.5 700.5 L 0.5 700.5 L 0.5 0.5" fill-opacity="1"/><rect fill="#FFFFFF" stroke="none" x="166" y="86" width="2304" height="454" transform="matrix(1, 0, 0, 1, 0.5, 0.5)"/><path fill="rgb(255,255,255)" stroke="none" paint-order="stroke" d="M 166.5 86.5 L 2470.5 86.5 L 2470.5 540.5 L 166.5 540.5 L 166.5 86.5" fill-opacity="1"/><path fill="none" stroke="rgb(229,229,229)" paint-order="fill" d="M 166.5 457.5 L 2470.5 457.5 M 166.5 375.5 L 2470.5 375.5 M 166.5 292.5 L 2470.5 292.5 M 166.5 210.5 L 2470.5 210.5 M 166.5 127.5 L 2470.5 127.5" stroke-opacity="1" stroke-linejoin="bevel" stroke-miterlimit="10" stroke-dasharray="" clip-path="url(#wRqzmPAWFhCO)"/><path fill="rgb(32,178,170)" stroke="rgb(32,178,170)" paint-order="fill" d="M 292.1727294921875 539.9429931640625 L 669.19091796875 539.9429931640625 L 669.19091796875 540.5 L 292.1727294921875 540.5 L 292.1727294921875 539.9429931640625" fill-opacity="1" clip-path="url(#PQsUEgwaInui)" stroke-opacity="1" stroke-linejoin="bevel" stroke-miterlimit="10" stroke-dasharray=""/><path fill="rgb(32,178,170)" stroke="rgb(32,178,170)" paint-order="fill" d="M 711.081787109375 127.8189697265625 L 1088.0999755859375 127.8189697265625 L 1088.0999755859375 540.5 L 711.081787109375 540.5 L 711.081787109375 127.8189697265625" fill-opacity="1" clip-path="url(#PQsUEgwaInui)" stroke-opacity="1" stroke-linejoin="bevel" stroke-miterlimit="10" stroke-dasharray=""/><path fill="rgb(32,178,170)" stroke="rgb(32,178,170)" paint-order="fill" d="M 1129.990966796875 127.94535827636719 L 1507.009033203125 127.94535827636719 L 1507.009033203125 540.5 L 1129.990966796875 540.5 L 1129.990966796875 127.94535827636719" fill-opacity="1" clip-path="url(#PQsUEgwaInui)" stroke-opacity="1" stroke-linejoin="bevel" stroke-miterlimit="10" stroke-dasharray=""/><path fill="rgb(32,178,170)" stroke="rgb(32,178,170)" paint-order="fill" d="M 1548.89990234375 127.7926254272461 L 1925.918212890625 127.7926254272461 L 1925.918212890625 540.5 L 1548.89990234375 540.5 L 1548.89990234375 127.7926254272461" fill-opacity="1" clip-path="url(#PQsUEgwaInui)" stroke-opacity="1" stroke-linejoin="bevel" stroke-miterlimit="10" stroke-dasharray=""/><path fill="rgb(32,178,170)" stroke="rgb(32,178,170)" paint-order="fill" d="M 1967.80908203125 176.4148712158203 L 2344.8271484375 176.4148712158203 L 2344.8271484375 540.5 L 1967.80908203125 540.5 L 1967.80908203125 176.4148712158203" fill-opacity="1" clip-path="url(#PQsUEgwaInui)" stroke-opacity="1" stroke-linejoin="bevel" stroke-miterlimit="10" stroke-dasharray=""/><path fill="rgb(255,160,122)" stroke="rgb(255,160,122)" paint-order="fill" d="M 292.1727294921875 127.7727279663086 L 669.19091796875 127.7727279663086 L 669.19091796875 539.9429931640625 L 292.1727294921875 539.9429931640625 L 292.1727294921875 127.7727279663086" fill-opacity="1" clip-path="url(#CmXnZDrsIdZR)" stroke-opacity="1" stroke-linejoin="bevel" stroke-miterlimit="10" stroke-dasharray=""/><path fill="rgb(255,160,122)" stroke="rgb(255,160,122)" paint-order="fill" d="M 711.081787109375 127.7727279663086 L 1088.0999755859375 127.7727279663086 L 1088.0999755859375 127.8189697265625 L 711.081787109375 127.8189697265625 L 711.081787109375 127.7727279663086" fill-opacity="1" clip-path="url(#CmXnZDrsIdZR)" stroke-opacity="1" stroke-linejoin="bevel" stroke-miterlimit="10" stroke-dasharray=""/><path fill="rgb(255,160,122)" stroke="rgb(255,160,122)" paint-order="fill" d="M 1129.990966796875 127.7727279663086 L 1507.009033203125 127.7727279663086 L 1507.009033203125 127.94535827636719 L 1129.990966796875 127.94535827636719 L 1129.990966796875 127.7727279663086" fill-opacity="1" clip-path="url(#CmXnZDrsIdZR)" stroke-opacity="1" stroke-linejoin="bevel" stroke-miterlimit="10" stroke-dasharray=""/><path fill="rgb(255,160,122)" stroke="rgb(255,160,122)" paint-order="fill" d="M 1548.89990234375 127.7727279663086 L 1925.918212890625 127.7727279663086 L 1925.918212890625 127.7926254272461 L 1548.89990234375 127.7926254272461 L 1548.89990234375 127.7727279663086" fill-opacity="1" clip-path="url(#CmXnZDrsIdZR)" stroke-opacity="1" stroke-linejoin="bevel" stroke-miterlimit="10" stroke-dasharray=""/><path fill="rgb(255,160,122)" stroke="rgb(255,160,122)" paint-order="fill" d="M 1967.80908203125 127.7727279663086 L 2344.8271484375 127.7727279663086 L 2344.8271484375 176.4148712158203 L 1967.80908203125 176.4148712158203 L 1967.80908203125 127.7727279663086" fill-opacity="1" clip-path="url(#CmXnZDrsIdZR)" stroke-opacity="1" stroke-linejoin="bevel" stroke-miterlimit="10" stroke-dasharray=""/><g clip-path="url(#DPvKNrNEXsCf)"><text fill="rgb(0,0,0)" stroke="none" font-family="arial" font-size="35pt" font-style="normal" font-weight="normal" text-decoration="normal" x="0" y="-61.98828124999999" text-anchor="middle" dominant-baseline="text-after-edge" transform="matrix(1, 0, 0, 1, 480.68182373046875, 499.2272644042969)" fill-opacity="1">99.865%</text></g><g clip-path="url(#DPvKNrNEXsCf)"><text fill="rgb(0,0,0)" stroke="none" font-family="arial" font-size="35pt" font-style="normal" font-weight="normal" text-decoration="normal" x="0" y="0" text-anchor="middle" dominant-baseline="text-after-edge" transform="matrix(1, 0, 0, 1, 480.68182373046875, 499.2272644042969)" fill-opacity="1">B. sub</text></g><g clip-path="url(#DPvKNrNEXsCf)"><text fill="rgb(0,0,0)" stroke="none" font-family="arial" font-size="35pt" font-style="normal" font-weight="normal" text-decoration="normal" x="0" y="-61.98828124999999" text-anchor="middle" dominant-baseline="text-after-edge" transform="matrix(1, 0, 0, 1, 899.5908813476562, 499.2272644042969)" fill-opacity="1">0.011%</text></g><g clip-path="url(#DPvKNrNEXsCf)"><text fill="rgb(0,0,0)" stroke="none" font-family="arial" font-size="35pt" font-style="normal" font-weight="normal" text-decoration="normal" x="0" y="0" text-anchor="middle" dominant-baseline="text-after-edge" transform="matrix(1, 0, 0, 1, 899.5908813476562, 499.2272644042969)" fill-opacity="1">B. sub</text></g><g clip-path="url(#DPvKNrNEXsCf)"><text fill="rgb(0,0,0)" stroke="none" font-family="arial" font-size="35pt" font-style="normal" font-weight="normal" text-decoration="normal" x="0" y="-61.98828124999999" text-anchor="middle" dominant-baseline="text-after-edge" transform="matrix(1, 0, 0, 1, 1318.5, 499.2272644042969)" fill-opacity="1">0.041%</text></g><g clip-path="url(#DPvKNrNEXsCf)"><text fill="rgb(0,0,0)" stroke="none" font-family="arial" font-size="35pt" font-style="normal" font-weight="normal" text-decoration="normal" x="0" y="0" text-anchor="middle" dominant-baseline="text-after-edge" transform="matrix(1, 0, 0, 1, 1318.5, 499.2272644042969)" fill-opacity="1">B. sub</text></g><g clip-path="url(#DPvKNrNEXsCf)"><text fill="rgb(0,0,0)" stroke="none" font-family="arial" font-size="35pt" font-style="normal" font-weight="normal" text-decoration="normal" x="0" y="-61.98828124999999" text-anchor="middle" dominant-baseline="text-after-edge" transform="matrix(1, 0, 0, 1, 1737.4090576171875, 499.2272644042969)" fill-opacity="1">0.004%</text></g><g clip-path="url(#DPvKNrNEXsCf)"><text fill="rgb(0,0,0)" stroke="none" font-family="arial" font-size="35pt" font-style="normal" font-weight="normal" text-decoration="normal" x="0" y="0" text-anchor="middle" dominant-baseline="text-after-edge" transform="matrix(1, 0, 0, 1, 1737.4090576171875, 499.2272644042969)" fill-opacity="1">B. sub</text></g><g clip-path="url(#DPvKNrNEXsCf)"><text fill="rgb(0,0,0)" stroke="none" font-family="arial" font-size="35pt" font-style="normal" font-weight="normal" text-decoration="normal" x="0" y="-61.98828124999999" text-anchor="middle" dominant-baseline="text-after-edge" transform="matrix(1, 0, 0, 1, 2156.318115234375, 499.2272644042969)" fill-opacity="1">11.785%</text></g><g clip-path="url(#DPvKNrNEXsCf)"><text fill="rgb(0,0,0)" stroke="none" font-family="arial" font-size="35pt" font-style="normal" font-weight="normal" text-decoration="normal" x="0" y="0" text-anchor="middle" dominant-baseline="text-after-edge" transform="matrix(1, 0, 0, 1, 2156.318115234375, 499.2272644042969)" fill-opacity="1">B. sub</text></g><path fill="none" stroke="rgb(0,0,0)" paint-order="fill" d="M 166.5 540.5 L 2470.5 540.5" stroke-opacity="1" stroke-linejoin="bevel" stroke-miterlimit="10" stroke-dasharray=""/><path fill="none" stroke="rgb(0,0,0)" paint-order="fill" d="M 480.5 546.5 L 480.5 538.5 M 899.5 546.5 L 899.5 538.5 M 1318.5 546.5 L 1318.5 538.5 M 1737.5 546.5 L 1737.5 538.5 M 2156.5 546.5 L 2156.5 538.5" stroke-opacity="1" stroke-linejoin="bevel" stroke-miterlimit="10" stroke-dasharray=""/><text fill="rgb(68,68,68)" stroke="none" font-family="arial" font-size="45pt" font-style="normal" font-weight="normal" text-decoration="normal" x="352.18182373046875" y="604.7890625" text-anchor="start" dominant-baseline="alphabetic" transform="matrix(1, 0, 0, 1, 0.5, 0.5)" fill-opacity="1">B. subtilis</text><text fill="rgb(68,68,68)" stroke="none" font-family="arial" font-size="45pt" font-style="normal" font-weight="normal" text-decoration="normal" x="393.7984924316406" y="684.48828125" text-anchor="start" dominant-baseline="alphabetic" transform="matrix(1, 0, 0, 1, 0.5, 0.5)" fill-opacity="1">Lysate</text><text fill="rgb(68,68,68)" stroke="none" font-family="arial" font-size="45pt" font-style="normal" font-weight="normal" text-decoration="normal" x="817.5908813476562" y="604.7890625" text-anchor="start" dominant-baseline="alphabetic" transform="matrix(1, 0, 0, 1, 0.5, 0.5)" fill-opacity="1">E. coli</text><text fill="rgb(68,68,68)" stroke="none" font-family="arial" font-size="45pt" font-style="normal" font-weight="normal" text-decoration="normal" x="790.0908813476562" y="684.48828125" text-anchor="start" dominant-baseline="alphabetic" transform="matrix(1, 0, 0, 1, 0.5, 0.5)" fill-opacity="1">Capsule</text><text fill="rgb(68,68,68)" stroke="none" font-family="arial" font-size="45pt" font-style="normal" font-weight="normal" text-decoration="normal" x="1236.5" y="604.7890625" text-anchor="start" dominant-baseline="alphabetic" transform="matrix(1, 0, 0, 1, 0.5, 0.5)" fill-opacity="1">E. coli</text><text fill="rgb(68,68,68)" stroke="none" font-family="arial" font-size="45pt" font-style="normal" font-weight="normal" text-decoration="normal" x="1231.6166687011719" y="684.48828125" text-anchor="start" dominant-baseline="alphabetic" transform="matrix(1, 0, 0, 1, 0.5, 0.5)" fill-opacity="1">Lysate</text><text fill="rgb(68,68,68)" stroke="none" font-family="arial" font-size="45pt" font-style="normal" font-weight="normal" text-decoration="normal" x="1639.4090576171875" y="604.7890625" text-anchor="start" dominant-baseline="alphabetic" transform="matrix(1, 0, 0, 1, 0.5, 0.5)" fill-opacity="1">Mixture</text><text fill="rgb(68,68,68)" stroke="none" font-family="arial" font-size="45pt" font-style="normal" font-weight="normal" text-decoration="normal" x="1627.9090576171875" y="684.48828125" text-anchor="start" dominant-baseline="alphabetic" transform="matrix(1, 0, 0, 1, 0.5, 0.5)" fill-opacity="1">Capsule</text><text fill="rgb(68,68,68)" stroke="none" font-family="arial" font-size="45pt" font-style="normal" font-weight="normal" text-decoration="normal" x="2058.318115234375" y="604.7890625" text-anchor="start" dominant-baseline="alphabetic" transform="matrix(1, 0, 0, 1, 0.5, 0.5)" fill-opacity="1">Mixture</text><text fill="rgb(68,68,68)" stroke="none" font-family="arial" font-size="45pt" font-style="normal" font-weight="normal" text-decoration="normal" x="2069.434783935547" y="684.48828125" text-anchor="start" dominant-baseline="alphabetic" transform="matrix(1, 0, 0, 1, 0.5, 0.5)" fill-opacity="1">Lysate</text><path fill="none" stroke="rgb(0,0,0)" paint-order="fill" d="M 166.5 540.5 L 166.5 86.5" stroke-opacity="1" stroke-linejoin="bevel" stroke-miterlimit="10" stroke-dasharray=""/><path fill="none" stroke="rgb(0,0,0)" paint-order="fill" d="M 160.5 540.5 L 168.5 540.5 M 160.5 457.5 L 168.5 457.5 M 160.5 375.5 L 168.5 375.5 M 160.5 292.5 L 168.5 292.5 M 160.5 210.5 L 168.5 210.5 M 160.5 127.5 L 168.5 127.5" stroke-opacity="1" stroke-linejoin="bevel" stroke-miterlimit="10" stroke-dasharray=""/><text fill="rgb(68,68,68)" stroke="none" font-family="helvetica" font-size="35pt" font-style="normal" font-weight="normal" text-decoration="normal" x="129" y="556.7024739583333" text-anchor="start" dominant-baseline="alphabetic" transform="matrix(1, 0, 0, 1, 0.5, 0.5)" fill-opacity="1">0</text><text fill="rgb(68,68,68)" stroke="none" font-family="helvetica" font-size="35pt" font-style="normal" font-weight="normal" text-decoration="normal" x="103" y="474.15703328450525" text-anchor="start" dominant-baseline="alphabetic" transform="matrix(1, 0, 0, 1, 0.5, 0.5)" fill-opacity="1">20</text><text fill="rgb(68,68,68)" stroke="none" font-family="helvetica" font-size="35pt" font-style="normal" font-weight="normal" text-decoration="normal" x="103" y="391.611562093099" text-anchor="start" dominant-baseline="alphabetic" transform="matrix(1, 0, 0, 1, 0.5, 0.5)" fill-opacity="1">40</text><text fill="rgb(68,68,68)" stroke="none" font-family="helvetica" font-size="35pt" font-style="normal" font-weight="normal" text-decoration="normal" x="103" y="309.06612141927087" text-anchor="start" dominant-baseline="alphabetic" transform="matrix(1, 0, 0, 1, 0.5, 0.5)" fill-opacity="1">60</text><text fill="rgb(68,68,68)" stroke="none" font-family="helvetica" font-size="35pt" font-style="normal" font-weight="normal" text-decoration="normal" x="103" y="226.52065022786456" text-anchor="start" dominant-baseline="alphabetic" transform="matrix(1, 0, 0, 1, 0.5, 0.5)" fill-opacity="1">80</text><text fill="rgb(68,68,68)" stroke="none" font-family="helvetica" font-size="35pt" font-style="normal" font-weight="normal" text-decoration="normal" x="77" y="143.97520192464194" text-anchor="start" dominant-baseline="alphabetic" transform="matrix(1, 0, 0, 1, 0.5, 0.5)" fill-opacity="1">100</text><text fill="rgb(68,68,68)" stroke="none" font-family="helvetica" font-size="45pt" font-style="normal" font-weight="normal" text-decoration="normal" x="-83.5" y="300.373046875" text-anchor="start" dominant-baseline="alphabetic" transform="matrix(6.123233995736766e-17, -1, 1, 6.123233995736766e-17, -243.5, 382.5)" fill-opacity="1">Percentage</text><path fill="rgb(255,255,255)" stroke="rgb(229,229,229)" paint-order="fill" d="M 366.5 -146.15690104166666 L 766.5 -146.15690104166666 L 766.5 -74.5 L 366.5 -74.5 L 366.5 -146.15690104166666" fill-opacity="0.9490196078431372" clip-path="url(#alRSKwVqmFKT)" stroke-opacity="0.5019607843137255" stroke-linejoin="bevel" stroke-miterlimit="10" stroke-dasharray=""/><g clip-path="url(#alRSKwVqmFKT)"><text fill="rgb(68,68,68)" stroke="none" font-family="helvetica" font-size="35pt" font-style="normal" font-weight="normal" text-decoration="normal" x="401" y="-110.82845052083333" text-anchor="start" dominant-baseline="central" transform="matrix(1, 0, 0, 1, 0.5, 0.5)" fill-opacity="1">E. coli</text></g><path fill="rgb(32,178,170)" stroke="rgb(32,178,170)" paint-order="fill" d="M 378.5 -134.15690104166666 L 394.5 -134.15690104166666 L 394.5 -118.15690104166666 L 378.5 -118.15690104166666 L 378.5 -134.15690104166666" fill-opacity="1" clip-path="url(#alRSKwVqmFKT)" stroke-opacity="1" stroke-linejoin="bevel" stroke-miterlimit="10" stroke-dasharray=""/><g clip-path="url(#alRSKwVqmFKT)"><text fill="rgb(68,68,68)" stroke="none" font-family="helvetica" font-size="35pt" font-style="normal" font-weight="normal" text-decoration="normal" x="556" y="-110.82845052083333" text-anchor="start" dominant-baseline="central" transform="matrix(1, 0, 0, 1, 0.5, 0.5)" fill-opacity="1">B. subtilis</text></g><path fill="rgb(255,160,122)" stroke="rgb(255,160,122)" paint-order="fill" d="M 533.5 -134.15690104166666 L 549.5 -134.15690104166666 L 549.5 -118.15690104166666 L 533.5 -118.15690104166666 L 533.5 -134.15690104166666" fill-opacity="1" clip-path="url(#alRSKwVqmFKT)" stroke-opacity="1" stroke-linejoin="bevel" stroke-miterlimit="10" stroke-dasharray=""/><text fill="rgb(68,68,68)" stroke="none" font-family="helvetica" font-size="50pt" font-style="normal" font-weight="bold" text-decoration="normal" x="664" y="66.97005208333334" text-anchor="start" dominant-baseline="alphabetic" transform="matrix(1, 0, 0, 1, 0.5, 0.5)" fill-opacity="1">Percent Reads Mapping to Each Genome</text></svg>