<svg version="1.1" xmlns="http://www.w3.org/2000/svg" width="1700" height="700"><defs><clipPath id="cCXTLpoZTxGX"><path fill="none" stroke="none" d="M 166.5 86.5 L 1670.5 86.5 L 1670.5 540.5 L 166.5 540.5 L 166.5 86.5"/></clipPath><clipPath id="ABQiqQVGEeZv"><path fill="none" stroke="none" d="M 166.5 86.5 L 1670.5 86.5 L 1670.5 540.5 L 166.5 540.5 L 166.5 86.5"/></clipPath><clipPath id="sWrHluDbWcXx"><path fill="none" stroke="none" d="M 166.5 86.5 L 1670.5 86.5 L 1670.5 540.5 L 166.5 540.5 L 166.5 86.5"/></clipPath><clipPath id="IigTUnaPSSCB"><path fill="none" stroke="none" d="M 166.5 86.5 L 1670.5 86.5 L 1670.5 540.5 L 166.5 540.5 L 166.5 86.5"/></clipPath><clipPath id="StAqCxsrrWRa"><path fill="none" stroke="none" d="M 166.5 86.5 L 1670.5 86.5 L 1670.5 540.5 L 166.5 540.5 L 166.5 86.5"/></clipPath><clipPath id="eEImOphsCvPG"><path fill="none" stroke="none" d="M 166.5 86.5 L 1670.5 86.5 L 1670.5 540.5 L 166.5 540.5 L 166.5 86.5"/></clipPath><clipPath id="urADTUtUvhzZ"><path fill="none" stroke="none" d="M 166.5 86.5 L 1670.5 86.5 L 1670.5 540.5 L 166.5 540.5 L 166.5 86.5"/></clipPath></defs><path fill="rgb(255,255,255)" stroke="none" paint-order="stroke" d="M 0.5 0.5 L 1700.5 0.5 L 1700.5 700.5 L 0.5 700.5 L 0.5 0.5" fill-opacity="1"/><rect fill="#FFFFFF" stroke="none" x="166" y="86" width="1504" height="454" transform="matrix(1, 0, 0, 1, 0.5, 0.5)"/><path fill="rgb(255,255,255)" stroke="none" paint-order="stroke" d="M 166.5 86.5 L 1670.5 86.5 L 1670.5 540.5 L 166.5 540.5 L 166.5 86.5" fill-opacity="1"/><path fill="none" stroke="rgb(229,229,229)" paint-order="fill" d="M 166.5 457.5 L 1670.5 457.5 M 166.5 375.5 L 1670.5 375.5 M 166.5 292.5 L 1670.5 292.5 M 166.5 210.5 L 1670.5 210.5 M 166.5 127.5 L 1670.5 127.5" stroke-opacity="1" stroke-linejoin="bevel" stroke-miterlimit="10" stroke-dasharray="" clip-path="url(#ABQiqQVGEeZv)"/><path fill="rgb(32,178,170)" stroke="rgb(32,178,170)" paint-order="fill" d="M 269.04547119140625 176.4148712158203 L 884.3181762695312 176.4148712158203 L 884.3181762695312 540.5 L 269.04547119140625 540.5 L 269.04547119140625 176.4148712158203" fill-opacity="1" clip-path="url(#sWrHluDbWcXx)" stroke-opacity="1" stroke-linejoin="bevel" stroke-miterlimit="10" stroke-dasharray=""/><path fill="rgb(32,178,170)" stroke="rgb(32,178,170)" paint-order="fill" d="M 952.681884765625 127.7926254272461 L 1567.95458984375 127.7926254272461 L 1567.95458984375 540.5 L 952.681884765625 540.5 L 952.681884765625 127.7926254272461" fill-opacity="1" clip-path="url(#sWrHluDbWcXx)" stroke-opacity="1" stroke-linejoin="bevel" stroke-miterlimit="10" stroke-dasharray=""/><path fill="rgb(255,160,122)" stroke="rgb(255,160,122)" paint-order="fill" d="M 269.04547119140625 127.7727279663086 L 884.3181762695312 127.7727279663086 L 884.3181762695312 176.4148712158203 L 269.04547119140625 176.4148712158203 L 269.04547119140625 127.7727279663086" fill-opacity="1" clip-path="url(#IigTUnaPSSCB)" stroke-opacity="1" stroke-linejoin="bevel" stroke-miterlimit="10" stroke-dasharray=""/><path fill="rgb(255,160,122)" stroke="rgb(255,160,122)" paint-order="fill" d="M 952.681884765625 127.7727279663086 L 1567.95458984375 127.7727279663086 L 1567.95458984375 127.7926254272461 L 952.681884765625 127.7926254272461 L 952.681884765625 127.7727279663086" fill-opacity="1" clip-path="url(#IigTUnaPSSCB)" stroke-opacity="1" stroke-linejoin="bevel" stroke-miterlimit="10" stroke-dasharray=""/><g clip-path="url(#StAqCxsrrWRa)"><text fill="rgb(0,0,0)" stroke="none" font-family="arial" font-size="35pt" font-style="normal" font-weight="normal" text-decoration="normal" x="0" y="-61.98828124999999" text-anchor="middle" dominant-baseline="text-after-edge" transform="matrix(1, 0, 0, 1, 576.6818237304688, 499.2272644042969)" fill-opacity="1">11.785%</text></g><g clip-path="url(#StAqCxsrrWRa)"><text fill="rgb(0,0,0)" stroke="none" font-family="arial" font-size="35pt" font-style="normal" font-weight="normal" text-decoration="normal" x="0" y="0" text-anchor="middle" dominant-baseline="text-after-edge" transform="matrix(1, 0, 0, 1, 576.6818237304688, 499.2272644042969)" fill-opacity="1">B. sub</text></g><g clip-path="url(#StAqCxsrrWRa)"><text fill="rgb(0,0,0)" stroke="none" font-family="arial" font-size="35pt" font-style="normal" font-weight="normal" text-decoration="normal" x="0" y="-61.98828124999999" text-anchor="middle" dominant-baseline="text-after-edge" transform="matrix(1, 0, 0, 1, 1260.3182373046875, 499.2272644042969)" fill-opacity="1">0.004%</text></g><g clip-path="url(#StAqCxsrrWRa)"><text fill="rgb(0,0,0)" stroke="none" font-family="arial" font-size="35pt" font-style="normal" font-weight="normal" text-decoration="normal" x="0" y="0" text-anchor="middle" dominant-baseline="text-after-edge" transform="matrix(1, 0, 0, 1, 1260.3182373046875, 499.2272644042969)" fill-opacity="1">B. sub</text></g><path fill="none" stroke="rgb(0,0,0)" paint-order="fill" d="M 166.5 540.5 L 1670.5 540.5" stroke-opacity="1" stroke-linejoin="bevel" stroke-miterlimit="10" stroke-dasharray=""/><path fill="none" stroke="rgb(0,0,0)" paint-order="fill" d="M 576.5 546.5 L 576.5 538.5 M 1260.5 546.5 L 1260.5 538.5" stroke-opacity="1" stroke-linejoin="bevel" stroke-miterlimit="10" stroke-dasharray=""/><text fill="rgb(68,68,68)" stroke="none" font-family="arial" font-size="45pt" font-style="normal" font-weight="normal" text-decoration="normal" x="478.68182373046875" y="604.7890625" text-anchor="start" dominant-baseline="alphabetic" transform="matrix(1, 0, 0, 1, 0.5, 0.5)" fill-opacity="1">Mixture</text><text fill="rgb(68,68,68)" stroke="none" font-family="arial" font-size="45pt" font-style="normal" font-weight="normal" text-decoration="normal" x="489.7984924316406" y="684.48828125" text-anchor="start" dominant-baseline="alphabetic" transform="matrix(1, 0, 0, 1, 0.5, 0.5)" fill-opacity="1">Lysate</text><text fill="rgb(68,68,68)" stroke="none" font-family="arial" font-size="45pt" font-style="normal" font-weight="normal" text-decoration="normal" x="1162.3182373046875" y="604.7890625" text-anchor="start" dominant-baseline="alphabetic" transform="matrix(1, 0, 0, 1, 0.5, 0.5)" fill-opacity="1">Mixture</text><text fill="rgb(68,68,68)" stroke="none" font-family="arial" font-size="45pt" font-style="normal" font-weight="normal" text-decoration="normal" x="1150.8182373046875" y="684.48828125" text-anchor="start" dominant-baseline="alphabetic" transform="matrix(1, 0, 0, 1, 0.5, 0.5)" fill-opacity="1">Capsule</text><path fill="none" stroke="rgb(0,0,0)" paint-order="fill" d="M 166.5 540.5 L 166.5 86.5" stroke-opacity="1" stroke-linejoin="bevel" stroke-miterlimit="10" stroke-dasharray=""/><path fill="none" stroke="rgb(0,0,0)" paint-order="fill" d="M 160.5 540.5 L 168.5 540.5 M 160.5 457.5 L 168.5 457.5 M 160.5 375.5 L 168.5 375.5 M 160.5 292.5 L 168.5 292.5 M 160.5 210.5 L 168.5 210.5 M 160.5 127.5 L 168.5 127.5" stroke-opacity="1" stroke-linejoin="bevel" stroke-miterlimit="10" stroke-dasharray=""/><text fill="rgb(68,68,68)" stroke="none" font-family="helvetica" font-size="35pt" font-style="normal" font-weight="normal" text-decoration="normal" x="129" y="556.7024739583333" text-anchor="start" dominant-baseline="alphabetic" transform="matrix(1, 0, 0, 1, 0.5, 0.5)" fill-opacity="1">0</text><text fill="rgb(68,68,68)" stroke="none" font-family="helvetica" font-size="35pt" font-style="normal" font-weight="normal" text-decoration="normal" x="103" y="474.15703328450525" text-anchor="start" dominant-baseline="alphabetic" transform="matrix(1, 0, 0, 1, 0.5, 0.5)" fill-opacity="1">20</text><text fill="rgb(68,68,68)" stroke="none" font-family="helvetica" font-size="35pt" font-style="normal" font-weight="normal" text-decoration="normal" x="103" y="391.611562093099" text-anchor="start" dominant-baseline="alphabetic" transform="matrix(1, 0, 0, 1, 0.5, 0.5)" fill-opacity="1">40</text><text fill="rgb(68,68,68)" stroke="none" font-family="helvetica" font-size="35pt" font-style="normal" font-weight="normal" text-decoration="normal" x="103" y="309.06612141927087" text-anchor="start" dominant-baseline="alphabetic" transform="matrix(1, 0, 0, 1, 0.5, 0.5)" fill-opacity="1">60</text><text fill="rgb(68,68,68)" stroke="none" font-family="helvetica" font-size="35pt" font-style="normal" font-weight="normal" text-decoration="normal" x="103" y="226.52065022786456" text-anchor="start" dominant-baseline="alphabetic" transform="matrix(1, 0, 0, 1, 0.5, 0.5)" fill-opacity="1">80</text><text fill="rgb(68,68,68)" stroke="none" font-family="helvetica" font-size="35pt" font-style="normal" font-weight="normal" text-decoration="normal" x="77" y="143.97520192464194" text-anchor="start" dominant-baseline="alphabetic" transform="matrix(1, 0, 0, 1, 0.5, 0.5)" fill-opacity="1">100</text><text fill="rgb(68,68,68)" stroke="none" font-family="helvetica" font-size="45pt" font-style="normal" font-weight="normal" text-decoration="normal" x="-83.5" y="300.373046875" text-anchor="start" dominant-baseline="alphabetic" transform="matrix(6.123233995736766e-17, -1, 1, 6.123233995736766e-17, -243.5, 382.5)" fill-opacity="1">Percentage</text><path fill="rgb(255,255,255)" stroke="rgb(229,229,229)" paint-order="fill" d="M 366.5 -146.15690104166666 L 766.5 -146.15690104166666 L 766.5 -74.5 L 366.5 -74.5 L 366.5 -146.15690104166666" fill-opacity="0.9490196078431372" clip-path="url(#eEImOphsCvPG)" stroke-opacity="0.5019607843137255" stroke-linejoin="bevel" stroke-miterlimit="10" stroke-dasharray=""/><g clip-path="url(#eEImOphsCvPG)"><text fill="rgb(68,68,68)" stroke="none" font-family="helvetica" font-size="35pt" font-style="normal" font-weight="normal" text-decoration="normal" x="401" y="-110.82845052083333" text-anchor="start" dominant-baseline="central" transform="matrix(1, 0, 0, 1, 0.5, 0.5)" fill-opacity="1">E. coli</text></g><path fill="rgb(32,178,170)" stroke="rgb(32,178,170)" paint-order="fill" d="M 378.5 -134.15690104166666 L 394.5 -134.15690104166666 L 394.5 -118.15690104166666 L 378.5 -118.15690104166666 L 378.5 -134.15690104166666" fill-opacity="1" clip-path="url(#eEImOphsCvPG)" stroke-opacity="1" stroke-linejoin="bevel" stroke-miterlimit="10" stroke-dasharray=""/><g clip-path="url(#eEImOphsCvPG)"><text fill="rgb(68,68,68)" stroke="none" font-family="helvetica" font-size="35pt" font-style="normal" font-weight="normal" text-decoration="normal" x="556" y="-110.82845052083333" text-anchor="start" dominant-baseline="central" transform="matrix(1, 0, 0, 1, 0.5, 0.5)" fill-opacity="1">B. subtilis</text></g><path fill="rgb(255,160,122)" stroke="rgb(255,160,122)" paint-order="fill" d="M 533.5 -134.15690104166666 L 549.5 -134.15690104166666 L 549.5 -118.15690104166666 L 533.5 -118.15690104166666 L 533.5 -134.15690104166666" fill-opacity="1" clip-path="url(#eEImOphsCvPG)" stroke-opacity="1" stroke-linejoin="bevel" stroke-miterlimit="10" stroke-dasharray=""/><text fill="rgb(68,68,68)" stroke="none" font-family="helvetica" font-size="50pt" font-style="normal" font-weight="bold" text-decoration="normal" x="264" y="66.97005208333334" text-anchor="start" dominant-baseline="alphabetic" transform="matrix(1, 0, 0, 1, 0.5, 0.5)" fill-opacity="1">Percent Reads Mapping to Each Genome</text></svg>