<svg version="1.1" xmlns="http://www.w3.org/2000/svg" width="1700" height="700"><defs><clipPath id="gNmaDEOgpQhF"><path fill="none" stroke="none" d="M 166.5 86.5 L 1670.5 86.5 L 1670.5 540.5 L 166.5 540.5 L 166.5 86.5"/></clipPath><clipPath id="TloxJiwQThZy"><path fill="none" stroke="none" d="M 166.5 86.5 L 1670.5 86.5 L 1670.5 540.5 L 166.5 540.5 L 166.5 86.5"/></clipPath><clipPath id="DEDpwuXyLdvT"><path fill="none" stroke="none" d="M 166.5 86.5 L 1670.5 86.5 L 1670.5 540.5 L 166.5 540.5 L 166.5 86.5"/></clipPath><clipPath id="DRZxqFIuImDN"><path fill="none" stroke="none" d="M 166.5 86.5 L 1670.5 86.5 L 1670.5 540.5 L 166.5 540.5 L 166.5 86.5"/></clipPath><clipPath id="DThNVJeKhSQw"><path fill="none" stroke="none" d="M 166.5 86.5 L 1670.5 86.5 L 1670.5 540.5 L 166.5 540.5 L 166.5 86.5"/></clipPath><clipPath id="iSedaTiqqXzF"><path fill="none" stroke="none" d="M 166.5 86.5 L 1670.5 86.5 L 1670.5 540.5 L 166.5 540.5 L 166.5 86.5"/></clipPath><clipPath id="yzeIHkUILzbo"><path fill="none" stroke="none" d="M 166.5 86.5 L 1670.5 86.5 L 1670.5 540.5 L 166.5 540.5 L 166.5 86.5"/></clipPath></defs><path fill="rgb(255,255,255)" stroke="none" paint-order="stroke" d="M 0.5 0.5 L 1700.5 0.5 L 1700.5 700.5 L 0.5 700.5 L 0.5 0.5" fill-opacity="1"/><rect fill="#FFFFFF" stroke="none" x="166" y="86" width="1504" height="454" transform="matrix(1, 0, 0, 1, 0.5, 0.5)"/><path fill="rgb(255,255,255)" stroke="none" paint-order="stroke" d="M 166.5 86.5 L 1670.5 86.5 L 1670.5 540.5 L 166.5 540.5 L 166.5 86.5" fill-opacity="1"/><path fill="none" stroke="rgb(229,229,229)" paint-order="fill" d="M 166.5 457.5 L 1670.5 457.5 M 166.5 375.5 L 1670.5 375.5 M 166.5 292.5 L 1670.5 292.5 M 166.5 210.5 L 1670.5 210.5 M 166.5 127.5 L 1670.5 127.5" stroke-opacity="1" stroke-linejoin="bevel" stroke-miterlimit="10" stroke-dasharray="" clip-path="url(#TloxJiwQThZy)"/><path fill="rgb(32,178,170)" stroke="rgb(32,178,170)" paint-order="fill" d="M 248.536376953125 176.4148712158203 L 494.64544677734375 176.4148712158203 L 494.64544677734375 540.5 L 248.536376953125 540.5 L 248.536376953125 176.4148712158203" fill-opacity="1" clip-path="url(#DEDpwuXyLdvT)" stroke-opacity="1" stroke-linejoin="bevel" stroke-miterlimit="10" stroke-dasharray=""/><path fill="rgb(32,178,170)" stroke="rgb(32,178,170)" paint-order="fill" d="M 521.9909057617188 127.7926254272461 L 768.1000366210938 127.7926254272461 L 768.1000366210938 540.5 L 521.9909057617188 540.5 L 521.9909057617188 127.7926254272461" fill-opacity="1" clip-path="url(#DEDpwuXyLdvT)" stroke-opacity="1" stroke-linejoin="bevel" stroke-miterlimit="10" stroke-dasharray=""/><path fill="rgb(32,178,170)" stroke="rgb(32,178,170)" paint-order="fill" d="M 795.4454345703125 539.9429931640625 L 1041.5545654296875 539.9429931640625 L 1041.5545654296875 540.5 L 795.4454345703125 540.5 L 795.4454345703125 539.9429931640625" fill-opacity="1" clip-path="url(#DEDpwuXyLdvT)" stroke-opacity="1" stroke-linejoin="bevel" stroke-miterlimit="10" stroke-dasharray=""/><path fill="rgb(32,178,170)" stroke="rgb(32,178,170)" paint-order="fill" d="M 1068.9000244140625 127.8189697265625 L 1315.0091552734375 127.8189697265625 L 1315.0091552734375 540.5 L 1068.9000244140625 540.5 L 1068.9000244140625 127.8189697265625" fill-opacity="1" clip-path="url(#DEDpwuXyLdvT)" stroke-opacity="1" stroke-linejoin="bevel" stroke-miterlimit="10" stroke-dasharray=""/><path fill="rgb(32,178,170)" stroke="rgb(32,178,170)" paint-order="fill" d="M 1342.3544921875 127.94535827636719 L 1588.463623046875 127.94535827636719 L 1588.463623046875 540.5 L 1342.3544921875 540.5 L 1342.3544921875 127.94535827636719" fill-opacity="1" clip-path="url(#DEDpwuXyLdvT)" stroke-opacity="1" stroke-linejoin="bevel" stroke-miterlimit="10" stroke-dasharray=""/><path fill="rgb(255,160,122)" stroke="rgb(255,160,122)" paint-order="fill" d="M 248.536376953125 127.7727279663086 L 494.64544677734375 127.7727279663086 L 494.64544677734375 176.4148712158203 L 248.536376953125 176.4148712158203 L 248.536376953125 127.7727279663086" fill-opacity="1" clip-path="url(#DRZxqFIuImDN)" stroke-opacity="1" stroke-linejoin="bevel" stroke-miterlimit="10" stroke-dasharray=""/><path fill="rgb(255,160,122)" stroke="rgb(255,160,122)" paint-order="fill" d="M 521.9909057617188 127.7727279663086 L 768.1000366210938 127.7727279663086 L 768.1000366210938 127.7926254272461 L 521.9909057617188 127.7926254272461 L 521.9909057617188 127.7727279663086" fill-opacity="1" clip-path="url(#DRZxqFIuImDN)" stroke-opacity="1" stroke-linejoin="bevel" stroke-miterlimit="10" stroke-dasharray=""/><path fill="rgb(255,160,122)" stroke="rgb(255,160,122)" paint-order="fill" d="M 795.4454345703125 127.7727279663086 L 1041.5545654296875 127.7727279663086 L 1041.5545654296875 539.9429931640625 L 795.4454345703125 539.9429931640625 L 795.4454345703125 127.7727279663086" fill-opacity="1" clip-path="url(#DRZxqFIuImDN)" stroke-opacity="1" stroke-linejoin="bevel" stroke-miterlimit="10" stroke-dasharray=""/><path fill="rgb(255,160,122)" stroke="rgb(255,160,122)" paint-order="fill" d="M 1068.9000244140625 127.7727279663086 L 1315.0091552734375 127.7727279663086 L 1315.0091552734375 127.8189697265625 L 1068.9000244140625 127.8189697265625 L 1068.9000244140625 127.7727279663086" fill-opacity="1" clip-path="url(#DRZxqFIuImDN)" stroke-opacity="1" stroke-linejoin="bevel" stroke-miterlimit="10" stroke-dasharray=""/><path fill="rgb(255,160,122)" stroke="rgb(255,160,122)" paint-order="fill" d="M 1342.3544921875 127.7727279663086 L 1588.463623046875 127.7727279663086 L 1588.463623046875 127.94535827636719 L 1342.3544921875 127.94535827636719 L 1342.3544921875 127.7727279663086" fill-opacity="1" clip-path="url(#DRZxqFIuImDN)" stroke-opacity="1" stroke-linejoin="bevel" stroke-miterlimit="10" stroke-dasharray=""/><g clip-path="url(#DThNVJeKhSQw)"><text fill="rgb(0,0,0)" stroke="none" font-family="arial" font-size="35pt" font-style="normal" font-weight="normal" text-decoration="normal" x="0" y="-61.98828124999999" text-anchor="middle" dominant-baseline="text-after-edge" transform="matrix(1, 0, 0, 1, 371.5909118652344, 499.2272644042969)" fill-opacity="1">11.785%</text></g><g clip-path="url(#DThNVJeKhSQw)"><text fill="rgb(0,0,0)" stroke="none" font-family="arial" font-size="35pt" font-style="normal" font-weight="normal" text-decoration="normal" x="0" y="0" text-anchor="middle" dominant-baseline="text-after-edge" transform="matrix(1, 0, 0, 1, 371.5909118652344, 499.2272644042969)" fill-opacity="1">B. sub</text></g><g clip-path="url(#DThNVJeKhSQw)"><text fill="rgb(0,0,0)" stroke="none" font-family="arial" font-size="35pt" font-style="normal" font-weight="normal" text-decoration="normal" x="0" y="-61.98828124999999" text-anchor="middle" dominant-baseline="text-after-edge" transform="matrix(1, 0, 0, 1, 645.0454711914062, 499.2272644042969)" fill-opacity="1">0.004%</text></g><g clip-path="url(#DThNVJeKhSQw)"><text fill="rgb(0,0,0)" stroke="none" font-family="arial" font-size="35pt" font-style="normal" font-weight="normal" text-decoration="normal" x="0" y="0" text-anchor="middle" dominant-baseline="text-after-edge" transform="matrix(1, 0, 0, 1, 645.0454711914062, 499.2272644042969)" fill-opacity="1">B. sub</text></g><g clip-path="url(#DThNVJeKhSQw)"><text fill="rgb(0,0,0)" stroke="none" font-family="arial" font-size="35pt" font-style="normal" font-weight="normal" text-decoration="normal" x="0" y="-61.98828124999999" text-anchor="middle" dominant-baseline="text-after-edge" transform="matrix(1, 0, 0, 1, 918.5, 499.2272644042969)" fill-opacity="1">99.865%</text></g><g clip-path="url(#DThNVJeKhSQw)"><text fill="rgb(0,0,0)" stroke="none" font-family="arial" font-size="35pt" font-style="normal" font-weight="normal" text-decoration="normal" x="0" y="0" text-anchor="middle" dominant-baseline="text-after-edge" transform="matrix(1, 0, 0, 1, 918.5, 499.2272644042969)" fill-opacity="1">B. sub</text></g><g clip-path="url(#DThNVJeKhSQw)"><text fill="rgb(0,0,0)" stroke="none" font-family="arial" font-size="35pt" font-style="normal" font-weight="normal" text-decoration="normal" x="0" y="-61.98828124999999" text-anchor="middle" dominant-baseline="text-after-edge" transform="matrix(1, 0, 0, 1, 1191.95458984375, 499.2272644042969)" fill-opacity="1">0.011%</text></g><g clip-path="url(#DThNVJeKhSQw)"><text fill="rgb(0,0,0)" stroke="none" font-family="arial" font-size="35pt" font-style="normal" font-weight="normal" text-decoration="normal" x="0" y="0" text-anchor="middle" dominant-baseline="text-after-edge" transform="matrix(1, 0, 0, 1, 1191.95458984375, 499.2272644042969)" fill-opacity="1">B. sub</text></g><g clip-path="url(#DThNVJeKhSQw)"><text fill="rgb(0,0,0)" stroke="none" font-family="arial" font-size="35pt" font-style="normal" font-weight="normal" text-decoration="normal" x="0" y="-61.98828124999999" text-anchor="middle" dominant-baseline="text-after-edge" transform="matrix(1, 0, 0, 1, 1465.4090576171875, 499.2272644042969)" fill-opacity="1">0.041%</text></g><g clip-path="url(#DThNVJeKhSQw)"><text fill="rgb(0,0,0)" stroke="none" font-family="arial" font-size="35pt" font-style="normal" font-weight="normal" text-decoration="normal" x="0" y="0" text-anchor="middle" dominant-baseline="text-after-edge" transform="matrix(1, 0, 0, 1, 1465.4090576171875, 499.2272644042969)" fill-opacity="1">B. sub</text></g><path fill="none" stroke="rgb(0,0,0)" paint-order="fill" d="M 166.5 540.5 L 1670.5 540.5" stroke-opacity="1" stroke-linejoin="bevel" stroke-miterlimit="10" stroke-dasharray=""/><path fill="none" stroke="rgb(0,0,0)" paint-order="fill" d="M 371.5 546.5 L 371.5 538.5 M 645.5 546.5 L 645.5 538.5 M 918.5 546.5 L 918.5 538.5 M 1191.5 546.5 L 1191.5 538.5 M 1465.5 546.5 L 1465.5 538.5" stroke-opacity="1" stroke-linejoin="bevel" stroke-miterlimit="10" stroke-dasharray=""/><text fill="rgb(68,68,68)" stroke="none" font-family="arial" font-size="45pt" font-style="normal" font-weight="normal" text-decoration="normal" x="273.5909118652344" y="604.7890625" text-anchor="start" dominant-baseline="alphabetic" transform="matrix(1, 0, 0, 1, 0.5, 0.5)" fill-opacity="1">Mixture</text><text fill="rgb(68,68,68)" stroke="none" font-family="arial" font-size="45pt" font-style="normal" font-weight="normal" text-decoration="normal" x="284.70758056640625" y="684.48828125" text-anchor="start" dominant-baseline="alphabetic" transform="matrix(1, 0, 0, 1, 0.5, 0.5)" fill-opacity="1">Lysate</text><text fill="rgb(68,68,68)" stroke="none" font-family="arial" font-size="45pt" font-style="normal" font-weight="normal" text-decoration="normal" x="547.0454711914062" y="604.7890625" text-anchor="start" dominant-baseline="alphabetic" transform="matrix(1, 0, 0, 1, 0.5, 0.5)" fill-opacity="1">Mixture</text><text fill="rgb(68,68,68)" stroke="none" font-family="arial" font-size="45pt" font-style="normal" font-weight="normal" text-decoration="normal" x="535.5454711914062" y="684.48828125" text-anchor="start" dominant-baseline="alphabetic" transform="matrix(1, 0, 0, 1, 0.5, 0.5)" fill-opacity="1">Capsule</text><text fill="rgb(68,68,68)" stroke="none" font-family="arial" font-size="45pt" font-style="normal" font-weight="normal" text-decoration="normal" x="790" y="604.7890625" text-anchor="start" dominant-baseline="alphabetic" transform="matrix(1, 0, 0, 1, 0.5, 0.5)" fill-opacity="1">B. subtilis</text><text fill="rgb(68,68,68)" stroke="none" font-family="arial" font-size="45pt" font-style="normal" font-weight="normal" text-decoration="normal" x="831.6166687011719" y="684.48828125" text-anchor="start" dominant-baseline="alphabetic" transform="matrix(1, 0, 0, 1, 0.5, 0.5)" fill-opacity="1">Lysate</text><text fill="rgb(68,68,68)" stroke="none" font-family="arial" font-size="45pt" font-style="normal" font-weight="normal" text-decoration="normal" x="1109.95458984375" y="604.7890625" text-anchor="start" dominant-baseline="alphabetic" transform="matrix(1, 0, 0, 1, 0.5, 0.5)" fill-opacity="1">E. coli</text><text fill="rgb(68,68,68)" stroke="none" font-family="arial" font-size="45pt" font-style="normal" font-weight="normal" text-decoration="normal" x="1082.45458984375" y="684.48828125" text-anchor="start" dominant-baseline="alphabetic" transform="matrix(1, 0, 0, 1, 0.5, 0.5)" fill-opacity="1">Capsule</text><text fill="rgb(68,68,68)" stroke="none" font-family="arial" font-size="45pt" font-style="normal" font-weight="normal" text-decoration="normal" x="1383.4090576171875" y="604.7890625" text-anchor="start" dominant-baseline="alphabetic" transform="matrix(1, 0, 0, 1, 0.5, 0.5)" fill-opacity="1">E. coli</text><text fill="rgb(68,68,68)" stroke="none" font-family="arial" font-size="45pt" font-style="normal" font-weight="normal" text-decoration="normal" x="1378.5257263183594" y="684.48828125" text-anchor="start" dominant-baseline="alphabetic" transform="matrix(1, 0, 0, 1, 0.5, 0.5)" fill-opacity="1">Lysate</text><path fill="none" stroke="rgb(0,0,0)" paint-order="fill" d="M 166.5 540.5 L 166.5 86.5" stroke-opacity="1" stroke-linejoin="bevel" stroke-miterlimit="10" stroke-dasharray=""/><path fill="none" stroke="rgb(0,0,0)" paint-order="fill" d="M 160.5 540.5 L 168.5 540.5 M 160.5 457.5 L 168.5 457.5 M 160.5 375.5 L 168.5 375.5 M 160.5 292.5 L 168.5 292.5 M 160.5 210.5 L 168.5 210.5 M 160.5 127.5 L 168.5 127.5" stroke-opacity="1" stroke-linejoin="bevel" stroke-miterlimit="10" stroke-dasharray=""/><text fill="rgb(68,68,68)" stroke="none" font-family="helvetica" font-size="35pt" font-style="normal" font-weight="normal" text-decoration="normal" x="129" y="556.7024739583333" text-anchor="start" dominant-baseline="alphabetic" transform="matrix(1, 0, 0, 1, 0.5, 0.5)" fill-opacity="1">0</text><text fill="rgb(68,68,68)" stroke="none" font-family="helvetica" font-size="35pt" font-style="normal" font-weight="normal" text-decoration="normal" x="103" y="474.15703328450525" text-anchor="start" dominant-baseline="alphabetic" transform="matrix(1, 0, 0, 1, 0.5, 0.5)" fill-opacity="1">20</text><text fill="rgb(68,68,68)" stroke="none" font-family="helvetica" font-size="35pt" font-style="normal" font-weight="normal" text-decoration="normal" x="103" y="391.611562093099" text-anchor="start" dominant-baseline="alphabetic" transform="matrix(1, 0, 0, 1, 0.5, 0.5)" fill-opacity="1">40</text><text fill="rgb(68,68,68)" stroke="none" font-family="helvetica" font-size="35pt" font-style="normal" font-weight="normal" text-decoration="normal" x="103" y="309.06612141927087" text-anchor="start" dominant-baseline="alphabetic" transform="matrix(1, 0, 0, 1, 0.5, 0.5)" fill-opacity="1">60</text><text fill="rgb(68,68,68)" stroke="none" font-family="helvetica" font-size="35pt" font-style="normal" font-weight="normal" text-decoration="normal" x="103" y="226.52065022786456" text-anchor="start" dominant-baseline="alphabetic" transform="matrix(1, 0, 0, 1, 0.5, 0.5)" fill-opacity="1">80</text><text fill="rgb(68,68,68)" stroke="none" font-family="helvetica" font-size="35pt" font-style="normal" font-weight="normal" text-decoration="normal" x="77" y="143.97520192464194" text-anchor="start" dominant-baseline="alphabetic" transform="matrix(1, 0, 0, 1, 0.5, 0.5)" fill-opacity="1">100</text><text fill="rgb(68,68,68)" stroke="none" font-family="helvetica" font-size="45pt" font-style="normal" font-weight="normal" text-decoration="normal" x="-83.5" y="300.373046875" text-anchor="start" dominant-baseline="alphabetic" transform="matrix(6.123233995736766e-17, -1, 1, 6.123233995736766e-17, -243.5, 382.5)" fill-opacity="1">Percentage</text><path fill="rgb(255,255,255)" stroke="rgb(229,229,229)" paint-order="fill" d="M 366.5 -146.15690104166666 L 766.5 -146.15690104166666 L 766.5 -74.5 L 366.5 -74.5 L 366.5 -146.15690104166666" fill-opacity="0.9490196078431372" clip-path="url(#iSedaTiqqXzF)" stroke-opacity="0.5019607843137255" stroke-linejoin="bevel" stroke-miterlimit="10" stroke-dasharray=""/><g clip-path="url(#iSedaTiqqXzF)"><text fill="rgb(68,68,68)" stroke="none" font-family="helvetica" font-size="35pt" font-style="normal" font-weight="normal" text-decoration="normal" x="401" y="-110.82845052083333" text-anchor="start" dominant-baseline="central" transform="matrix(1, 0, 0, 1, 0.5, 0.5)" fill-opacity="1">E. coli</text></g><path fill="rgb(32,178,170)" stroke="rgb(32,178,170)" paint-order="fill" d="M 378.5 -134.15690104166666 L 394.5 -134.15690104166666 L 394.5 -118.15690104166666 L 378.5 -118.15690104166666 L 378.5 -134.15690104166666" fill-opacity="1" clip-path="url(#iSedaTiqqXzF)" stroke-opacity="1" stroke-linejoin="bevel" stroke-miterlimit="10" stroke-dasharray=""/><g clip-path="url(#iSedaTiqqXzF)"><text fill="rgb(68,68,68)" stroke="none" font-family="helvetica" font-size="35pt" font-style="normal" font-weight="normal" text-decoration="normal" x="556" y="-110.82845052083333" text-anchor="start" dominant-baseline="central" transform="matrix(1, 0, 0, 1, 0.5, 0.5)" fill-opacity="1">B. subtilis</text></g><path fill="rgb(255,160,122)" stroke="rgb(255,160,122)" paint-order="fill" d="M 533.5 -134.15690104166666 L 549.5 -134.15690104166666 L 549.5 -118.15690104166666 L 533.5 -118.15690104166666 L 533.5 -134.15690104166666" fill-opacity="1" clip-path="url(#iSedaTiqqXzF)" stroke-opacity="1" stroke-linejoin="bevel" stroke-miterlimit="10" stroke-dasharray=""/><text fill="rgb(68,68,68)" stroke="none" font-family="helvetica" font-size="50pt" font-style="normal" font-weight="bold" text-decoration="normal" x="264" y="66.97005208333334" text-anchor="start" dominant-baseline="alphabetic" transform="matrix(1, 0, 0, 1, 0.5, 0.5)" fill-opacity="1">Percent Reads Mapping to Each Genome</text></svg>