<svg version="1.1" xmlns="http://www.w3.org/2000/svg" width="775" height="775"><defs><clipPath id="IbGiLJhFToxM"><path fill="none" stroke="none" d="M 143.5 5.5 L 745.5 5.5 L 745.5 690.5 L 143.5 690.5 L 143.5 5.5"/></clipPath><clipPath id="cqCnxfxcOcEt"><path fill="none" stroke="none" d="M 143.5 5.5 L 745.5 5.5 L 745.5 690.5 L 143.5 690.5 L 143.5 5.5"/></clipPath><clipPath id="lXZVhitCKxmp"><path fill="none" stroke="none" d="M 143.5 5.5 L 745.5 5.5 L 745.5 690.5 L 143.5 690.5 L 143.5 5.5"/></clipPath><clipPath id="JSrSUwfafDEC"><path fill="none" stroke="none" d="M 143.5 5.5 L 745.5 5.5 L 745.5 690.5 L 143.5 690.5 L 143.5 5.5"/></clipPath><clipPath id="NlvDkeEJfPgg"><path fill="none" stroke="none" d="M 143.5 5.5 L 745.5 5.5 L 745.5 690.5 L 143.5 690.5 L 143.5 5.5"/></clipPath><clipPath id="pvfyEZyyHTBo"><path fill="none" stroke="none" d="M 143.5 5.5 L 745.5 5.5 L 745.5 690.5 L 143.5 690.5 L 143.5 5.5"/></clipPath><clipPath id="wDeSfGsRqWPI"><path fill="none" stroke="none" d="M 143.5 5.5 L 745.5 5.5 L 745.5 690.5 L 143.5 690.5 L 143.5 5.5"/></clipPath><clipPath id="uUHXbwcxPXrx"><path fill="none" stroke="none" d="M 143.5 5.5 L 745.5 5.5 L 745.5 690.5 L 143.5 690.5 L 143.5 5.5"/></clipPath><clipPath id="zSHFtTTTlQWH"><path fill="none" stroke="none" d="M 143.5 5.5 L 745.5 5.5 L 745.5 690.5 L 143.5 690.5 L 143.5 5.5"/></clipPath><clipPath id="CETBqFGlFafJ"><path fill="none" stroke="none" d="M 143.5 5.5 L 745.5 5.5 L 745.5 690.5 L 143.5 690.5 L 143.5 5.5"/></clipPath><clipPath id="VbxLMzAcDNQt"><path fill="none" stroke="none" d="M 143.5 5.5 L 745.5 5.5 L 745.5 690.5 L 143.5 690.5 L 143.5 5.5"/></clipPath><clipPath id="vExfFoWgdcSC"><path fill="none" stroke="none" d="M 143.5 5.5 L 745.5 5.5 L 745.5 690.5 L 143.5 690.5 L 143.5 5.5"/></clipPath></defs><path fill="rgb(255,255,255)" stroke="none" paint-order="stroke" d="M 0.5 0.5 L 775.5 0.5 L 775.5 775.5 L 0.5 775.5 L 0.5 0.5" fill-opacity="1"/><rect fill="#FFFFFF" stroke="none" x="143" y="5" width="602" height="685" transform="matrix(1, 0, 0, 1, 0.5, 0.5)"/><path fill="rgb(255,255,255)" stroke="none" paint-order="stroke" d="M 143.5 5.5 L 745.5 5.5 L 745.5 690.5 L 143.5 690.5 L 143.5 5.5" fill-opacity="1"/><path fill="none" stroke="rgb(229,229,229)" paint-order="fill" d="M 143.5 5.5 L 745.5 5.5 L 745.5 690.5 L 143.5 690.5 L 143.5 5.5" stroke-opacity="1" stroke-linejoin="bevel" stroke-miterlimit="10" stroke-dasharray=""/><path fill="none" stroke="rgb(107,142,35)" paint-order="fill" d="M 170.86363220214844 613.9546508789062 L 281.70367431640625 494.6200256347656 L 392.5437316894531 363.4072570800781 L 482.60125732421875 255.32794189453125 L 579.5863037109375 138.5327606201172 L 635.00634765625 75.10237121582031" stroke-opacity="1" stroke-linejoin="bevel" stroke-miterlimit="10" stroke-width="5" stroke-dasharray="" clip-path="url(#lXZVhitCKxmp)"/><path fill="rgb(107,142,35)" stroke="rgb(107,142,35)" paint-order="fill" d="M 175.86363220214844 613.9546508789062 A 5 5 0 0 1 165.86363220214844 613.9546508789062 A 5 5 0 0 1 175.86363220214844 613.9546508789062" fill-opacity="1" clip-path="url(#JSrSUwfafDEC)" stroke-opacity="1" stroke-linejoin="bevel" stroke-miterlimit="10" stroke-dasharray=""/><path fill="rgb(107,142,35)" stroke="rgb(107,142,35)" paint-order="fill" d="M 286.70367431640625 494.6200256347656 A 5 5 0 0 1 276.70367431640625 494.6200256347656 A 5 5 0 0 1 286.70367431640625 494.6200256347656" fill-opacity="1" clip-path="url(#JSrSUwfafDEC)" stroke-opacity="1" stroke-linejoin="bevel" stroke-miterlimit="10" stroke-dasharray=""/><path fill="rgb(107,142,35)" stroke="rgb(107,142,35)" paint-order="fill" d="M 397.5437316894531 363.4072570800781 A 5 5 0 0 1 387.5437316894531 363.4072570800781 A 5 5 0 0 1 397.5437316894531 363.4072570800781" fill-opacity="1" clip-path="url(#JSrSUwfafDEC)" stroke-opacity="1" stroke-linejoin="bevel" stroke-miterlimit="10" stroke-dasharray=""/><path fill="rgb(107,142,35)" stroke="rgb(107,142,35)" paint-order="fill" d="M 487.60125732421875 255.32794189453125 A 5 5 0 0 1 477.60125732421875 255.32794189453125 A 5 5 0 0 1 487.60125732421875 255.32794189453125" fill-opacity="1" clip-path="url(#JSrSUwfafDEC)" stroke-opacity="1" stroke-linejoin="bevel" stroke-miterlimit="10" stroke-dasharray=""/><path fill="rgb(107,142,35)" stroke="rgb(107,142,35)" paint-order="fill" d="M 584.5863037109375 138.5327606201172 A 5 5 0 0 1 574.5863037109375 138.5327606201172 A 5 5 0 0 1 584.5863037109375 138.5327606201172" fill-opacity="1" clip-path="url(#JSrSUwfafDEC)" stroke-opacity="1" stroke-linejoin="bevel" stroke-miterlimit="10" stroke-dasharray=""/><path fill="rgb(107,142,35)" stroke="rgb(107,142,35)" paint-order="fill" d="M 640.00634765625 75.10237121582031 A 5 5 0 0 1 630.00634765625 75.10237121582031 A 5 5 0 0 1 640.00634765625 75.10237121582031" fill-opacity="1" clip-path="url(#JSrSUwfafDEC)" stroke-opacity="1" stroke-linejoin="bevel" stroke-miterlimit="10" stroke-dasharray=""/><path fill="none" stroke="rgb(72,209,204)" paint-order="fill" d="M 170.86363220214844 624.5197143554688 L 281.70367431640625 488.4463195800781 L 392.5437316894531 352.8421936035156 L 482.60125732421875 246.35801696777344 L 579.5863037109375 133.00518798828125 L 635.00634765625 67.72384643554688" stroke-opacity="1" stroke-linejoin="bevel" stroke-miterlimit="10" stroke-width="5" stroke-dasharray="" clip-path="url(#NlvDkeEJfPgg)"/><path fill="rgb(72,209,204)" stroke="rgb(72,209,204)" paint-order="fill" d="M 175.86363220214844 624.5197143554688 A 5 5 0 0 1 165.86363220214844 624.5197143554688 A 5 5 0 0 1 175.86363220214844 624.5197143554688" fill-opacity="1" clip-path="url(#pvfyEZyyHTBo)" stroke-opacity="1" stroke-linejoin="bevel" stroke-miterlimit="10" stroke-dasharray=""/><path fill="rgb(72,209,204)" stroke="rgb(72,209,204)" paint-order="fill" d="M 286.70367431640625 488.4463195800781 A 5 5 0 0 1 276.70367431640625 488.4463195800781 A 5 5 0 0 1 286.70367431640625 488.4463195800781" fill-opacity="1" clip-path="url(#pvfyEZyyHTBo)" stroke-opacity="1" stroke-linejoin="bevel" stroke-miterlimit="10" stroke-dasharray=""/><path fill="rgb(72,209,204)" stroke="rgb(72,209,204)" paint-order="fill" d="M 397.5437316894531 352.8421936035156 A 5 5 0 0 1 387.5437316894531 352.8421936035156 A 5 5 0 0 1 397.5437316894531 352.8421936035156" fill-opacity="1" clip-path="url(#pvfyEZyyHTBo)" stroke-opacity="1" stroke-linejoin="bevel" stroke-miterlimit="10" stroke-dasharray=""/><path fill="rgb(72,209,204)" stroke="rgb(72,209,204)" paint-order="fill" d="M 487.60125732421875 246.35801696777344 A 5 5 0 0 1 477.60125732421875 246.35801696777344 A 5 5 0 0 1 487.60125732421875 246.35801696777344" fill-opacity="1" clip-path="url(#pvfyEZyyHTBo)" stroke-opacity="1" stroke-linejoin="bevel" stroke-miterlimit="10" stroke-dasharray=""/><path fill="rgb(72,209,204)" stroke="rgb(72,209,204)" paint-order="fill" d="M 584.5863037109375 133.00518798828125 A 5 5 0 0 1 574.5863037109375 133.00518798828125 A 5 5 0 0 1 584.5863037109375 133.00518798828125" fill-opacity="1" clip-path="url(#pvfyEZyyHTBo)" stroke-opacity="1" stroke-linejoin="bevel" stroke-miterlimit="10" stroke-dasharray=""/><path fill="rgb(72,209,204)" stroke="rgb(72,209,204)" paint-order="fill" d="M 640.00634765625 67.72384643554688 A 5 5 0 0 1 630.00634765625 67.72384643554688 A 5 5 0 0 1 640.00634765625 67.72384643554688" fill-opacity="1" clip-path="url(#pvfyEZyyHTBo)" stroke-opacity="1" stroke-linejoin="bevel" stroke-miterlimit="10" stroke-dasharray=""/><path fill="none" stroke="rgb(128,0,0)" paint-order="fill" d="M 170.86363220214844 635.5762939453125 L 281.70367431640625 550.8037109375 L 371.76123046875 459.7760925292969 L 468.7462463378906 394.11761474609375 L 607.2963256835938 274.3520812988281 L 711.2088623046875 184.6787567138672" stroke-opacity="1" stroke-linejoin="bevel" stroke-miterlimit="10" stroke-width="5" stroke-dasharray="" clip-path="url(#wDeSfGsRqWPI)"/><path fill="rgb(128,0,0)" stroke="rgb(128,0,0)" paint-order="fill" d="M 175.86363220214844 635.5762939453125 A 5 5 0 0 1 165.86363220214844 635.5762939453125 A 5 5 0 0 1 175.86363220214844 635.5762939453125" fill-opacity="1" clip-path="url(#uUHXbwcxPXrx)" stroke-opacity="1" stroke-linejoin="bevel" stroke-miterlimit="10" stroke-dasharray=""/><path fill="rgb(128,0,0)" stroke="rgb(128,0,0)" paint-order="fill" d="M 286.70367431640625 550.8037109375 A 5 5 0 0 1 276.70367431640625 550.8037109375 A 5 5 0 0 1 286.70367431640625 550.8037109375" fill-opacity="1" clip-path="url(#uUHXbwcxPXrx)" stroke-opacity="1" stroke-linejoin="bevel" stroke-miterlimit="10" stroke-dasharray=""/><path fill="rgb(128,0,0)" stroke="rgb(128,0,0)" paint-order="fill" d="M 376.76123046875 459.7760925292969 A 5 5 0 0 1 366.76123046875 459.7760925292969 A 5 5 0 0 1 376.76123046875 459.7760925292969" fill-opacity="1" clip-path="url(#uUHXbwcxPXrx)" stroke-opacity="1" stroke-linejoin="bevel" stroke-miterlimit="10" stroke-dasharray=""/><path fill="rgb(128,0,0)" stroke="rgb(128,0,0)" paint-order="fill" d="M 473.7462463378906 394.11761474609375 A 5 5 0 0 1 463.7462463378906 394.11761474609375 A 5 5 0 0 1 473.7462463378906 394.11761474609375" fill-opacity="1" clip-path="url(#uUHXbwcxPXrx)" stroke-opacity="1" stroke-linejoin="bevel" stroke-miterlimit="10" stroke-dasharray=""/><path fill="rgb(128,0,0)" stroke="rgb(128,0,0)" paint-order="fill" d="M 612.2963256835938 274.3520812988281 A 5 5 0 0 1 602.2963256835938 274.3520812988281 A 5 5 0 0 1 612.2963256835938 274.3520812988281" fill-opacity="1" clip-path="url(#uUHXbwcxPXrx)" stroke-opacity="1" stroke-linejoin="bevel" stroke-miterlimit="10" stroke-dasharray=""/><path fill="rgb(128,0,0)" stroke="rgb(128,0,0)" paint-order="fill" d="M 716.2088623046875 184.6787567138672 A 5 5 0 0 1 706.2088623046875 184.6787567138672 A 5 5 0 0 1 716.2088623046875 184.6787567138672" fill-opacity="1" clip-path="url(#uUHXbwcxPXrx)" stroke-opacity="1" stroke-linejoin="bevel" stroke-miterlimit="10" stroke-dasharray=""/><path fill="none" stroke="rgb(219,112,147)" paint-order="fill" d="M 170.86363220214844 659.3636474609375 L 281.70367431640625 521.0555419921875 L 392.5437316894531 394.11761474609375 L 482.60125732421875 289.6912536621094 L 579.5863037109375 173.0825653076172 L 718.1363525390625 36.6363639831543" stroke-opacity="1" stroke-linejoin="bevel" stroke-miterlimit="10" stroke-width="5" stroke-dasharray="" clip-path="url(#zSHFtTTTlQWH)"/><path fill="rgb(219,112,147)" stroke="rgb(219,112,147)" paint-order="fill" d="M 175.86363220214844 659.3636474609375 A 5 5 0 0 1 165.86363220214844 659.3636474609375 A 5 5 0 0 1 175.86363220214844 659.3636474609375" fill-opacity="1" clip-path="url(#CETBqFGlFafJ)" stroke-opacity="1" stroke-linejoin="bevel" stroke-miterlimit="10" stroke-dasharray=""/><path fill="rgb(219,112,147)" stroke="rgb(219,112,147)" paint-order="fill" d="M 286.70367431640625 521.0555419921875 A 5 5 0 0 1 276.70367431640625 521.0555419921875 A 5 5 0 0 1 286.70367431640625 521.0555419921875" fill-opacity="1" clip-path="url(#CETBqFGlFafJ)" stroke-opacity="1" stroke-linejoin="bevel" stroke-miterlimit="10" stroke-dasharray=""/><path fill="rgb(219,112,147)" stroke="rgb(219,112,147)" paint-order="fill" d="M 397.5437316894531 394.11761474609375 A 5 5 0 0 1 387.5437316894531 394.11761474609375 A 5 5 0 0 1 397.5437316894531 394.11761474609375" fill-opacity="1" clip-path="url(#CETBqFGlFafJ)" stroke-opacity="1" stroke-linejoin="bevel" stroke-miterlimit="10" stroke-dasharray=""/><path fill="rgb(219,112,147)" stroke="rgb(219,112,147)" paint-order="fill" d="M 487.60125732421875 289.6912536621094 A 5 5 0 0 1 477.60125732421875 289.6912536621094 A 5 5 0 0 1 487.60125732421875 289.6912536621094" fill-opacity="1" clip-path="url(#CETBqFGlFafJ)" stroke-opacity="1" stroke-linejoin="bevel" stroke-miterlimit="10" stroke-dasharray=""/><path fill="rgb(219,112,147)" stroke="rgb(219,112,147)" paint-order="fill" d="M 584.5863037109375 173.0825653076172 A 5 5 0 0 1 574.5863037109375 173.0825653076172 A 5 5 0 0 1 584.5863037109375 173.0825653076172" fill-opacity="1" clip-path="url(#CETBqFGlFafJ)" stroke-opacity="1" stroke-linejoin="bevel" stroke-miterlimit="10" stroke-dasharray=""/><path fill="rgb(219,112,147)" stroke="rgb(219,112,147)" paint-order="fill" d="M 723.1363525390625 36.6363639831543 A 5 5 0 0 1 713.1363525390625 36.6363639831543 A 5 5 0 0 1 723.1363525390625 36.6363639831543" fill-opacity="1" clip-path="url(#CETBqFGlFafJ)" stroke-opacity="1" stroke-linejoin="bevel" stroke-miterlimit="10" stroke-dasharray=""/><path fill="none" stroke="rgb(0,0,0)" paint-order="fill" d="M 143.5 690.5 L 745.5 690.5" stroke-opacity="1" stroke-linejoin="bevel" stroke-miterlimit="10" stroke-dasharray=""/><path fill="none" stroke="rgb(0,0,0)" paint-order="fill" d="M 170.5 696.5 L 170.5 688.5 M 309.5 696.5 L 309.5 688.5 M 447.5 696.5 L 447.5 688.5 M 586.5 696.5 L 586.5 688.5 M 725.5 696.5 L 725.5 688.5" stroke-opacity="1" stroke-linejoin="bevel" stroke-miterlimit="10" stroke-dasharray=""/><path fill="none" stroke="rgb(0,0,0)" paint-order="fill" d="" stroke-opacity="1" stroke-linejoin="bevel" stroke-miterlimit="10" stroke-dasharray=""/><text fill="rgb(0,0,0)" stroke="none" font-family="arial" font-size="32px" font-style="normal" font-weight="normal" text-decoration="normal" x="161.36363220214844" y="723.90625" text-anchor="start" dominant-baseline="alphabetic" transform="matrix(1, 0, 0, 1, 0.5, 0.5)" fill-opacity="1">0</text><text fill="rgb(0,0,0)" stroke="none" font-family="arial" font-size="32px" font-style="normal" font-weight="normal" text-decoration="normal" x="290.9136962890625" y="723.90625" text-anchor="start" dominant-baseline="alphabetic" transform="matrix(1, 0, 0, 1, 0.5, 0.5)" fill-opacity="1">20</text><text fill="rgb(0,0,0)" stroke="none" font-family="arial" font-size="32px" font-style="normal" font-weight="normal" text-decoration="normal" x="429.4637451171875" y="723.90625" text-anchor="start" dominant-baseline="alphabetic" transform="matrix(1, 0, 0, 1, 0.5, 0.5)" fill-opacity="1">40</text><text fill="rgb(0,0,0)" stroke="none" font-family="arial" font-size="32px" font-style="normal" font-weight="normal" text-decoration="normal" x="568.0137939453125" y="723.90625" text-anchor="start" dominant-baseline="alphabetic" transform="matrix(1, 0, 0, 1, 0.5, 0.5)" fill-opacity="1">60</text><text fill="rgb(0,0,0)" stroke="none" font-family="arial" font-size="32px" font-style="normal" font-weight="normal" text-decoration="normal" x="706.5638427734375" y="723.90625" text-anchor="start" dominant-baseline="alphabetic" transform="matrix(1, 0, 0, 1, 0.5, 0.5)" fill-opacity="1">80</text><text fill="rgb(0,0,0)" stroke="none" font-family="arial" font-size="36px" font-style="normal" font-weight="normal" text-decoration="normal" x="360.66666412353516" y="764.1796875" text-anchor="start" dominant-baseline="alphabetic" transform="matrix(1, 0, 0, 1, 0.5, 0.5)" fill-opacity="1">Time (Min)</text><path fill="none" stroke="rgb(0,0,0)" paint-order="fill" d="M 143.5 690.5 L 143.5 5.5" stroke-opacity="1" stroke-linejoin="bevel" stroke-miterlimit="10" stroke-dasharray=""/><path fill="none" stroke="rgb(0,0,0)" paint-order="fill" d="M 137.5 594.5 L 145.5 594.5 M 137.5 429.5 L 145.5 429.5 M 137.5 264.5 L 145.5 264.5 M 137.5 99.5 L 145.5 99.5" stroke-opacity="1" stroke-linejoin="bevel" stroke-miterlimit="10" stroke-dasharray=""/><path fill="none" stroke="rgb(0,0,0)" paint-order="fill" d="" stroke-opacity="1" stroke-linejoin="bevel" stroke-miterlimit="10" stroke-dasharray=""/><text fill="rgb(0,0,0)" stroke="none" font-family="arial" font-size="32px" font-style="normal" font-weight="normal" text-decoration="normal" x="51" y="605.0900268554688" text-anchor="start" dominant-baseline="alphabetic" transform="matrix(1, 0, 0, 1, 0.5, 0.5)" fill-opacity="1">0.025</text><text fill="rgb(0,0,0)" stroke="none" font-family="arial" font-size="32px" font-style="normal" font-weight="normal" text-decoration="normal" x="69" y="440.346435546875" text-anchor="start" dominant-baseline="alphabetic" transform="matrix(1, 0, 0, 1, 0.5, 0.5)" fill-opacity="1">0.05</text><text fill="rgb(0,0,0)" stroke="none" font-family="arial" font-size="32px" font-style="normal" font-weight="normal" text-decoration="normal" x="87" y="275.60284423828125" text-anchor="start" dominant-baseline="alphabetic" transform="matrix(1, 0, 0, 1, 0.5, 0.5)" fill-opacity="1">0.1</text><text fill="rgb(0,0,0)" stroke="none" font-family="arial" font-size="32px" font-style="normal" font-weight="normal" text-decoration="normal" x="87" y="110.85923767089844" text-anchor="start" dominant-baseline="alphabetic" transform="matrix(1, 0, 0, 1, 0.5, 0.5)" fill-opacity="1">0.2</text><text fill="rgb(0,0,0)" stroke="none" font-family="arial" font-size="36px" font-style="normal" font-weight="normal" text-decoration="normal" x="-154.5" y="339.923828125" text-anchor="start" dominant-baseline="alphabetic" transform="matrix(6.123233995736766e-17, -1, 1, 6.123233995736766e-17, -304, 391)" fill-opacity="1">Optical Density (OD 600)</text><path fill="rgb(255,255,255)" stroke="rgb(229,229,229)" paint-order="fill" d="M 153.5 15.5 L 611.5 15.5 L 611.5 209.802099609375 L 153.5 209.802099609375 L 153.5 15.5" fill-opacity="0.9490196078431372" clip-path="url(#VbxLMzAcDNQt)" stroke-opacity="0.5019607843137255" stroke-linejoin="bevel" stroke-miterlimit="10" stroke-dasharray=""/><g clip-path="url(#VbxLMzAcDNQt)"><text fill="rgb(0,0,0)" stroke="none" font-family="helvetica" font-size="28pt" font-style="normal" font-weight="normal" text-decoration="normal" x="188" y="45.66276245117187" text-anchor="start" dominant-baseline="central" transform="matrix(1, 0, 0, 1, 0.5, 0.5)" fill-opacity="1">WT +IPTG, t = 20.3 min</text></g><path fill="rgb(107,142,35)" stroke="rgb(107,142,35)" paint-order="fill" d="M 177.5 35.5 A 4 4 0 0 1 169.5 35.5 A 4 4 0 0 1 177.5 35.5" fill-opacity="1" clip-path="url(#VbxLMzAcDNQt)" stroke-opacity="1" stroke-linejoin="bevel" stroke-miterlimit="10" stroke-dasharray=""/><g clip-path="url(#VbxLMzAcDNQt)"><text fill="rgb(0,0,0)" stroke="none" font-family="helvetica" font-size="28pt" font-style="normal" font-weight="normal" text-decoration="normal" x="188" y="89.98828735351562" text-anchor="start" dominant-baseline="central" transform="matrix(1, 0, 0, 1, 0.5, 0.5)" fill-opacity="1">WT -IPTG, t = 19.8 min</text></g><path fill="rgb(72,209,204)" stroke="rgb(72,209,204)" paint-order="fill" d="M 177.5 79.82552490234374 A 4 4 0 0 1 169.5 79.82552490234374 A 4 4 0 0 1 177.5 79.82552490234374" fill-opacity="1" clip-path="url(#VbxLMzAcDNQt)" stroke-opacity="1" stroke-linejoin="bevel" stroke-miterlimit="10" stroke-dasharray=""/><g clip-path="url(#VbxLMzAcDNQt)"><text fill="rgb(0,0,0)" stroke="none" font-family="helvetica" font-size="28pt" font-style="normal" font-weight="normal" text-decoration="normal" x="188" y="134.31381225585938" text-anchor="start" dominant-baseline="central" transform="matrix(1, 0, 0, 1, 0.5, 0.5)" fill-opacity="1">MTC +IPTG, t = 28.5 min</text></g><path fill="rgb(128,0,0)" stroke="rgb(128,0,0)" paint-order="fill" d="M 177.5 124.15104980468749 A 3.9999999999999973 3.9999999999999973 0 0 1 169.5 124.15104980468749 A 3.9999999999999973 3.9999999999999973 0 0 1 177.5 124.15104980468749" fill-opacity="1" clip-path="url(#VbxLMzAcDNQt)" stroke-opacity="1" stroke-linejoin="bevel" stroke-miterlimit="10" stroke-dasharray=""/><g clip-path="url(#VbxLMzAcDNQt)"><text fill="rgb(0,0,0)" stroke="none" font-family="helvetica" font-size="28pt" font-style="normal" font-weight="normal" text-decoration="normal" x="188" y="178.63933715820315" text-anchor="start" dominant-baseline="central" transform="matrix(1, 0, 0, 1, 0.5, 0.5)" fill-opacity="1">MTC -IPTG, t = 20.8 min</text></g><path fill="rgb(219,112,147)" stroke="rgb(219,112,147)" paint-order="fill" d="M 177.5 168.47657470703126 A 4 4 0 0 1 169.5 168.47657470703126 A 4 4 0 0 1 177.5 168.47657470703126" fill-opacity="1" clip-path="url(#VbxLMzAcDNQt)" stroke-opacity="1" stroke-linejoin="bevel" stroke-miterlimit="10" stroke-dasharray=""/></svg>