<svg version="1.1" xmlns="http://www.w3.org/2000/svg" width="750" height="750"><defs><clipPath id="DpkcnTAZDBZH"><path fill="none" stroke="none" d="M 108.5 5.5 L 720.5 5.5 L 720.5 684.5 L 108.5 684.5 L 108.5 5.5"/></clipPath><clipPath id="AQdTHqdRhytp"><path fill="none" stroke="none" d="M 108.5 5.5 L 720.5 5.5 L 720.5 684.5 L 108.5 684.5 L 108.5 5.5"/></clipPath><clipPath id="xRZkaBwsrMyh"><path fill="none" stroke="none" d="M 108.5 5.5 L 720.5 5.5 L 720.5 684.5 L 108.5 684.5 L 108.5 5.5"/></clipPath><clipPath id="UQmaTvTZzTHB"><path fill="none" stroke="none" d="M 108.5 5.5 L 720.5 5.5 L 720.5 684.5 L 108.5 684.5 L 108.5 5.5"/></clipPath><clipPath id="JDLhLMTHFoXT"><path fill="none" stroke="none" d="M 108.5 5.5 L 720.5 5.5 L 720.5 684.5 L 108.5 684.5 L 108.5 5.5"/></clipPath><clipPath id="emznbHUfnCbT"><path fill="none" stroke="none" d="M 108.5 5.5 L 720.5 5.5 L 720.5 684.5 L 108.5 684.5 L 108.5 5.5"/></clipPath><clipPath id="iVqRcnxXFuLn"><path fill="none" stroke="none" d="M 108.5 5.5 L 720.5 5.5 L 720.5 684.5 L 108.5 684.5 L 108.5 5.5"/></clipPath><clipPath id="qWhLEbPBcdCF"><path fill="none" stroke="none" d="M 108.5 5.5 L 720.5 5.5 L 720.5 684.5 L 108.5 684.5 L 108.5 5.5"/></clipPath><clipPath id="McoocWTzwwWy"><path fill="none" stroke="none" d="M 108.5 5.5 L 720.5 5.5 L 720.5 684.5 L 108.5 684.5 L 108.5 5.5"/></clipPath><clipPath id="JpfgwcKFQlZx"><path fill="none" stroke="none" d="M 108.5 5.5 L 720.5 5.5 L 720.5 684.5 L 108.5 684.5 L 108.5 5.5"/></clipPath><clipPath id="bhfZcWTtvxTL"><path fill="none" stroke="none" d="M 108.5 5.5 L 720.5 5.5 L 720.5 684.5 L 108.5 684.5 L 108.5 5.5"/></clipPath><clipPath id="vaKNwWvqTALV"><path fill="none" stroke="none" d="M 108.5 5.5 L 720.5 5.5 L 720.5 684.5 L 108.5 684.5 L 108.5 5.5"/></clipPath></defs><path fill="rgb(255,255,255)" stroke="none" paint-order="stroke" d="M 0.5 0.5 L 750.5 0.5 L 750.5 750.5 L 0.5 750.5 L 0.5 0.5" fill-opacity="1"/><rect fill="#FFFFFF" stroke="none" x="108" y="5" width="612" height="679" transform="matrix(1, 0, 0, 1, 0.5, 0.5)"/><path fill="rgb(255,255,255)" stroke="none" paint-order="stroke" d="M 108.5 5.5 L 720.5 5.5 L 720.5 684.5 L 108.5 684.5 L 108.5 5.5" fill-opacity="1"/><path fill="none" stroke="rgb(229,229,229)" paint-order="fill" d="M 108.5 5.5 L 720.5 5.5 L 720.5 684.5 L 108.5 684.5 L 108.5 5.5" stroke-opacity="1" stroke-linejoin="bevel" stroke-miterlimit="10" stroke-dasharray=""/><path fill="none" stroke="rgb(107,142,35)" paint-order="fill" d="M 136.31817626953125 608.6251220703125 L 248.99942016601562 490.3357849121094 L 361.6806640625 360.2723083496094 L 453.23419189453125 253.13966369628906 L 551.8302612304688 137.3675079345703 L 608.1708984375 74.49271392822266" stroke-opacity="1" stroke-linejoin="bevel" stroke-miterlimit="10" stroke-width="5" stroke-dasharray="" clip-path="url(#xRZkaBwsrMyh)"/><path fill="rgb(107,142,35)" stroke="rgb(107,142,35)" paint-order="fill" d="M 141.31817626953125 608.6251220703125 A 5 5 0 0 1 131.31817626953125 608.6251220703125 A 5 5 0 0 1 141.31817626953125 608.6251220703125" fill-opacity="1" clip-path="url(#UQmaTvTZzTHB)" stroke-opacity="1" stroke-linejoin="bevel" stroke-miterlimit="10" stroke-dasharray=""/><path fill="rgb(107,142,35)" stroke="rgb(107,142,35)" paint-order="fill" d="M 253.99942016601562 490.3357849121094 A 5 5 0 0 1 243.99942016601562 490.3357849121094 A 5 5 0 0 1 253.99942016601562 490.3357849121094" fill-opacity="1" clip-path="url(#UQmaTvTZzTHB)" stroke-opacity="1" stroke-linejoin="bevel" stroke-miterlimit="10" stroke-dasharray=""/><path fill="rgb(107,142,35)" stroke="rgb(107,142,35)" paint-order="fill" d="M 366.6806640625 360.2723083496094 A 5 5 0 0 1 356.6806640625 360.2723083496094 A 5 5 0 0 1 366.6806640625 360.2723083496094" fill-opacity="1" clip-path="url(#UQmaTvTZzTHB)" stroke-opacity="1" stroke-linejoin="bevel" stroke-miterlimit="10" stroke-dasharray=""/><path fill="rgb(107,142,35)" stroke="rgb(107,142,35)" paint-order="fill" d="M 458.23419189453125 253.13966369628906 A 5 5 0 0 1 448.23419189453125 253.13966369628906 A 5 5 0 0 1 458.23419189453125 253.13966369628906" fill-opacity="1" clip-path="url(#UQmaTvTZzTHB)" stroke-opacity="1" stroke-linejoin="bevel" stroke-miterlimit="10" stroke-dasharray=""/><path fill="rgb(107,142,35)" stroke="rgb(107,142,35)" paint-order="fill" d="M 556.8302612304688 137.3675079345703 A 5 5 0 0 1 546.8302612304688 137.3675079345703 A 5 5 0 0 1 556.8302612304688 137.3675079345703" fill-opacity="1" clip-path="url(#UQmaTvTZzTHB)" stroke-opacity="1" stroke-linejoin="bevel" stroke-miterlimit="10" stroke-dasharray=""/><path fill="rgb(107,142,35)" stroke="rgb(107,142,35)" paint-order="fill" d="M 613.1708984375 74.49271392822266 A 5 5 0 0 1 603.1708984375 74.49271392822266 A 5 5 0 0 1 613.1708984375 74.49271392822266" fill-opacity="1" clip-path="url(#UQmaTvTZzTHB)" stroke-opacity="1" stroke-linejoin="bevel" stroke-miterlimit="10" stroke-dasharray=""/><path fill="none" stroke="rgb(72,209,204)" paint-order="fill" d="M 136.31817626953125 619.0975952148438 L 248.99942016601562 484.21612548828125 L 361.6806640625 349.7997741699219 L 453.23419189453125 244.24830627441406 L 551.8302612304688 131.88836669921875 L 608.1708984375 67.17881774902344" stroke-opacity="1" stroke-linejoin="bevel" stroke-miterlimit="10" stroke-width="5" stroke-dasharray="" clip-path="url(#JDLhLMTHFoXT)"/><path fill="rgb(72,209,204)" stroke="rgb(72,209,204)" paint-order="fill" d="M 141.31817626953125 619.0975952148438 A 5 5 0 0 1 131.31817626953125 619.0975952148438 A 5 5 0 0 1 141.31817626953125 619.0975952148438" fill-opacity="1" clip-path="url(#emznbHUfnCbT)" stroke-opacity="1" stroke-linejoin="bevel" stroke-miterlimit="10" stroke-dasharray=""/><path fill="rgb(72,209,204)" stroke="rgb(72,209,204)" paint-order="fill" d="M 253.99942016601562 484.21612548828125 A 5 5 0 0 1 243.99942016601562 484.21612548828125 A 5 5 0 0 1 253.99942016601562 484.21612548828125" fill-opacity="1" clip-path="url(#emznbHUfnCbT)" stroke-opacity="1" stroke-linejoin="bevel" stroke-miterlimit="10" stroke-dasharray=""/><path fill="rgb(72,209,204)" stroke="rgb(72,209,204)" paint-order="fill" d="M 366.6806640625 349.7997741699219 A 5 5 0 0 1 356.6806640625 349.7997741699219 A 5 5 0 0 1 366.6806640625 349.7997741699219" fill-opacity="1" clip-path="url(#emznbHUfnCbT)" stroke-opacity="1" stroke-linejoin="bevel" stroke-miterlimit="10" stroke-dasharray=""/><path fill="rgb(72,209,204)" stroke="rgb(72,209,204)" paint-order="fill" d="M 458.23419189453125 244.24830627441406 A 5 5 0 0 1 448.23419189453125 244.24830627441406 A 5 5 0 0 1 458.23419189453125 244.24830627441406" fill-opacity="1" clip-path="url(#emznbHUfnCbT)" stroke-opacity="1" stroke-linejoin="bevel" stroke-miterlimit="10" stroke-dasharray=""/><path fill="rgb(72,209,204)" stroke="rgb(72,209,204)" paint-order="fill" d="M 556.8302612304688 131.88836669921875 A 5 5 0 0 1 546.8302612304688 131.88836669921875 A 5 5 0 0 1 556.8302612304688 131.88836669921875" fill-opacity="1" clip-path="url(#emznbHUfnCbT)" stroke-opacity="1" stroke-linejoin="bevel" stroke-miterlimit="10" stroke-dasharray=""/><path fill="rgb(72,209,204)" stroke="rgb(72,209,204)" paint-order="fill" d="M 613.1708984375 67.17881774902344 A 5 5 0 0 1 603.1708984375 67.17881774902344 A 5 5 0 0 1 613.1708984375 67.17881774902344" fill-opacity="1" clip-path="url(#emznbHUfnCbT)" stroke-opacity="1" stroke-linejoin="bevel" stroke-miterlimit="10" stroke-dasharray=""/><path fill="none" stroke="rgb(128,0,0)" paint-order="fill" d="M 136.31817626953125 630.0574340820312 L 248.99942016601562 546.0272827148438 L 340.5529479980469 455.7970275878906 L 439.1490173339844 390.71368408203125 L 580.0005493164062 271.9971618652344 L 685.6392211914062 183.1092987060547" stroke-opacity="1" stroke-linejoin="bevel" stroke-miterlimit="10" stroke-width="5" stroke-dasharray="" clip-path="url(#iVqRcnxXFuLn)"/><path fill="rgb(128,0,0)" stroke="rgb(128,0,0)" paint-order="fill" d="M 141.31817626953125 630.0574340820312 A 5 5 0 0 1 131.31817626953125 630.0574340820312 A 5 5 0 0 1 141.31817626953125 630.0574340820312" fill-opacity="1" clip-path="url(#qWhLEbPBcdCF)" stroke-opacity="1" stroke-linejoin="bevel" stroke-miterlimit="10" stroke-dasharray=""/><path fill="rgb(128,0,0)" stroke="rgb(128,0,0)" paint-order="fill" d="M 253.99942016601562 546.0272827148438 A 5 5 0 0 1 243.99942016601562 546.0272827148438 A 5 5 0 0 1 253.99942016601562 546.0272827148438" fill-opacity="1" clip-path="url(#qWhLEbPBcdCF)" stroke-opacity="1" stroke-linejoin="bevel" stroke-miterlimit="10" stroke-dasharray=""/><path fill="rgb(128,0,0)" stroke="rgb(128,0,0)" paint-order="fill" d="M 345.5529479980469 455.7970275878906 A 5 5 0 0 1 335.5529479980469 455.7970275878906 A 5 5 0 0 1 345.5529479980469 455.7970275878906" fill-opacity="1" clip-path="url(#qWhLEbPBcdCF)" stroke-opacity="1" stroke-linejoin="bevel" stroke-miterlimit="10" stroke-dasharray=""/><path fill="rgb(128,0,0)" stroke="rgb(128,0,0)" paint-order="fill" d="M 444.1490173339844 390.71368408203125 A 5 5 0 0 1 434.1490173339844 390.71368408203125 A 5 5 0 0 1 444.1490173339844 390.71368408203125" fill-opacity="1" clip-path="url(#qWhLEbPBcdCF)" stroke-opacity="1" stroke-linejoin="bevel" stroke-miterlimit="10" stroke-dasharray=""/><path fill="rgb(128,0,0)" stroke="rgb(128,0,0)" paint-order="fill" d="M 585.0005493164062 271.9971618652344 A 5 5 0 0 1 575.0005493164062 271.9971618652344 A 5 5 0 0 1 585.0005493164062 271.9971618652344" fill-opacity="1" clip-path="url(#qWhLEbPBcdCF)" stroke-opacity="1" stroke-linejoin="bevel" stroke-miterlimit="10" stroke-dasharray=""/><path fill="rgb(128,0,0)" stroke="rgb(128,0,0)" paint-order="fill" d="M 690.6392211914062 183.1092987060547 A 5 5 0 0 1 680.6392211914062 183.1092987060547 A 5 5 0 0 1 690.6392211914062 183.1092987060547" fill-opacity="1" clip-path="url(#qWhLEbPBcdCF)" stroke-opacity="1" stroke-linejoin="bevel" stroke-miterlimit="10" stroke-dasharray=""/><path fill="none" stroke="rgb(219,112,147)" paint-order="fill" d="M 136.31817626953125 653.6363525390625 L 248.99942016601562 516.5397338867188 L 361.6806640625 390.71368408203125 L 453.23419189453125 287.2019958496094 L 551.8302612304688 171.61468505859375 L 692.6818237304688 36.3636360168457" stroke-opacity="1" stroke-linejoin="bevel" stroke-miterlimit="10" stroke-width="5" stroke-dasharray="" clip-path="url(#McoocWTzwwWy)"/><path fill="rgb(219,112,147)" stroke="rgb(219,112,147)" paint-order="fill" d="M 141.31817626953125 653.6363525390625 A 5 5 0 0 1 131.31817626953125 653.6363525390625 A 5 5 0 0 1 141.31817626953125 653.6363525390625" fill-opacity="1" clip-path="url(#JpfgwcKFQlZx)" stroke-opacity="1" stroke-linejoin="bevel" stroke-miterlimit="10" stroke-dasharray=""/><path fill="rgb(219,112,147)" stroke="rgb(219,112,147)" paint-order="fill" d="M 253.99942016601562 516.5397338867188 A 5 5 0 0 1 243.99942016601562 516.5397338867188 A 5 5 0 0 1 253.99942016601562 516.5397338867188" fill-opacity="1" clip-path="url(#JpfgwcKFQlZx)" stroke-opacity="1" stroke-linejoin="bevel" stroke-miterlimit="10" stroke-dasharray=""/><path fill="rgb(219,112,147)" stroke="rgb(219,112,147)" paint-order="fill" d="M 366.6806640625 390.71368408203125 A 5 5 0 0 1 356.6806640625 390.71368408203125 A 5 5 0 0 1 366.6806640625 390.71368408203125" fill-opacity="1" clip-path="url(#JpfgwcKFQlZx)" stroke-opacity="1" stroke-linejoin="bevel" stroke-miterlimit="10" stroke-dasharray=""/><path fill="rgb(219,112,147)" stroke="rgb(219,112,147)" paint-order="fill" d="M 458.23419189453125 287.2019958496094 A 5 5 0 0 1 448.23419189453125 287.2019958496094 A 5 5 0 0 1 458.23419189453125 287.2019958496094" fill-opacity="1" clip-path="url(#JpfgwcKFQlZx)" stroke-opacity="1" stroke-linejoin="bevel" stroke-miterlimit="10" stroke-dasharray=""/><path fill="rgb(219,112,147)" stroke="rgb(219,112,147)" paint-order="fill" d="M 556.8302612304688 171.61468505859375 A 5 5 0 0 1 546.8302612304688 171.61468505859375 A 5 5 0 0 1 556.8302612304688 171.61468505859375" fill-opacity="1" clip-path="url(#JpfgwcKFQlZx)" stroke-opacity="1" stroke-linejoin="bevel" stroke-miterlimit="10" stroke-dasharray=""/><path fill="rgb(219,112,147)" stroke="rgb(219,112,147)" paint-order="fill" d="M 697.6818237304688 36.3636360168457 A 5 5 0 0 1 687.6818237304688 36.3636360168457 A 5 5 0 0 1 697.6818237304688 36.3636360168457" fill-opacity="1" clip-path="url(#JpfgwcKFQlZx)" stroke-opacity="1" stroke-linejoin="bevel" stroke-miterlimit="10" stroke-dasharray=""/><path fill="none" stroke="rgb(0,0,0)" paint-order="fill" d="M 108.5 684.5 L 720.5 684.5" stroke-opacity="1" stroke-linejoin="bevel" stroke-miterlimit="10" stroke-dasharray=""/><path fill="none" stroke="rgb(0,0,0)" paint-order="fill" d="M 136.5 690.5 L 136.5 682.5 M 277.5 690.5 L 277.5 682.5 M 418.5 690.5 L 418.5 682.5 M 558.5 690.5 L 558.5 682.5 M 699.5 690.5 L 699.5 682.5" stroke-opacity="1" stroke-linejoin="bevel" stroke-miterlimit="10" stroke-dasharray=""/><path fill="none" stroke="rgb(0,0,0)" paint-order="fill" d="" stroke-opacity="1" stroke-linejoin="bevel" stroke-miterlimit="10" stroke-dasharray=""/><text fill="rgb(0,0,0)" stroke="none" font-family="arial" font-size="24px" font-style="normal" font-weight="normal" text-decoration="normal" x="129.31817626953125" y="712.1796875" text-anchor="start" dominant-baseline="alphabetic" transform="matrix(1, 0, 0, 1, 0.5, 0.5)" fill-opacity="1">0</text><text fill="rgb(0,0,0)" stroke="none" font-family="arial" font-size="24px" font-style="normal" font-weight="normal" text-decoration="normal" x="263.66973876953125" y="712.1796875" text-anchor="start" dominant-baseline="alphabetic" transform="matrix(1, 0, 0, 1, 0.5, 0.5)" fill-opacity="1">20</text><text fill="rgb(0,0,0)" stroke="none" font-family="arial" font-size="24px" font-style="normal" font-weight="normal" text-decoration="normal" x="404.52130126953125" y="712.1796875" text-anchor="start" dominant-baseline="alphabetic" transform="matrix(1, 0, 0, 1, 0.5, 0.5)" fill-opacity="1">40</text><text fill="rgb(0,0,0)" stroke="none" font-family="arial" font-size="24px" font-style="normal" font-weight="normal" text-decoration="normal" x="545.3728637695312" y="712.1796875" text-anchor="start" dominant-baseline="alphabetic" transform="matrix(1, 0, 0, 1, 0.5, 0.5)" fill-opacity="1">60</text><text fill="rgb(0,0,0)" stroke="none" font-family="arial" font-size="24px" font-style="normal" font-weight="normal" text-decoration="normal" x="686.2244262695312" y="712.1796875" text-anchor="start" dominant-baseline="alphabetic" transform="matrix(1, 0, 0, 1, 0.5, 0.5)" fill-opacity="1">80</text><text fill="rgb(0,0,0)" stroke="none" font-family="arial" font-size="24px" font-style="normal" font-weight="normal" text-decoration="normal" x="357.94166564941406" y="741.6953125" text-anchor="start" dominant-baseline="alphabetic" transform="matrix(1, 0, 0, 1, 0.5, 0.5)" fill-opacity="1">Time (Min)</text><path fill="none" stroke="rgb(0,0,0)" paint-order="fill" d="M 108.5 684.5 L 108.5 5.5" stroke-opacity="1" stroke-linejoin="bevel" stroke-miterlimit="10" stroke-dasharray=""/><path fill="none" stroke="rgb(0,0,0)" paint-order="fill" d="M 102.5 588.5 L 110.5 588.5 M 102.5 425.5 L 110.5 425.5 M 102.5 262.5 L 110.5 262.5 M 102.5 99.5 L 110.5 99.5" stroke-opacity="1" stroke-linejoin="bevel" stroke-miterlimit="10" stroke-dasharray=""/><path fill="none" stroke="rgb(0,0,0)" paint-order="fill" d="" stroke-opacity="1" stroke-linejoin="bevel" stroke-miterlimit="10" stroke-dasharray=""/><text fill="rgb(0,0,0)" stroke="none" font-family="arial" font-size="24px" font-style="normal" font-weight="normal" text-decoration="normal" x="38" y="597.07080078125" text-anchor="start" dominant-baseline="alphabetic" transform="matrix(1, 0, 0, 1, 0.5, 0.5)" fill-opacity="1">0.025</text><text fill="rgb(0,0,0)" stroke="none" font-family="arial" font-size="24px" font-style="normal" font-weight="normal" text-decoration="normal" x="51" y="433.7702331542969" text-anchor="start" dominant-baseline="alphabetic" transform="matrix(1, 0, 0, 1, 0.5, 0.5)" fill-opacity="1">0.05</text><text fill="rgb(0,0,0)" stroke="none" font-family="arial" font-size="24px" font-style="normal" font-weight="normal" text-decoration="normal" x="64" y="270.4696350097656" text-anchor="start" dominant-baseline="alphabetic" transform="matrix(1, 0, 0, 1, 0.5, 0.5)" fill-opacity="1">0.1</text><text fill="rgb(0,0,0)" stroke="none" font-family="arial" font-size="24px" font-style="normal" font-weight="normal" text-decoration="normal" x="64" y="107.1690444946289" text-anchor="start" dominant-baseline="alphabetic" transform="matrix(1, 0, 0, 1, 0.5, 0.5)" fill-opacity="1">0.2</text><text fill="rgb(0,0,0)" stroke="none" font-family="arial" font-size="24px" font-style="normal" font-weight="normal" text-decoration="normal" x="-120.5" y="339.44921875" text-anchor="start" dominant-baseline="alphabetic" transform="matrix(6.123233995736766e-17, -1, 1, 6.123233995736766e-17, -314, 375)" fill-opacity="1">Optical Density log(OD 600)</text><path fill="rgb(255,255,255)" stroke="rgb(229,229,229)" paint-order="fill" d="M 118.5 15.5 L 468.5 15.5 L 468.5 162.57293294270835 L 118.5 162.57293294270835 L 118.5 15.5" fill-opacity="0.9490196078431372" clip-path="url(#bhfZcWTtvxTL)" stroke-opacity="0.5019607843137255" stroke-linejoin="bevel" stroke-miterlimit="10" stroke-dasharray=""/><g clip-path="url(#bhfZcWTtvxTL)"><text fill="rgb(0,0,0)" stroke="none" font-family="helvetica" font-size="20pt" font-style="normal" font-weight="normal" text-decoration="normal" x="153" y="39.759116617838544" text-anchor="start" dominant-baseline="central" transform="matrix(1, 0, 0, 1, 0.5, 0.5)" fill-opacity="1">WT Induced, t = 20.3</text></g><path fill="rgb(107,142,35)" stroke="rgb(107,142,35)" paint-order="fill" d="M 142.5 35.5 A 4 4 0 0 1 134.5 35.5 A 4 4 0 0 1 142.5 35.5" fill-opacity="1" clip-path="url(#bhfZcWTtvxTL)" stroke-opacity="1" stroke-linejoin="bevel" stroke-miterlimit="10" stroke-dasharray=""/><g clip-path="url(#bhfZcWTtvxTL)"><text fill="rgb(0,0,0)" stroke="none" font-family="helvetica" font-size="20pt" font-style="normal" font-weight="normal" text-decoration="normal" x="153" y="72.27734985351563" text-anchor="start" dominant-baseline="central" transform="matrix(1, 0, 0, 1, 0.5, 0.5)" fill-opacity="1">WT Uninduced, t = 19.8</text></g><path fill="rgb(72,209,204)" stroke="rgb(72,209,204)" paint-order="fill" d="M 142.5 68.01823323567709 A 4 4 0 0 1 134.5 68.01823323567709 A 4 4 0 0 1 142.5 68.01823323567709" fill-opacity="1" clip-path="url(#bhfZcWTtvxTL)" stroke-opacity="1" stroke-linejoin="bevel" stroke-miterlimit="10" stroke-dasharray=""/><g clip-path="url(#bhfZcWTtvxTL)"><text fill="rgb(0,0,0)" stroke="none" font-family="helvetica" font-size="20pt" font-style="normal" font-weight="normal" text-decoration="normal" x="153" y="104.79558308919272" text-anchor="start" dominant-baseline="central" transform="matrix(1, 0, 0, 1, 0.5, 0.5)" fill-opacity="1">MTC Induced, t = 28.5</text></g><path fill="rgb(128,0,0)" stroke="rgb(128,0,0)" paint-order="fill" d="M 142.5 100.53646647135417 A 4 4 0 0 1 134.5 100.53646647135417 A 4 4 0 0 1 142.5 100.53646647135417" fill-opacity="1" clip-path="url(#bhfZcWTtvxTL)" stroke-opacity="1" stroke-linejoin="bevel" stroke-miterlimit="10" stroke-dasharray=""/><g clip-path="url(#bhfZcWTtvxTL)"><text fill="rgb(0,0,0)" stroke="none" font-family="helvetica" font-size="20pt" font-style="normal" font-weight="normal" text-decoration="normal" x="153" y="137.3138163248698" text-anchor="start" dominant-baseline="central" transform="matrix(1, 0, 0, 1, 0.5, 0.5)" fill-opacity="1">MTC Uninduced, t = 20.8</text></g><path fill="rgb(219,112,147)" stroke="rgb(219,112,147)" paint-order="fill" d="M 142.5 133.05469970703126 A 4 4 0 0 1 134.5 133.05469970703126 A 4 4 0 0 1 142.5 133.05469970703126" fill-opacity="1" clip-path="url(#bhfZcWTtvxTL)" stroke-opacity="1" stroke-linejoin="bevel" stroke-miterlimit="10" stroke-dasharray=""/></svg>