<svg version="1.1" xmlns="http://www.w3.org/2000/svg" width="150" height="100"><defs><clipPath id="xhaGgMqoLiKH"><path fill="none" stroke="none" d="M 5.5 5.5 L 145.5 5.5 L 145.5 49.5 L 5.5 49.5 L 5.5 5.5"/></clipPath><clipPath id="vTSZDGaeiLdb"><path fill="none" stroke="none" d="M 5.5 5.5 L 145.5 5.5 L 145.5 49.5 L 5.5 49.5 L 5.5 5.5"/></clipPath><clipPath id="wEzJDGdwcwrz"><path fill="none" stroke="none" d="M 5.5 5.5 L 145.5 5.5 L 145.5 49.5 L 5.5 49.5 L 5.5 5.5"/></clipPath><clipPath id="NeuhmSFpACZk"><path fill="none" stroke="none" d="M 5.5 5.5 L 145.5 5.5 L 145.5 49.5 L 5.5 49.5 L 5.5 5.5"/></clipPath></defs><path fill="rgb(255,255,255)" stroke="none" paint-order="stroke" d="M 0.5 0.5 L 150.5 0.5 L 150.5 100.5 L 0.5 100.5 L 0.5 0.5" fill-opacity="1"/><rect fill="#FFFFFF" stroke="none" x="5" y="5" width="140" height="44" transform="matrix(1, 0, 0, 1, 0.5, 0.5)"/><path fill="rgb(255,255,255)" stroke="none" paint-order="stroke" d="M 5.5 5.5 L 145.5 5.5 L 145.5 49.5 L 5.5 49.5 L 5.5 5.5" fill-opacity="1"/><path fill="none" stroke="rgb(229,229,229)" paint-order="fill" d="M 5.5 5.5 L 145.5 5.5 L 145.5 49.5 L 5.5 49.5 L 5.5 5.5" stroke-opacity="1" stroke-linejoin="bevel" stroke-miterlimit="10" stroke-dasharray=""/><path fill="none" stroke="rgb(255,255,255)" paint-order="fill" d="M 11.5 49.5 L 11.5 5.5 M 43.5 49.5 L 43.5 5.5 M 75.5 49.5 L 75.5 5.5 M 107.5 49.5 L 107.5 5.5 M 139.5 49.5 L 139.5 5.5" stroke-opacity="1" stroke-linejoin="bevel" stroke-miterlimit="10" stroke-width="4" stroke-dasharray="" clip-path="url(#xhaGgMqoLiKH)"/><path fill="none" stroke="rgb(255,255,255)" paint-order="fill" d="M 5.5 47.5 L 145.5 47.5 M 5.5 45.5 L 145.5 45.5 M 5.5 -135.5 L 145.5 -135.5 M 5.5 -18225.5 L 145.5 -18225.5" stroke-opacity="1" stroke-linejoin="bevel" stroke-miterlimit="10" stroke-width="4" stroke-dasharray="" clip-path="url(#vTSZDGaeiLdb)"/><path fill="rgb(70,130,180)" stroke="rgb(255,255,255)" paint-order="fill" d="M 11.863636016845703 47.5 L 26.005050659179688 47.5 L 26.005050659179688 47.5 L 11.863636016845703 47.5 L 11.863636016845703 47.5" fill-opacity="1" clip-path="url(#wEzJDGdwcwrz)" stroke-opacity="1" stroke-linejoin="bevel" stroke-miterlimit="10" stroke-dasharray=""/><path fill="rgb(70,130,180)" stroke="rgb(255,255,255)" paint-order="fill" d="M 26.005050659179688 47.46345520019531 L 40.14646530151367 47.46345520019531 L 40.14646530151367 47.5 L 26.005050659179688 47.5 L 26.005050659179688 47.46345520019531" fill-opacity="1" clip-path="url(#wEzJDGdwcwrz)" stroke-opacity="1" stroke-linejoin="bevel" stroke-miterlimit="10" stroke-dasharray=""/><path fill="rgb(70,130,180)" stroke="rgb(255,255,255)" paint-order="fill" d="M 40.14646530151367 47.335540771484375 L 54.287879943847656 47.335540771484375 L 54.287879943847656 47.5 L 40.14646530151367 47.5 L 40.14646530151367 47.335540771484375" fill-opacity="1" clip-path="url(#wEzJDGdwcwrz)" stroke-opacity="1" stroke-linejoin="bevel" stroke-miterlimit="10" stroke-dasharray=""/><path fill="rgb(70,130,180)" stroke="rgb(255,255,255)" paint-order="fill" d="M 54.287879943847656 41.963226318359375 L 68.42929077148438 41.963226318359375 L 68.42929077148438 47.5 L 54.287879943847656 47.5 L 54.287879943847656 41.963226318359375" fill-opacity="1" clip-path="url(#wEzJDGdwcwrz)" stroke-opacity="1" stroke-linejoin="bevel" stroke-miterlimit="10" stroke-dasharray=""/><path fill="rgb(70,130,180)" stroke="rgb(255,255,255)" paint-order="fill" d="M 68.42929077148438 7.5 L 82.57070922851562 7.5 L 82.57070922851562 47.5 L 68.42929077148438 47.5 L 68.42929077148438 7.5" fill-opacity="1" clip-path="url(#wEzJDGdwcwrz)" stroke-opacity="1" stroke-linejoin="bevel" stroke-miterlimit="10" stroke-dasharray=""/><path fill="rgb(70,130,180)" stroke="rgb(255,255,255)" paint-order="fill" d="M 82.57070922851562 46.769073486328125 L 96.71212005615234 46.769073486328125 L 96.71212005615234 47.5 L 82.57070922851562 47.5 L 82.57070922851562 46.769073486328125" fill-opacity="1" clip-path="url(#wEzJDGdwcwrz)" stroke-opacity="1" stroke-linejoin="bevel" stroke-miterlimit="10" stroke-dasharray=""/><path fill="rgb(70,130,180)" stroke="rgb(255,255,255)" paint-order="fill" d="M 96.71212005615234 47.5 L 110.8535385131836 47.5 L 110.8535385131836 47.5 L 96.71212005615234 47.5 L 96.71212005615234 47.5" fill-opacity="1" clip-path="url(#wEzJDGdwcwrz)" stroke-opacity="1" stroke-linejoin="bevel" stroke-miterlimit="10" stroke-dasharray=""/><path fill="rgb(70,130,180)" stroke="rgb(255,255,255)" paint-order="fill" d="M 110.8535385131836 47.5 L 124.99494934082031 47.5 L 124.99494934082031 47.5 L 110.8535385131836 47.5 L 110.8535385131836 47.5" fill-opacity="1" clip-path="url(#wEzJDGdwcwrz)" stroke-opacity="1" stroke-linejoin="bevel" stroke-miterlimit="10" stroke-dasharray=""/><path fill="rgb(70,130,180)" stroke="rgb(255,255,255)" paint-order="fill" d="M 124.99494934082031 47.5 L 139.13636779785156 47.5 L 139.13636779785156 47.5 L 124.99494934082031 47.5 L 124.99494934082031 47.5" fill-opacity="1" clip-path="url(#wEzJDGdwcwrz)" stroke-opacity="1" stroke-linejoin="bevel" stroke-miterlimit="10" stroke-dasharray=""/><path fill="none" stroke="rgb(0,0,0)" paint-order="fill" d="M 5.5 49.5 L 145.5 49.5" stroke-opacity="1" stroke-linejoin="bevel" stroke-miterlimit="10" stroke-dasharray=""/><path fill="none" stroke="rgb(0,0,0)" paint-order="fill" d="M 11.5 55.5 L 11.5 47.5 M 43.5 55.5 L 43.5 47.5 M 75.5 55.5 L 75.5 47.5 M 107.5 55.5 L 107.5 47.5 M 139.5 55.5 L 139.5 47.5" stroke-opacity="1" stroke-linejoin="bevel" stroke-miterlimit="10" stroke-dasharray=""/><path fill="none" stroke="rgb(0,0,0)" paint-order="fill" d="" stroke-opacity="1" stroke-linejoin="bevel" stroke-miterlimit="10" stroke-dasharray=""/><text fill="rgb(68,68,68)" stroke="none" font-family="arial" font-size="20px" font-style="normal" font-weight="normal" text-decoration="normal" x="0" y="74.31640625" text-anchor="start" dominant-baseline="alphabetic" transform="matrix(1, 0, 0, 1, 0.5, 0.5)" fill-opacity="1">−1</text><text fill="rgb(68,68,68)" stroke="none" font-family="arial" font-size="20px" font-style="normal" font-weight="normal" text-decoration="normal" x="23.181819915771484" y="74.31640625" text-anchor="start" dominant-baseline="alphabetic" transform="matrix(1, 0, 0, 1, 0.5, 0.5)" fill-opacity="1">−0.5</text><text fill="rgb(68,68,68)" stroke="none" font-family="arial" font-size="20px" font-style="normal" font-weight="normal" text-decoration="normal" x="69.5" y="74.31640625" text-anchor="start" dominant-baseline="alphabetic" transform="matrix(1, 0, 0, 1, 0.5, 0.5)" fill-opacity="1">0</text><text fill="rgb(68,68,68)" stroke="none" font-family="arial" font-size="20px" font-style="normal" font-weight="normal" text-decoration="normal" x="92.81818389892578" y="74.31640625" text-anchor="start" dominant-baseline="alphabetic" transform="matrix(1, 0, 0, 1, 0.5, 0.5)" fill-opacity="1">0.5</text><text fill="rgb(68,68,68)" stroke="none" font-family="arial" font-size="20px" font-style="normal" font-weight="normal" text-decoration="normal" x="133.13636779785156" y="74.31640625" text-anchor="start" dominant-baseline="alphabetic" transform="matrix(1, 0, 0, 1, 0.5, 0.5)" fill-opacity="1">1</text><text fill="rgb(68,68,68)" stroke="none" font-family="helvetica" font-size="13px" font-style="italic" font-weight="normal" text-decoration="normal" x="43" y="93.93896484375" text-anchor="start" dominant-baseline="alphabetic" transform="matrix(1, 0, 0, 1, 0.5, 0.5)" fill-opacity="1">log-10 ratio</text></svg>