<svg version="1.1" xmlns="http://www.w3.org/2000/svg" width="150" height="125"><defs><clipPath id="kktyKPzxDUCg"><path fill="none" stroke="none" d="M 5.5 5.5 L 145.5 5.5 L 145.5 78.5 L 5.5 78.5 L 5.5 5.5"/></clipPath><clipPath id="ATIWmNQQMTIy"><path fill="none" stroke="none" d="M 5.5 5.5 L 145.5 5.5 L 145.5 78.5 L 5.5 78.5 L 5.5 5.5"/></clipPath><clipPath id="cTTSOdlmObPN"><path fill="none" stroke="none" d="M 5.5 5.5 L 145.5 5.5 L 145.5 78.5 L 5.5 78.5 L 5.5 5.5"/></clipPath><clipPath id="rubPTUFGzutf"><path fill="none" stroke="none" d="M 5.5 5.5 L 145.5 5.5 L 145.5 78.5 L 5.5 78.5 L 5.5 5.5"/></clipPath></defs><path fill="rgb(255,255,255)" stroke="none" paint-order="stroke" d="M 0.5 0.5 L 150.5 0.5 L 150.5 125.5 L 0.5 125.5 L 0.5 0.5" fill-opacity="1"/><rect fill="#FFFFFF" stroke="none" x="5" y="5" width="140" height="73" transform="matrix(1, 0, 0, 1, 0.5, 0.5)"/><path fill="rgb(255,255,255)" stroke="none" paint-order="stroke" d="M 5.5 5.5 L 145.5 5.5 L 145.5 78.5 L 5.5 78.5 L 5.5 5.5" fill-opacity="1"/><path fill="none" stroke="rgb(229,229,229)" paint-order="fill" d="M 5.5 5.5 L 145.5 5.5 L 145.5 78.5 L 5.5 78.5 L 5.5 5.5" stroke-opacity="1" stroke-linejoin="bevel" stroke-miterlimit="10" stroke-dasharray=""/><path fill="none" stroke="rgb(255,255,255)" paint-order="fill" d="M 11.5 78.5 L 11.5 5.5 M 43.5 78.5 L 43.5 5.5 M 75.5 78.5 L 75.5 5.5 M 107.5 78.5 L 107.5 5.5 M 139.5 78.5 L 139.5 5.5" stroke-opacity="1" stroke-linejoin="bevel" stroke-miterlimit="10" stroke-width="4" stroke-dasharray="" clip-path="url(#kktyKPzxDUCg)"/><path fill="none" stroke="rgb(255,255,255)" paint-order="fill" d="M 5.5 75.5 L 145.5 75.5 M 5.5 72.5 L 145.5 72.5 M 5.5 -227.5 L 145.5 -227.5 M 5.5 -30241.5 L 145.5 -30241.5" stroke-opacity="1" stroke-linejoin="bevel" stroke-miterlimit="10" stroke-width="4" stroke-dasharray="" clip-path="url(#ATIWmNQQMTIy)"/><path fill="rgb(70,130,180)" stroke="rgb(255,255,255)" paint-order="fill" d="M 11.863636016845703 75.18181610107422 L 26.005050659179688 75.18181610107422 L 26.005050659179688 75.18181610107422 L 11.863636016845703 75.18181610107422 L 11.863636016845703 75.18181610107422" fill-opacity="1" clip-path="url(#cTTSOdlmObPN)" stroke-opacity="1" stroke-linejoin="bevel" stroke-miterlimit="10" stroke-dasharray=""/><path fill="rgb(70,130,180)" stroke="rgb(255,255,255)" paint-order="fill" d="M 26.005050659179688 75.12118530273438 L 40.14646530151367 75.12118530273438 L 40.14646530151367 75.18181610107422 L 26.005050659179688 75.18181610107422 L 26.005050659179688 75.12118530273438" fill-opacity="1" clip-path="url(#cTTSOdlmObPN)" stroke-opacity="1" stroke-linejoin="bevel" stroke-miterlimit="10" stroke-dasharray=""/><path fill="rgb(70,130,180)" stroke="rgb(255,255,255)" paint-order="fill" d="M 40.14646530151367 74.90896606445312 L 54.287879943847656 74.90896606445312 L 54.287879943847656 75.18181610107422 L 40.14646530151367 75.18181610107422 L 40.14646530151367 74.90896606445312" fill-opacity="1" clip-path="url(#cTTSOdlmObPN)" stroke-opacity="1" stroke-linejoin="bevel" stroke-miterlimit="10" stroke-dasharray=""/><path fill="rgb(70,130,180)" stroke="rgb(255,255,255)" paint-order="fill" d="M 54.287879943847656 65.99580383300781 L 68.42929077148438 65.99580383300781 L 68.42929077148438 75.18181610107422 L 54.287879943847656 75.18181610107422 L 54.287879943847656 65.99580383300781" fill-opacity="1" clip-path="url(#cTTSOdlmObPN)" stroke-opacity="1" stroke-linejoin="bevel" stroke-miterlimit="10" stroke-dasharray=""/><path fill="rgb(70,130,180)" stroke="rgb(255,255,255)" paint-order="fill" d="M 68.42929077148438 8.818181991577148 L 82.57070922851562 8.818181991577148 L 82.57070922851562 75.18181610107422 L 68.42929077148438 75.18181610107422 L 68.42929077148438 8.818181991577148" fill-opacity="1" clip-path="url(#cTTSOdlmObPN)" stroke-opacity="1" stroke-linejoin="bevel" stroke-miterlimit="10" stroke-dasharray=""/><path fill="rgb(70,130,180)" stroke="rgb(255,255,255)" paint-order="fill" d="M 82.57070922851562 73.96914672851562 L 96.71212005615234 73.96914672851562 L 96.71212005615234 75.18181610107422 L 82.57070922851562 75.18181610107422 L 82.57070922851562 73.96914672851562" fill-opacity="1" clip-path="url(#cTTSOdlmObPN)" stroke-opacity="1" stroke-linejoin="bevel" stroke-miterlimit="10" stroke-dasharray=""/><path fill="rgb(70,130,180)" stroke="rgb(255,255,255)" paint-order="fill" d="M 96.71212005615234 75.18181610107422 L 110.8535385131836 75.18181610107422 L 110.8535385131836 75.18181610107422 L 96.71212005615234 75.18181610107422 L 96.71212005615234 75.18181610107422" fill-opacity="1" clip-path="url(#cTTSOdlmObPN)" stroke-opacity="1" stroke-linejoin="bevel" stroke-miterlimit="10" stroke-dasharray=""/><path fill="rgb(70,130,180)" stroke="rgb(255,255,255)" paint-order="fill" d="M 110.8535385131836 75.18181610107422 L 124.99494934082031 75.18181610107422 L 124.99494934082031 75.18181610107422 L 110.8535385131836 75.18181610107422 L 110.8535385131836 75.18181610107422" fill-opacity="1" clip-path="url(#cTTSOdlmObPN)" stroke-opacity="1" stroke-linejoin="bevel" stroke-miterlimit="10" stroke-dasharray=""/><path fill="rgb(70,130,180)" stroke="rgb(255,255,255)" paint-order="fill" d="M 124.99494934082031 75.18181610107422 L 139.13636779785156 75.18181610107422 L 139.13636779785156 75.18181610107422 L 124.99494934082031 75.18181610107422 L 124.99494934082031 75.18181610107422" fill-opacity="1" clip-path="url(#cTTSOdlmObPN)" stroke-opacity="1" stroke-linejoin="bevel" stroke-miterlimit="10" stroke-dasharray=""/><path fill="none" stroke="rgb(0,0,0)" paint-order="fill" d="M 5.5 78.5 L 145.5 78.5" stroke-opacity="1" stroke-linejoin="bevel" stroke-miterlimit="10" stroke-dasharray=""/><path fill="none" stroke="rgb(0,0,0)" paint-order="fill" d="M 11.5 84.5 L 11.5 76.5 M 43.5 84.5 L 43.5 76.5 M 75.5 84.5 L 75.5 76.5 M 107.5 84.5 L 107.5 76.5 M 139.5 84.5 L 139.5 76.5" stroke-opacity="1" stroke-linejoin="bevel" stroke-miterlimit="10" stroke-dasharray=""/><path fill="none" stroke="rgb(0,0,0)" paint-order="fill" d="" stroke-opacity="1" stroke-linejoin="bevel" stroke-miterlimit="10" stroke-dasharray=""/><text fill="rgb(68,68,68)" stroke="none" font-family="arial" font-size="15px" font-style="normal" font-weight="normal" text-decoration="normal" x="2.863636016845703" y="99.7373046875" text-anchor="start" dominant-baseline="alphabetic" transform="matrix(1, 0, 0, 1, 0.5, 0.5)" fill-opacity="1">−1</text><text fill="rgb(68,68,68)" stroke="none" font-family="arial" font-size="15px" font-style="normal" font-weight="normal" text-decoration="normal" x="28.681819915771484" y="99.7373046875" text-anchor="start" dominant-baseline="alphabetic" transform="matrix(1, 0, 0, 1, 0.5, 0.5)" fill-opacity="1">−0.5</text><text fill="rgb(68,68,68)" stroke="none" font-family="arial" font-size="15px" font-style="normal" font-weight="normal" text-decoration="normal" x="71" y="99.7373046875" text-anchor="start" dominant-baseline="alphabetic" transform="matrix(1, 0, 0, 1, 0.5, 0.5)" fill-opacity="1">0</text><text fill="rgb(68,68,68)" stroke="none" font-family="arial" font-size="15px" font-style="normal" font-weight="normal" text-decoration="normal" x="96.81818389892578" y="99.7373046875" text-anchor="start" dominant-baseline="alphabetic" transform="matrix(1, 0, 0, 1, 0.5, 0.5)" fill-opacity="1">0.5</text><text fill="rgb(68,68,68)" stroke="none" font-family="arial" font-size="15px" font-style="normal" font-weight="normal" text-decoration="normal" x="134.63636779785156" y="99.7373046875" text-anchor="start" dominant-baseline="alphabetic" transform="matrix(1, 0, 0, 1, 0.5, 0.5)" fill-opacity="1">1</text><text fill="rgb(68,68,68)" stroke="none" font-family="helvetica" font-size="13px" font-style="normal" font-weight="normal" text-decoration="normal" x="43" y="119.3916015625" text-anchor="start" dominant-baseline="alphabetic" transform="matrix(1, 0, 0, 1, 0.5, 0.5)" fill-opacity="1">log-10 ratio</text></svg>