<svg version="1.1" xmlns="http://www.w3.org/2000/svg" width="150" height="100"><defs><clipPath id="IieULKPyrrST"><path fill="none" stroke="none" d="M 5.5 5.5 L 120.5 5.5 L 120.5 51.5 L 5.5 51.5 L 5.5 5.5"/></clipPath><clipPath id="lOHzwygKTmtd"><path fill="none" stroke="none" d="M 5.5 5.5 L 120.5 5.5 L 120.5 51.5 L 5.5 51.5 L 5.5 5.5"/></clipPath><clipPath id="iHIPoRDTLCKU"><path fill="none" stroke="none" d="M 5.5 5.5 L 120.5 5.5 L 120.5 51.5 L 5.5 51.5 L 5.5 5.5"/></clipPath><clipPath id="QNZkewflFGbn"><path fill="none" stroke="none" d="M 5.5 5.5 L 120.5 5.5 L 120.5 51.5 L 5.5 51.5 L 5.5 5.5"/></clipPath></defs><path fill="rgb(255,255,255)" stroke="none" paint-order="stroke" d="M 0.5 0.5 L 150.5 0.5 L 150.5 100.5 L 0.5 100.5 L 0.5 0.5" fill-opacity="1"/><rect fill="#FFFFFF" stroke="none" x="5" y="5" width="115" height="46" transform="matrix(1, 0, 0, 1, 0.5, 0.5)"/><path fill="rgb(70,130,180)" stroke="rgb(255,255,255)" paint-order="fill" d="M 10.727272987365723 45.797760009765625 L 22.343435287475586 45.797760009765625 L 22.343435287475586 49.40909194946289 L 10.727272987365723 49.40909194946289 L 10.727272987365723 45.797760009765625" fill-opacity="1" clip-path="url(#iHIPoRDTLCKU)" stroke-opacity="1" stroke-linejoin="bevel" stroke-miterlimit="10" stroke-dasharray=""/><path fill="rgb(70,130,180)" stroke="rgb(255,255,255)" paint-order="fill" d="M 22.343435287475586 42.18642807006836 L 33.9595947265625 42.18642807006836 L 33.9595947265625 49.40909194946289 L 22.343435287475586 49.40909194946289 L 22.343435287475586 42.18642807006836" fill-opacity="1" clip-path="url(#iHIPoRDTLCKU)" stroke-opacity="1" stroke-linejoin="bevel" stroke-miterlimit="10" stroke-dasharray=""/><path fill="rgb(70,130,180)" stroke="rgb(255,255,255)" paint-order="fill" d="M 33.9595947265625 33.812320709228516 L 45.57575607299805 33.812320709228516 L 45.57575607299805 49.40909194946289 L 33.9595947265625 49.40909194946289 L 33.9595947265625 33.812320709228516" fill-opacity="1" clip-path="url(#iHIPoRDTLCKU)" stroke-opacity="1" stroke-linejoin="bevel" stroke-miterlimit="10" stroke-dasharray=""/><path fill="rgb(70,130,180)" stroke="rgb(255,255,255)" paint-order="fill" d="M 45.57575607299805 9.99846363067627 L 57.191917419433594 9.99846363067627 L 57.191917419433594 49.40909194946289 L 45.57575607299805 49.40909194946289 L 45.57575607299805 9.99846363067627" fill-opacity="1" clip-path="url(#iHIPoRDTLCKU)" stroke-opacity="1" stroke-linejoin="bevel" stroke-miterlimit="10" stroke-dasharray=""/><path fill="rgb(70,130,180)" stroke="rgb(255,255,255)" paint-order="fill" d="M 57.191917419433594 7.590909004211426 L 68.8080825805664 7.590909004211426 L 68.8080825805664 49.40909194946289 L 57.191917419433594 49.40909194946289 L 57.191917419433594 7.590909004211426" fill-opacity="1" clip-path="url(#iHIPoRDTLCKU)" stroke-opacity="1" stroke-linejoin="bevel" stroke-miterlimit="10" stroke-dasharray=""/><path fill="rgb(70,130,180)" stroke="rgb(255,255,255)" paint-order="fill" d="M 68.8080825805664 25.228866577148438 L 80.42424011230469 25.228866577148438 L 80.42424011230469 49.40909194946289 L 68.8080825805664 49.40909194946289 L 68.8080825805664 25.228866577148438" fill-opacity="1" clip-path="url(#iHIPoRDTLCKU)" stroke-opacity="1" stroke-linejoin="bevel" stroke-miterlimit="10" stroke-dasharray=""/><path fill="rgb(70,130,180)" stroke="rgb(255,255,255)" paint-order="fill" d="M 80.42424011230469 37.161964416503906 L 92.0404052734375 37.161964416503906 L 92.0404052734375 49.40909194946289 L 80.42424011230469 49.40909194946289 L 80.42424011230469 37.161964416503906" fill-opacity="1" clip-path="url(#iHIPoRDTLCKU)" stroke-opacity="1" stroke-linejoin="bevel" stroke-miterlimit="10" stroke-dasharray=""/><path fill="rgb(70,130,180)" stroke="rgb(255,255,255)" paint-order="fill" d="M 92.0404052734375 42.39577865600586 L 103.65656280517578 42.39577865600586 L 103.65656280517578 49.40909194946289 L 92.0404052734375 49.40909194946289 L 92.0404052734375 42.39577865600586" fill-opacity="1" clip-path="url(#iHIPoRDTLCKU)" stroke-opacity="1" stroke-linejoin="bevel" stroke-miterlimit="10" stroke-dasharray=""/><path fill="rgb(70,130,180)" stroke="rgb(255,255,255)" paint-order="fill" d="M 103.65656280517578 46.635169982910156 L 115.2727279663086 46.635169982910156 L 115.2727279663086 49.40909194946289 L 103.65656280517578 49.40909194946289 L 103.65656280517578 46.635169982910156" fill-opacity="1" clip-path="url(#iHIPoRDTLCKU)" stroke-opacity="1" stroke-linejoin="bevel" stroke-miterlimit="10" stroke-dasharray=""/><path fill="none" stroke="rgb(0,0,0)" paint-order="fill" d="M 5.5 51.5 L 120.5 51.5" stroke-opacity="1" stroke-linejoin="bevel" stroke-miterlimit="10" stroke-dasharray=""/><path fill="none" stroke="rgb(0,0,0)" paint-order="fill" d="M 10.5 57.5 L 10.5 49.5 M 36.5 57.5 L 36.5 49.5 M 63.5 57.5 L 63.5 49.5 M 89.5 57.5 L 89.5 49.5 M 115.5 57.5 L 115.5 49.5" stroke-opacity="1" stroke-linejoin="bevel" stroke-miterlimit="10" stroke-dasharray=""/><path fill="none" stroke="rgb(0,0,0)" paint-order="fill" d="" stroke-opacity="1" stroke-linejoin="bevel" stroke-miterlimit="10" stroke-dasharray=""/><text fill="rgb(68,68,68)" stroke="none" font-family="arial" font-size="15px" font-style="normal" font-weight="normal" text-decoration="normal" x="1.7272729873657227" y="72.7373046875" text-anchor="start" dominant-baseline="alphabetic" transform="matrix(1, 0, 0, 1, 0.5, 0.5)" fill-opacity="1">−1</text><text fill="rgb(68,68,68)" stroke="none" font-family="arial" font-size="15px" font-style="normal" font-weight="normal" text-decoration="normal" x="21.863636016845703" y="72.7373046875" text-anchor="start" dominant-baseline="alphabetic" transform="matrix(1, 0, 0, 1, 0.5, 0.5)" fill-opacity="1">−0.5</text><text fill="rgb(68,68,68)" stroke="none" font-family="arial" font-size="15px" font-style="normal" font-weight="normal" text-decoration="normal" x="58.5" y="72.7373046875" text-anchor="start" dominant-baseline="alphabetic" transform="matrix(1, 0, 0, 1, 0.5, 0.5)" fill-opacity="1">0</text><text fill="rgb(68,68,68)" stroke="none" font-family="arial" font-size="15px" font-style="normal" font-weight="normal" text-decoration="normal" x="78.63636016845703" y="72.7373046875" text-anchor="start" dominant-baseline="alphabetic" transform="matrix(1, 0, 0, 1, 0.5, 0.5)" fill-opacity="1">0.5</text><text fill="rgb(68,68,68)" stroke="none" font-family="arial" font-size="15px" font-style="normal" font-weight="normal" text-decoration="normal" x="110.7727279663086" y="72.7373046875" text-anchor="start" dominant-baseline="alphabetic" transform="matrix(1, 0, 0, 1, 0.5, 0.5)" fill-opacity="1">1</text><text fill="rgb(68,68,68)" stroke="none" font-family="arial" font-size="15px" font-style="normal" font-weight="normal" text-decoration="normal" x="26.5" y="94.1845703125" text-anchor="start" dominant-baseline="alphabetic" transform="matrix(1, 0, 0, 1, 0.5, 0.5)" fill-opacity="1">log-10 ratio</text></svg>