<svg version="1.1" xmlns="http://www.w3.org/2000/svg" width="170" height="120"><defs><clipPath id="BINpAgcTcHJU"><path fill="none" stroke="none" d="M 5.5 5.5 L 140.5 5.5 L 140.5 65.5 L 5.5 65.5 L 5.5 5.5"/></clipPath><clipPath id="xUesAscJkTDT"><path fill="none" stroke="none" d="M 5.5 5.5 L 140.5 5.5 L 140.5 65.5 L 5.5 65.5 L 5.5 5.5"/></clipPath><clipPath id="EAwVIUcRGIwO"><path fill="none" stroke="none" d="M 5.5 5.5 L 140.5 5.5 L 140.5 65.5 L 5.5 65.5 L 5.5 5.5"/></clipPath><clipPath id="qTSoDpAhxRqI"><path fill="none" stroke="none" d="M 5.5 5.5 L 140.5 5.5 L 140.5 65.5 L 5.5 65.5 L 5.5 5.5"/></clipPath></defs><path fill="rgb(255,255,255)" stroke="none" paint-order="stroke" d="M 0.5 0.5 L 170.5 0.5 L 170.5 120.5 L 0.5 120.5 L 0.5 0.5" fill-opacity="1"/><rect fill="#FFFFFF" stroke="none" x="5" y="5" width="135" height="60" transform="matrix(1, 0, 0, 1, 0.5, 0.5)"/><path fill="rgb(70,130,180)" stroke="rgb(255,255,255)" paint-order="fill" d="M 11.636363983154297 62.772727966308594 L 25.272727966308594 62.772727966308594 L 25.272727966308594 62.772727966308594 L 11.636363983154297 62.772727966308594 L 11.636363983154297 62.772727966308594" fill-opacity="1" clip-path="url(#EAwVIUcRGIwO)" stroke-opacity="1" stroke-linejoin="bevel" stroke-miterlimit="10" stroke-dasharray=""/><path fill="rgb(70,130,180)" stroke="rgb(255,255,255)" paint-order="fill" d="M 25.272727966308594 62.772727966308594 L 38.90909194946289 62.772727966308594 L 38.90909194946289 62.772727966308594 L 25.272727966308594 62.772727966308594 L 25.272727966308594 62.772727966308594" fill-opacity="1" clip-path="url(#EAwVIUcRGIwO)" stroke-opacity="1" stroke-linejoin="bevel" stroke-miterlimit="10" stroke-dasharray=""/><path fill="rgb(70,130,180)" stroke="rgb(255,255,255)" paint-order="fill" d="M 38.90909194946289 62.7138557434082 L 52.54545593261719 62.7138557434082 L 52.54545593261719 62.772727966308594 L 38.90909194946289 62.772727966308594 L 38.90909194946289 62.7138557434082" fill-opacity="1" clip-path="url(#EAwVIUcRGIwO)" stroke-opacity="1" stroke-linejoin="bevel" stroke-miterlimit="10" stroke-dasharray=""/><path fill="rgb(70,130,180)" stroke="rgb(255,255,255)" paint-order="fill" d="M 52.54545593261719 56.5027961730957 L 66.18181610107422 56.5027961730957 L 66.18181610107422 62.772727966308594 L 52.54545593261719 62.772727966308594 L 52.54545593261719 56.5027961730957" fill-opacity="1" clip-path="url(#EAwVIUcRGIwO)" stroke-opacity="1" stroke-linejoin="bevel" stroke-miterlimit="10" stroke-dasharray=""/><path fill="rgb(70,130,180)" stroke="rgb(255,255,255)" paint-order="fill" d="M 66.18181610107422 8.227272510528564 L 79.81818389892578 8.227272510528564 L 79.81818389892578 62.772727966308594 L 66.18181610107422 62.772727966308594 L 66.18181610107422 8.227272510528564" fill-opacity="1" clip-path="url(#EAwVIUcRGIwO)" stroke-opacity="1" stroke-linejoin="bevel" stroke-miterlimit="10" stroke-dasharray=""/><path fill="rgb(70,130,180)" stroke="rgb(255,255,255)" paint-order="fill" d="M 79.81818389892578 53.765220642089844 L 93.45454406738281 53.765220642089844 L 93.45454406738281 62.772727966308594 L 79.81818389892578 62.772727966308594 L 79.81818389892578 53.765220642089844" fill-opacity="1" clip-path="url(#EAwVIUcRGIwO)" stroke-opacity="1" stroke-linejoin="bevel" stroke-miterlimit="10" stroke-dasharray=""/><path fill="rgb(70,130,180)" stroke="rgb(255,255,255)" paint-order="fill" d="M 93.45454406738281 62.27231216430664 L 107.09091186523438 62.27231216430664 L 107.09091186523438 62.772727966308594 L 93.45454406738281 62.772727966308594 L 93.45454406738281 62.27231216430664" fill-opacity="1" clip-path="url(#EAwVIUcRGIwO)" stroke-opacity="1" stroke-linejoin="bevel" stroke-miterlimit="10" stroke-dasharray=""/><path fill="rgb(70,130,180)" stroke="rgb(255,255,255)" paint-order="fill" d="M 107.09091186523438 62.684417724609375 L 120.7272720336914 62.684417724609375 L 120.7272720336914 62.772727966308594 L 107.09091186523438 62.772727966308594 L 107.09091186523438 62.684417724609375" fill-opacity="1" clip-path="url(#EAwVIUcRGIwO)" stroke-opacity="1" stroke-linejoin="bevel" stroke-miterlimit="10" stroke-dasharray=""/><path fill="rgb(70,130,180)" stroke="rgb(255,255,255)" paint-order="fill" d="M 120.7272720336914 62.772727966308594 L 134.36363220214844 62.772727966308594 L 134.36363220214844 62.772727966308594 L 120.7272720336914 62.772727966308594 L 120.7272720336914 62.772727966308594" fill-opacity="1" clip-path="url(#EAwVIUcRGIwO)" stroke-opacity="1" stroke-linejoin="bevel" stroke-miterlimit="10" stroke-dasharray=""/><path fill="none" stroke="rgb(0,0,0)" paint-order="fill" d="M 5.5 65.5 L 140.5 65.5" stroke-opacity="1" stroke-linejoin="bevel" stroke-miterlimit="10" stroke-dasharray=""/><path fill="none" stroke="rgb(0,0,0)" paint-order="fill" d="M 11.5 71.5 L 11.5 63.5 M 42.5 71.5 L 42.5 63.5 M 73.5 71.5 L 73.5 63.5 M 103.5 71.5 L 103.5 63.5 M 134.5 71.5 L 134.5 63.5" stroke-opacity="1" stroke-linejoin="bevel" stroke-miterlimit="10" stroke-dasharray=""/><path fill="none" stroke="rgb(0,0,0)" paint-order="fill" d="" stroke-opacity="1" stroke-linejoin="bevel" stroke-miterlimit="10" stroke-dasharray=""/><text fill="rgb(0,0,0)" stroke="none" font-family="arial" font-size="18px" font-style="normal" font-weight="normal" text-decoration="normal" x="0.6363639831542969" y="88.884765625" text-anchor="start" dominant-baseline="alphabetic" transform="matrix(1, 0, 0, 1, 0.5, 0.5)" fill-opacity="1">−1</text><text fill="rgb(0,0,0)" stroke="none" font-family="arial" font-size="18px" font-style="normal" font-weight="normal" text-decoration="normal" x="23.818180084228516" y="88.884765625" text-anchor="start" dominant-baseline="alphabetic" transform="matrix(1, 0, 0, 1, 0.5, 0.5)" fill-opacity="1">−0.5</text><text fill="rgb(0,0,0)" stroke="none" font-family="arial" font-size="18px" font-style="normal" font-weight="normal" text-decoration="normal" x="67.5" y="88.884765625" text-anchor="start" dominant-baseline="alphabetic" transform="matrix(1, 0, 0, 1, 0.5, 0.5)" fill-opacity="1">0</text><text fill="rgb(0,0,0)" stroke="none" font-family="arial" font-size="18px" font-style="normal" font-weight="normal" text-decoration="normal" x="90.68181610107422" y="88.884765625" text-anchor="start" dominant-baseline="alphabetic" transform="matrix(1, 0, 0, 1, 0.5, 0.5)" fill-opacity="1">0.5</text><text fill="rgb(0,0,0)" stroke="none" font-family="arial" font-size="18px" font-style="normal" font-weight="normal" text-decoration="normal" x="128.86363220214844" y="88.884765625" text-anchor="start" dominant-baseline="alphabetic" transform="matrix(1, 0, 0, 1, 0.5, 0.5)" fill-opacity="1">1</text><text fill="rgb(0,0,0)" stroke="none" font-family="arial" font-size="18px" font-style="normal" font-weight="normal" text-decoration="normal" x="27.5" y="113.021484375" text-anchor="start" dominant-baseline="alphabetic" transform="matrix(1, 0, 0, 1, 0.5, 0.5)" fill-opacity="1">log-10 ratio</text></svg>