<svg version="1.1" xmlns="http://www.w3.org/2000/svg" width="250" height="200"><defs><clipPath id="zvWGtghasiMc"><path fill="none" stroke="none" d="M 5.5 5.5 L 220.5 5.5 L 220.5 122.5 L 5.5 122.5 L 5.5 5.5"/></clipPath><clipPath id="TRdeybFSKFXp"><path fill="none" stroke="none" d="M 5.5 5.5 L 220.5 5.5 L 220.5 122.5 L 5.5 122.5 L 5.5 5.5"/></clipPath><clipPath id="qPpFUIeyHrrg"><path fill="none" stroke="none" d="M 5.5 5.5 L 220.5 5.5 L 220.5 122.5 L 5.5 122.5 L 5.5 5.5"/></clipPath><clipPath id="eThSBiXFlToT"><path fill="none" stroke="none" d="M 5.5 5.5 L 220.5 5.5 L 220.5 122.5 L 5.5 122.5 L 5.5 5.5"/></clipPath></defs><path fill="rgb(255,255,255)" stroke="none" paint-order="stroke" d="M 0.5 0.5 L 250.5 0.5 L 250.5 200.5 L 0.5 200.5 L 0.5 0.5" fill-opacity="1"/><rect fill="#FFFFFF" stroke="none" x="5" y="5" width="215" height="117" transform="matrix(1, 0, 0, 1, 0.5, 0.5)"/><path fill="rgb(70,130,180)" stroke="rgb(255,255,255)" paint-order="fill" d="M 15.272727012634277 117.18181610107422 L 36.989898681640625 117.18181610107422 L 36.989898681640625 117.18181610107422 L 15.272727012634277 117.18181610107422 L 15.272727012634277 117.18181610107422" fill-opacity="1" clip-path="url(#qPpFUIeyHrrg)" stroke-opacity="1" stroke-linejoin="bevel" stroke-miterlimit="10" stroke-dasharray=""/><path fill="rgb(70,130,180)" stroke="rgb(255,255,255)" paint-order="fill" d="M 36.989898681640625 117.18181610107422 L 58.707069396972656 117.18181610107422 L 58.707069396972656 117.18181610107422 L 36.989898681640625 117.18181610107422 L 36.989898681640625 117.18181610107422" fill-opacity="1" clip-path="url(#qPpFUIeyHrrg)" stroke-opacity="1" stroke-linejoin="bevel" stroke-miterlimit="10" stroke-dasharray=""/><path fill="rgb(70,130,180)" stroke="rgb(255,255,255)" paint-order="fill" d="M 58.707069396972656 117.11676025390625 L 80.42424011230469 117.11676025390625 L 80.42424011230469 117.18181610107422 L 58.707069396972656 117.18181610107422 L 58.707069396972656 117.11676025390625" fill-opacity="1" clip-path="url(#qPpFUIeyHrrg)" stroke-opacity="1" stroke-linejoin="bevel" stroke-miterlimit="10" stroke-dasharray=""/><path fill="rgb(70,130,180)" stroke="rgb(255,255,255)" paint-order="fill" d="M 80.42424011230469 104.8865737915039 L 102.14141082763672 104.8865737915039 L 102.14141082763672 117.18181610107422 L 80.42424011230469 117.18181610107422 L 80.42424011230469 104.8865737915039" fill-opacity="1" clip-path="url(#qPpFUIeyHrrg)" stroke-opacity="1" stroke-linejoin="bevel" stroke-miterlimit="10" stroke-dasharray=""/><path fill="rgb(70,130,180)" stroke="rgb(255,255,255)" paint-order="fill" d="M 102.14141082763672 10.818181991577148 L 123.85858917236328 10.818181991577148 L 123.85858917236328 117.18181610107422 L 102.14141082763672 117.18181610107422 L 102.14141082763672 10.818181991577148" fill-opacity="1" clip-path="url(#qPpFUIeyHrrg)" stroke-opacity="1" stroke-linejoin="bevel" stroke-miterlimit="10" stroke-dasharray=""/><path fill="rgb(70,130,180)" stroke="rgb(255,255,255)" paint-order="fill" d="M 123.85858917236328 91.42034912109375 L 145.5757598876953 91.42034912109375 L 145.5757598876953 117.18181610107422 L 123.85858917236328 117.18181610107422 L 123.85858917236328 91.42034912109375" fill-opacity="1" clip-path="url(#qPpFUIeyHrrg)" stroke-opacity="1" stroke-linejoin="bevel" stroke-miterlimit="10" stroke-dasharray=""/><path fill="rgb(70,130,180)" stroke="rgb(255,255,255)" paint-order="fill" d="M 145.5757598876953 114.05921936035156 L 167.2929229736328 114.05921936035156 L 167.2929229736328 117.18181610107422 L 145.5757598876953 117.18181610107422 L 145.5757598876953 114.05921936035156" fill-opacity="1" clip-path="url(#qPpFUIeyHrrg)" stroke-opacity="1" stroke-linejoin="bevel" stroke-miterlimit="10" stroke-dasharray=""/><path fill="rgb(70,130,180)" stroke="rgb(255,255,255)" paint-order="fill" d="M 167.2929229736328 116.66138458251953 L 189.01010131835938 116.66138458251953 L 189.01010131835938 117.18181610107422 L 167.2929229736328 117.18181610107422 L 167.2929229736328 116.66138458251953" fill-opacity="1" clip-path="url(#qPpFUIeyHrrg)" stroke-opacity="1" stroke-linejoin="bevel" stroke-miterlimit="10" stroke-dasharray=""/><path fill="rgb(70,130,180)" stroke="rgb(255,255,255)" paint-order="fill" d="M 189.01010131835938 117.18181610107422 L 210.72727966308594 117.18181610107422 L 210.72727966308594 117.18181610107422 L 189.01010131835938 117.18181610107422 L 189.01010131835938 117.18181610107422" fill-opacity="1" clip-path="url(#qPpFUIeyHrrg)" stroke-opacity="1" stroke-linejoin="bevel" stroke-miterlimit="10" stroke-dasharray=""/><path fill="none" stroke="rgb(0,0,0)" paint-order="fill" d="M 5.5 122.5 L 220.5 122.5" stroke-opacity="1" stroke-linejoin="bevel" stroke-miterlimit="10" stroke-dasharray=""/><path fill="none" stroke="rgb(0,0,0)" paint-order="fill" d="M 15.5 128.5 L 15.5 120.5 M 64.5 128.5 L 64.5 120.5 M 113.5 128.5 L 113.5 120.5 M 161.5 128.5 L 161.5 120.5 M 210.5 128.5 L 210.5 120.5" stroke-opacity="1" stroke-linejoin="bevel" stroke-miterlimit="10" stroke-dasharray=""/><path fill="none" stroke="rgb(0,0,0)" paint-order="fill" d="" stroke-opacity="1" stroke-linejoin="bevel" stroke-miterlimit="10" stroke-dasharray=""/><text fill="rgb(0,0,0)" stroke="none" font-family="arial" font-size="32px" font-style="normal" font-weight="normal" text-decoration="normal" x="0" y="155.90625" text-anchor="start" dominant-baseline="alphabetic" transform="matrix(1, 0, 0, 1, 0.5, 0.5)" fill-opacity="1">−1</text><text fill="rgb(0,0,0)" stroke="none" font-family="arial" font-size="32px" font-style="normal" font-weight="normal" text-decoration="normal" x="31.636363983154297" y="155.90625" text-anchor="start" dominant-baseline="alphabetic" transform="matrix(1, 0, 0, 1, 0.5, 0.5)" fill-opacity="1">−0.5</text><text fill="rgb(0,0,0)" stroke="none" font-family="arial" font-size="32px" font-style="normal" font-weight="normal" text-decoration="normal" x="103.5" y="155.90625" text-anchor="start" dominant-baseline="alphabetic" transform="matrix(1, 0, 0, 1, 0.5, 0.5)" fill-opacity="1">0</text><text fill="rgb(0,0,0)" stroke="none" font-family="arial" font-size="32px" font-style="normal" font-weight="normal" text-decoration="normal" x="138.86363220214844" y="155.90625" text-anchor="start" dominant-baseline="alphabetic" transform="matrix(1, 0, 0, 1, 0.5, 0.5)" fill-opacity="1">0.5</text><text fill="rgb(0,0,0)" stroke="none" font-family="arial" font-size="32px" font-style="normal" font-weight="normal" text-decoration="normal" x="201.22727966308594" y="155.90625" text-anchor="start" dominant-baseline="alphabetic" transform="matrix(1, 0, 0, 1, 0.5, 0.5)" fill-opacity="1">1</text><text fill="rgb(0,0,0)" stroke="none" font-family="arial" font-size="30px" font-style="normal" font-weight="normal" text-decoration="normal" x="38" y="190.80078125" text-anchor="start" dominant-baseline="alphabetic" transform="matrix(1, 0, 0, 1, 0.5, 0.5)" fill-opacity="1">log-10 ratio</text></svg>