<svg version="1.1" xmlns="http://www.w3.org/2000/svg" width="200" height="150"><defs><clipPath id="HyhJTsDRKdog"><path fill="none" stroke="none" d="M 5.5 5.5 L 170.5 5.5 L 170.5 92.5 L 5.5 92.5 L 5.5 5.5"/></clipPath><clipPath id="zpATEyHDZZLy"><path fill="none" stroke="none" d="M 5.5 5.5 L 170.5 5.5 L 170.5 92.5 L 5.5 92.5 L 5.5 5.5"/></clipPath><clipPath id="qlepTEEEMhbR"><path fill="none" stroke="none" d="M 5.5 5.5 L 170.5 5.5 L 170.5 92.5 L 5.5 92.5 L 5.5 5.5"/></clipPath><clipPath id="lEelTrMhuChU"><path fill="none" stroke="none" d="M 5.5 5.5 L 170.5 5.5 L 170.5 92.5 L 5.5 92.5 L 5.5 5.5"/></clipPath></defs><path fill="rgb(255,255,255)" stroke="none" paint-order="stroke" d="M 0.5 0.5 L 200.5 0.5 L 200.5 150.5 L 0.5 150.5 L 0.5 0.5" fill-opacity="1"/><rect fill="#FFFFFF" stroke="none" x="5" y="5" width="165" height="87" transform="matrix(1, 0, 0, 1, 0.5, 0.5)"/><path fill="rgb(70,130,180)" stroke="rgb(255,255,255)" paint-order="fill" d="M 13 88.54545593261719 L 29.66666603088379 88.54545593261719 L 29.66666603088379 88.54545593261719 L 13 88.54545593261719 L 13 88.54545593261719" fill-opacity="1" clip-path="url(#qlepTEEEMhbR)" stroke-opacity="1" stroke-linejoin="bevel" stroke-miterlimit="10" stroke-dasharray=""/><path fill="rgb(70,130,180)" stroke="rgb(255,255,255)" paint-order="fill" d="M 29.66666603088379 88.19510650634766 L 46.33333206176758 88.19510650634766 L 46.33333206176758 88.54545593261719 L 29.66666603088379 88.54545593261719 L 29.66666603088379 88.19510650634766" fill-opacity="1" clip-path="url(#qlepTEEEMhbR)" stroke-opacity="1" stroke-linejoin="bevel" stroke-miterlimit="10" stroke-dasharray=""/><path fill="rgb(70,130,180)" stroke="rgb(255,255,255)" paint-order="fill" d="M 46.33333206176758 81.01298522949219 L 63 81.01298522949219 L 63 88.54545593261719 L 46.33333206176758 88.54545593261719 L 46.33333206176758 81.01298522949219" fill-opacity="1" clip-path="url(#qlepTEEEMhbR)" stroke-opacity="1" stroke-linejoin="bevel" stroke-miterlimit="10" stroke-dasharray=""/><path fill="rgb(70,130,180)" stroke="rgb(255,255,255)" paint-order="fill" d="M 63 41.248565673828125 L 79.66666412353516 41.248565673828125 L 79.66666412353516 88.54545593261719 L 63 88.54545593261719 L 63 41.248565673828125" fill-opacity="1" clip-path="url(#qlepTEEEMhbR)" stroke-opacity="1" stroke-linejoin="bevel" stroke-miterlimit="10" stroke-dasharray=""/><path fill="rgb(70,130,180)" stroke="rgb(255,255,255)" paint-order="fill" d="M 79.66666412353516 9.454545021057129 L 96.33333587646484 9.454545021057129 L 96.33333587646484 88.54545593261719 L 79.66666412353516 88.54545593261719 L 79.66666412353516 9.454545021057129" fill-opacity="1" clip-path="url(#qlepTEEEMhbR)" stroke-opacity="1" stroke-linejoin="bevel" stroke-miterlimit="10" stroke-dasharray=""/><path fill="rgb(70,130,180)" stroke="rgb(255,255,255)" paint-order="fill" d="M 96.33333587646484 38.6209602355957 L 113 38.6209602355957 L 113 88.54545593261719 L 96.33333587646484 88.54545593261719 L 96.33333587646484 38.6209602355957" fill-opacity="1" clip-path="url(#qlepTEEEMhbR)" stroke-opacity="1" stroke-linejoin="bevel" stroke-miterlimit="10" stroke-dasharray=""/><path fill="rgb(70,130,180)" stroke="rgb(255,255,255)" paint-order="fill" d="M 113 72.60465240478516 L 129.6666717529297 72.60465240478516 L 129.6666717529297 88.54545593261719 L 113 88.54545593261719 L 113 72.60465240478516" fill-opacity="1" clip-path="url(#qlepTEEEMhbR)" stroke-opacity="1" stroke-linejoin="bevel" stroke-miterlimit="10" stroke-dasharray=""/><path fill="rgb(70,130,180)" stroke="rgb(255,255,255)" paint-order="fill" d="M 129.6666717529297 81.36333465576172 L 146.3333282470703 81.36333465576172 L 146.3333282470703 88.54545593261719 L 129.6666717529297 88.54545593261719 L 129.6666717529297 81.36333465576172" fill-opacity="1" clip-path="url(#qlepTEEEMhbR)" stroke-opacity="1" stroke-linejoin="bevel" stroke-miterlimit="10" stroke-dasharray=""/><path fill="rgb(70,130,180)" stroke="rgb(255,255,255)" paint-order="fill" d="M 146.3333282470703 86.35578155517578 L 163 86.35578155517578 L 163 88.54545593261719 L 146.3333282470703 88.54545593261719 L 146.3333282470703 86.35578155517578" fill-opacity="1" clip-path="url(#qlepTEEEMhbR)" stroke-opacity="1" stroke-linejoin="bevel" stroke-miterlimit="10" stroke-dasharray=""/><path fill="none" stroke="rgb(0,0,0)" paint-order="fill" d="M 5.5 92.5 L 170.5 92.5" stroke-opacity="1" stroke-linejoin="bevel" stroke-miterlimit="10" stroke-dasharray=""/><path fill="none" stroke="rgb(0,0,0)" paint-order="fill" d="M 13.5 98.5 L 13.5 90.5 M 88.5 98.5 L 88.5 90.5 M 163.5 98.5 L 163.5 90.5" stroke-opacity="1" stroke-linejoin="bevel" stroke-miterlimit="10" stroke-dasharray=""/><path fill="none" stroke="rgb(0,0,0)" paint-order="fill" d="" stroke-opacity="1" stroke-linejoin="bevel" stroke-miterlimit="10" stroke-dasharray=""/><text fill="rgb(68,68,68)" stroke="none" font-family="arial" font-size="20px" font-style="normal" font-weight="normal" text-decoration="normal" x="0" y="117.31640625" text-anchor="start" dominant-baseline="alphabetic" transform="matrix(1, 0, 0, 1, 0.5, 0.5)" fill-opacity="1">−0.5</text><text fill="rgb(68,68,68)" stroke="none" font-family="arial" font-size="20px" font-style="normal" font-weight="normal" text-decoration="normal" x="82" y="117.31640625" text-anchor="start" dominant-baseline="alphabetic" transform="matrix(1, 0, 0, 1, 0.5, 0.5)" fill-opacity="1">0</text><text fill="rgb(68,68,68)" stroke="none" font-family="arial" font-size="20px" font-style="normal" font-weight="normal" text-decoration="normal" x="148.5" y="117.31640625" text-anchor="start" dominant-baseline="alphabetic" transform="matrix(1, 0, 0, 1, 0.5, 0.5)" fill-opacity="1">0.5</text><text fill="rgb(68,68,68)" stroke="none" font-family="arial" font-size="20px" font-style="normal" font-weight="normal" text-decoration="normal" x="37.5" y="143.24609375" text-anchor="start" dominant-baseline="alphabetic" transform="matrix(1, 0, 0, 1, 0.5, 0.5)" fill-opacity="1">log-10 ratio</text></svg>